<?xml version="1.0" encoding="UTF-8"?>
<svg width="18px" height="19px" viewBox="0 0 18 19" version="1.1" xmlns="http://www.w3.org/2000/svg" xmlns:xlink="http://www.w3.org/1999/xlink">
    <title>deer-nose</title>
    <g id="deer-nose" stroke="none" stroke-width="1" fill="none" fill-rule="evenodd" stroke-linecap="round" stroke-linejoin="round">
        <path d="M6.94473723,2.264 C6.91273723,2.17533333 6.89707056,2.13866667 6.89773723,2.154 C6.86707056,2.10666667 6.83707056,2.06766667 6.80773723,2.037 C6.77840389,2.00566667 6.76140389,1.99333333 6.75673723,2 C6.75273723,2.00733333 6.75273723,2.006 6.75673723,1.996 C6.76140389,1.98533333 6.71907056,1.978 6.62973723,1.974 C6.54040389,1.96933333 6.43107056,1.98 6.30173723,2.006 C6.17307056,2.03133333 6.08040389,2.058 6.02373723,2.086 C5.96707056,2.114 5.92607056,2.133 5.90073723,2.143 C5.87473723,2.15233333 5.84773723,2.16133333 5.81973723,2.17 C5.79107056,2.17866667 5.74607056,2.19866667 5.68473723,2.23 C5.62340389,2.26133333 5.54540389,2.296 5.45073723,2.334 C5.35673723,2.372 5.21440389,2.45166667 5.02373723,2.573 C4.83307056,2.69433333 4.67940389,2.80366667 4.56273723,2.901 C4.44607056,2.99833333 4.37973723,3.05333333 4.36373723,3.066 C4.34773723,3.078 4.22207056,3.187 3.98673723,3.393 C3.75073723,3.599 3.53407056,3.84866667 3.33673723,4.142 C3.13940389,4.43533333 3.00207056,4.67366667 2.92473723,4.857 C2.84673723,5.04033333 2.77307056,5.21166667 2.70373723,5.371 C2.63373723,5.53033333 2.59373723,5.62566667 2.58373723,5.657 C2.57307056,5.689 2.53873723,5.77866667 2.48073723,5.926 C2.42273723,6.074 2.37440389,6.24366667 2.33573723,6.435 C2.29773723,6.62633333 2.27707056,6.75833333 2.27373723,6.831 C2.27107056,6.90366667 2.25340389,7.01666667 2.22073723,7.17 C2.18807056,7.324 2.16707056,7.46966667 2.15773723,7.607 C2.14840389,7.745 2.14573723,7.82066667 2.14973723,7.834 C2.15307056,7.84733333 2.15173723,7.899 2.14573723,7.989 C2.13973723,8.07966667 2.13473723,8.138 2.13073723,8.164 C2.12607056,8.18933333 2.12473723,8.198 2.12673723,8.19 C2.12873723,8.18133333 2.12573723,8.19866667 2.11773723,8.242 C2.10907056,8.28533333 2.09773723,8.38433333 2.08373723,8.539 C2.06973723,8.693 2.06107056,8.801 2.05773723,8.863 C2.05507056,8.92566667 2.05140389,8.983 2.04673723,9.035 C2.04140389,9.08766667 2.03873723,9.112 2.03873723,9.108 C2.03807056,9.10466667 2.03773723,9.12233333 2.03773723,9.161 C2.03773723,9.19966667 2.03540389,9.28066667 2.03073723,9.404 C2.02607056,9.52666667 2.02407056,9.651 2.02473723,9.777 C2.02540389,9.90233333 2.02573723,9.973 2.02573723,9.989 C2.02573723,10.0056667 2.02573723,10.1053333 2.02573723,10.288 C2.02573723,10.4713333 2.02573723,10.6016667 2.02573723,10.679 C2.02573723,10.7556667 2.02840389,10.8256667 2.03373723,10.889 C2.03907056,10.9516667 2.03673723,11.0016667 2.02673723,11.039 C2.01673723,11.0763333 2.02607056,11.2353333 2.05473723,11.516 C2.08273723,11.7966667 2.13073723,12.0346667 2.19873723,12.23 C2.26673723,12.426 2.32573723,12.5736667 2.37573723,12.673 C2.42507056,12.7723333 2.46540389,12.8486667 2.49673723,12.902 C2.52740389,12.956 2.54673723,12.9846667 2.55473723,12.988 C2.56273723,12.9913333 2.55707056,12.9923333 2.53773723,12.991 C2.51773723,12.989 2.57507056,13.059 2.70973723,13.201 C2.84373723,13.3423333 2.97840389,13.4556667 3.11373723,13.541 C3.24973723,13.6256667 3.35940389,13.707 3.44273723,13.785 C3.52607056,13.863 3.59407056,13.9216667 3.64673723,13.961 C3.69873723,14.0003333 3.73973723,14.0273333 3.76973723,14.042 C3.79973723,14.0566667 3.83507056,14.0753333 3.87573723,14.098 C3.91640389,14.12 3.93507056,14.13 3.93173723,14.128 C3.92840389,14.126 3.94573723,14.133 3.98373723,14.149 C4.02107056,14.1656667 4.03340389,14.1736667 4.02073723,14.173 C4.00807056,14.1716667 4.02773723,14.1783333 4.07973723,14.193 C4.13173723,14.2076667 4.29273723,14.2723333 4.56273723,14.387 C4.83273723,14.5016667 5.08073723,14.6326667 5.30673723,14.78 C5.53273723,14.9266667 5.70673723,15.0286667 5.82873723,15.086 C5.95073723,15.1426667 6.02007056,15.1806667 6.03673723,15.2 C6.05407056,15.22 6.10473723,15.2436667 6.18873723,15.271 C6.27207056,15.299 6.34340389,15.3193333 6.40273723,15.332 C6.46207056,15.3446667 6.51673723,15.354 6.56673723,15.36 C6.61607056,15.366 6.62773723,15.369 6.60173723,15.369 C6.57640389,15.3683333 6.71740389,15.4023333 7.02473723,15.471 C7.33207056,15.5396667 7.62273723,15.5753333 7.89673723,15.578 C8.17073723,15.5806667 8.39740389,15.5823333 8.57673723,15.5830233 C8.75607056,15.5836667 8.89673723,15.57 8.99873723,15.542 C9.10140389,15.5133333 9.18873723,15.4896667 9.26073723,15.471 C9.33340389,15.4523333 9.39073723,15.437 9.43273723,15.425 C9.47473723,15.4123333 9.49373723,15.4066667 9.48973723,15.408 C9.48640389,15.4093333 9.48207056,15.4106667 9.47673723,15.412 C9.47140389,15.4133333 9.50407056,15.4036667 9.57473723,15.383 C9.64540389,15.3616667 9.67507056,15.3526667 9.66373723,15.356 C9.65240389,15.36 9.64773723,15.3613333 9.64973723,15.36 C9.65173723,15.3586667 9.67973723,15.3533333 9.73373723,15.344 C9.78773723,15.334 9.83307056,15.3276667 9.86973723,15.325 C9.90640389,15.3223333 9.95240389,15.3143333 10.0077372,15.301 C10.0630706,15.2876667 10.1067372,15.2766667 10.1387372,15.268 C10.1714039,15.2593333 10.2004039,15.2516667 10.2257372,15.245 C10.2504039,15.2383333 10.2520706,15.2376667 10.2307372,15.243 C10.2087372,15.2483333 10.2310706,15.2423333 10.2977372,15.225 C10.3637372,15.2076667 10.4180706,15.1923333 10.4607372,15.179 C10.5027372,15.165 10.5377372,15.1536667 10.5657372,15.145 C10.5930706,15.1356667 10.6554039,15.1106667 10.7527372,15.07 C10.8494039,15.03 10.8867372,15.015 10.8647372,15.025 C10.8427372,15.035 10.8487372,15.0306667 10.8827372,15.012 C10.9167372,14.994 10.9654039,14.968 11.0287372,14.934 C11.0920706,14.8993333 11.1424039,14.8733333 11.1797372,14.856 C11.2170706,14.8386667 11.2617372,14.8166667 11.3137372,14.79 C11.3650706,14.7633333 11.3957372,14.748 11.4057372,14.744 C11.4157372,14.7393333 11.4180706,14.7383333 11.4127372,14.741 C11.4067372,14.7436667 11.4137372,14.7413333 11.4337372,14.734 C11.4530706,14.726 11.5130706,14.696 11.6137372,14.644 C11.7137372,14.5913333 11.7670706,14.5636667 11.7737372,14.561 C11.7804039,14.559 11.8417372,14.525 11.9577372,14.459 C12.0744039,14.3923333 12.1687372,14.3423333 12.2407372,14.309 C12.3127372,14.2756667 12.3677372,14.2506667 12.4057372,14.234 C12.4437372,14.2166667 12.4814039,14.2 12.5187372,14.184 C12.5554039,14.1673333 12.5760706,14.1576667 12.5807372,14.155 C12.5854039,14.153 12.5884039,14.152 12.5897372,14.152 C12.5904039,14.1526667 12.6407372,14.1386667 12.7407372,14.11 C12.8407372,14.0813333 12.9554039,14.0346667 13.0847372,13.97 C13.2147372,13.9046667 13.3090706,13.8503333 13.3677372,13.807 C13.4270706,13.7643333 13.4694039,13.7343333 13.4947372,13.717 C13.5200706,13.6996667 13.5257372,13.6963333 13.5117372,13.707 C13.4977372,13.7176667 13.5184039,13.7006667 13.5737372,13.656 C13.6284039,13.6113333 13.7220706,13.521 13.8547372,13.385 C13.9874039,13.2483333 14.0917372,13.126 14.1677372,13.018 C14.2444039,12.9106667 14.3064039,12.8263333 14.3537372,12.765 C14.4010706,12.7043333 14.4494039,12.6376667 14.4987372,12.565 C14.5487372,12.4923333 14.5867372,12.428 14.6127372,12.372 C14.6380706,12.3153333 14.6644039,12.2506667 14.6917372,12.178 C14.7190706,12.1053333 14.7334039,12.0666667 14.7347372,12.062 C14.7367372,12.0573333 14.7720706,11.956 14.8407372,11.758 C14.9100706,11.5593333 14.9610706,11.406 14.9937372,11.298 C15.0264039,11.19 15.0520706,11.1013333 15.0707372,11.032 C15.0894039,10.9633333 15.1037372,10.9163333 15.1137372,10.891 C15.1244039,10.8656667 15.1340706,10.835 15.1427372,10.799 C15.1520706,10.7636667 15.1694039,10.6993333 15.1947372,10.606 C15.2200706,10.512 15.2387372,10.44 15.2507372,10.39 C15.2634039,10.34 15.2724039,10.3043333 15.2777372,10.283 C15.2830706,10.261 15.2854039,10.2433333 15.2847372,10.23 C15.2847372,10.2166667 15.2864039,10.218 15.2897372,10.234 C15.2930706,10.2506667 15.3060706,10.153 15.3287372,9.941 C15.3507372,9.72833333 15.3600706,9.51633333 15.3567372,9.305 C15.3534039,9.09366667 15.3507372,8.92633333 15.3487372,8.803 C15.3460706,8.679 15.3444039,8.589 15.3437372,8.533 C15.3424039,8.47766667 15.3417372,8.44066667 15.3417372,8.422 C15.3424039,8.40333333 15.3404039,8.38633333 15.3357372,8.371 C15.3310706,8.35566667 15.3324039,8.35566667 15.3397372,8.371 C15.3470706,8.38566667 15.3500706,8.30533333 15.3487372,8.13 C15.3480706,7.95466667 15.3314039,7.80566667 15.2987372,7.683 C15.2654039,7.56033333 15.2387372,7.473 15.2187372,7.421 C15.1987372,7.36833333 15.1807372,7.31833333 15.1647372,7.271 C15.1487372,7.223 15.1374039,7.191 15.1307372,7.175 C15.1240706,7.159 15.1130706,7.128 15.0977372,7.082 C15.0830706,7.036 15.0714039,6.999 15.0627372,6.971 C15.0534039,6.94366667 15.0454039,6.91633333 15.0387372,6.889 C15.0320706,6.86166667 15.0234039,6.82766667 15.0127372,6.787 C15.0014039,6.74566667 14.9984039,6.73333333 15.0037372,6.75 C15.0084039,6.76666667 15.0090706,6.769 15.0057372,6.757 C15.0024039,6.745 14.9990706,6.735 14.9957372,6.727 C14.9924039,6.719 14.9887372,6.709 14.9847372,6.697 C14.9807372,6.685 14.9800706,6.683 14.9827372,6.691 C14.9854039,6.69966667 14.9690706,6.63833333 14.9337372,6.507 C14.8990706,6.37633333 14.8830706,6.318 14.8857372,6.332 C14.8444039,6.24066667 14.8000706,6.04666667 14.7527372,5.75 C14.7060706,5.45266667 14.6140706,5.19133333 14.4767372,4.966 C14.3387372,4.74 14.2287372,4.58 14.1467372,4.486 C14.0647372,4.39133333 13.9937372,4.31266667 13.9337372,4.25 C13.8744039,4.18666667 13.8284039,4.14033333 13.7957372,4.111 C13.7624039,4.08166667 13.7430706,4.06433333 13.7377372,4.059 C13.7324039,4.05366667 13.7140706,4.03733333 13.6827372,4.01 C13.6514039,3.98266667 13.6227372,3.95733333 13.5967372,3.934 C13.5714039,3.91066667 13.5507372,3.893 13.5347372,3.881 C13.5187372,3.86833333 13.5130706,3.86166667 13.5177372,3.861 C13.5217372,3.86033333 13.4797372,3.82466667 13.3917372,3.754 C13.3030706,3.68333333 13.1494039,3.58566667 12.9307372,3.461 C12.7127372,3.33633333 12.4884039,3.187 12.2577372,3.013 C12.0270706,2.83833333 11.8544039,2.707 11.7397372,2.619 C11.6250706,2.53166667 11.5274039,2.46066667 11.4467372,2.406 C11.3654039,2.352 11.3070706,2.316 11.2717372,2.298 C11.2364039,2.28 11.2110706,2.26633333 11.1957372,2.257 C11.1810706,2.24766667 11.1447372,2.22733333 11.0867372,2.196 C11.0294039,2.16533333 10.9570706,2.13066667 10.8697372,2.092 C10.7824039,2.05333333 10.7250706,2.03 10.6977372,2.022 C10.6710706,2.01333333 10.6580706,2.009 10.6587372,2.009 C10.6587372,2.00966667 10.6527372,2.012 10.6407372,2.016 C10.6280706,2.01933333 10.6317372,2.01366667 10.6517372,1.999 C10.6717372,1.98433333 10.4667372,1.93566667 10.0367372,1.853 C9.60673723,1.77033333 9.27140389,1.721 9.03073723,1.705 C8.79073723,1.689 8.60773723,1.67833333 8.48173723,1.673 C8.35573723,1.667 8.26540389,1.651 8.21073723,1.625 C8.15540389,1.59833333 8.12107056,1.583 8.10773723,1.579 C8.09373723,1.57566667 8.09007056,1.575 8.09673723,1.577 C8.10407056,1.579 8.07940389,1.56933333 8.02273723,1.548 C7.96673723,1.52666667 7.90640389,1.501 7.84173723,1.471 C7.77773723,1.441 7.73607056,1.41966667 7.71673723,1.407" id="STROKE_149f2cf3-8924-4081-8e44-ae8cb3640b9d" stroke="#ED5D47" stroke-width="0.5" fill="#ED5D47" fill-rule="nonzero"></path>
        <path d="M10.2687372,2.751 C10.2794039,2.705 10.2837372,2.651 10.2817372,2.589 C10.2797372,2.527 10.2780706,2.50333333 10.2767372,2.518 C10.2747372,2.532 10.2777372,2.52766667 10.2857372,2.505 C10.2944039,2.483 10.2947372,2.39366667 10.2867372,2.237 C10.2794039,2.081 10.2157372,1.99 10.0957372,1.964 C9.97507056,1.938 9.80907056,1.88166667 9.59773723,1.795 C9.38640389,1.70833333 9.20273723,1.65566667 9.04673723,1.637 C8.89007056,1.61833333 8.82140389,1.61333333 8.84073723,1.622 C8.85940389,1.63133333 8.80040389,1.63566667 8.66373723,1.635 C8.52640389,1.63366667 8.26773723,1.61533333 7.88773723,1.58 C7.50840389,1.544 7.11773723,1.571 6.71573723,1.661 C6.31440389,1.75033333 6.01773723,1.84566667 5.82573723,1.947 C5.63373723,2.049 5.51173723,2.116 5.45973723,2.148 C5.40773723,2.17933333 5.38707056,2.19066667 5.39773723,2.182 C5.40840389,2.174 5.32507056,2.23333333 5.14773723,2.36 C4.97107056,2.48666667 4.81073723,2.61866667 4.66673723,2.756 C4.52273723,2.89333333 4.36373723,3.045 4.18973723,3.211 C4.01573723,3.377 3.93040389,3.45933333 3.93373723,3.458 C3.93773723,3.45666667 3.93940389,3.45533333 3.93873723,3.454 C3.93873723,3.45266667 3.87207056,3.53266667 3.73873723,3.694 C3.60607056,3.85533333 3.53907056,3.93633333 3.53773723,3.937 C3.53640389,3.93833333 3.54140389,3.933 3.55273723,3.921 C3.56340389,3.909 3.51240389,3.97566667 3.39973723,4.121 C3.28707056,4.26566667 3.11340389,4.601 2.87873723,5.127 C2.64407056,5.653 2.47640389,6.08466667 2.37573723,6.422 C2.27440389,6.75933333 2.20873723,6.99733333 2.17873723,7.136 C2.14873723,7.27466667 2.14040389,7.32266667 2.15373723,7.28 C2.16707056,7.23733333 2.15273723,7.29633333 2.11073723,7.457 C2.06873723,7.61766667 2.01240389,7.91933333 1.94173723,8.362 C1.87173723,8.804 1.83773723,9.12266667 1.83973723,9.318 C1.84240389,9.51266667 1.84340389,9.68233333 1.84273723,9.827 C1.84207056,9.97166667 1.84240389,10.1713333 1.84373723,10.426 C1.84440389,10.6806667 1.84340389,10.901 1.84073723,11.087 C1.83807056,11.273 1.83707056,11.432 1.83773723,11.564 C1.83907056,11.6966667 1.86707056,11.8636667 1.92173723,12.065 C1.97640389,12.2663333 2.02107056,12.437 2.05573723,12.577 C2.08973723,12.717 2.12973723,12.834 2.17573723,12.928 C2.22107056,13.022 2.24507056,13.069 2.24773723,13.069 C2.25040389,13.0696667 2.24440389,13.0606667 2.22973723,13.042 C2.21440389,13.0233333 2.26173723,13.1003333 2.37173723,13.273 C2.48173723,13.4456667 2.56240389,13.5653333 2.61373723,13.632 C2.66507056,13.6986667 2.67607056,13.715 2.64673723,13.681 C2.61807056,13.6463333 2.67940389,13.711 2.83073723,13.875 C2.98207056,14.0383333 3.14707056,14.1873333 3.32573723,14.322 C3.50440389,14.456 3.67007056,14.5826667 3.82273723,14.702 C3.97540389,14.822 4.03640389,14.87 4.00573723,14.846 C3.97573723,14.822 3.96140389,14.8106667 3.96273723,14.812 C3.96473723,14.8133333 3.96773723,14.8156667 3.97173723,14.819 C3.97573723,14.8216667 3.97040389,14.818 3.95573723,14.808 C3.94173723,14.798 3.95207056,14.805 3.98673723,14.829 C4.02140389,14.8536667 4.12307056,14.9213333 4.29173723,15.032 C4.46040389,15.1426667 4.60873723,15.2413333 4.73673723,15.328 C4.86540389,15.4153333 4.94107056,15.4546667 4.96373723,15.446 C4.98707056,15.438 5.00307056,15.454 5.01173723,15.494 C5.02107056,15.534 5.17107056,15.6103333 5.46173723,15.723 C5.75307056,15.8356667 6.11907056,15.933 6.55973723,16.015 C7.00040389,16.097 7.38107056,16.169 7.70173723,16.231 C8.02240389,16.2936667 8.30673723,16.334 8.55473723,16.352 C8.80273723,16.37 9.03140389,16.3773333 9.24073723,16.374 C9.45007056,16.37 9.70607056,16.3693333 10.0087372,16.372 C10.3114039,16.3747813 10.5760706,16.3343333 10.8027372,16.251 C11.0294039,16.1676667 11.2370706,16.0856667 11.4257372,16.005 C11.6150706,15.925 11.7500706,15.8656667 11.8307372,15.827 C11.9114039,15.789 11.9207372,15.7793333 11.8587372,15.798 C11.7974039,15.8173333 11.8904039,15.774 12.1377372,15.668 C12.3857372,15.562 12.7674039,15.367 13.2827372,15.083 C13.7987372,14.799 14.1570706,14.5763333 14.3577372,14.415 C14.5584039,14.2536667 14.7274039,14.0826667 14.8647372,13.902 C15.0020706,13.7213333 15.1147372,13.5486667 15.2027372,13.384 C15.2900706,13.2193333 15.3690706,13.0036667 15.4397372,12.737 C15.5104039,12.471 15.5654039,12.2386667 15.6047372,12.04 C15.6440706,11.8406667 15.6677372,11.71 15.6757372,11.648 C15.6837372,11.586 15.6984039,11.429 15.7197372,11.177 C15.7410706,10.925 15.7630706,10.7163333 15.7857372,10.551 C15.8084039,10.3856667 15.8270706,10.2526667 15.8417372,10.152 C15.8564039,10.052 15.8634039,9.988 15.8627372,9.96 C15.8614039,9.93133333 15.8590706,9.92366667 15.8557372,9.937 C15.8524039,9.94966667 15.8707372,9.79333333 15.9107372,9.468 C15.9507372,9.142 15.9510706,8.78033333 15.9117372,8.383 C15.8730706,7.985 15.8104039,7.69233333 15.7237372,7.505 C15.6370706,7.31833333 15.5640706,7.15566667 15.5047372,7.017 C15.4454039,6.87833333 15.4324039,6.84666667 15.4657372,6.922 C15.4990706,6.99733333 15.4757372,6.943 15.3957372,6.759 C15.3164039,6.57566667 15.1877372,6.32466667 15.0097372,6.006 C14.8324039,5.68666667 14.6744039,5.436 14.5357372,5.254 C14.3970706,5.072 14.2864039,4.93433333 14.2037372,4.841 C14.1210706,4.747 14.0900706,4.71066667 14.1107372,4.732 C14.1307372,4.754 14.1407372,4.76466667 14.1407372,4.764 C14.1407372,4.76333333 14.0664039,4.69233333 13.9177372,4.551 C13.7690706,4.40966667 13.6920706,4.33666667 13.6867372,4.332 C13.6807372,4.328 13.6870706,4.33566667 13.7057372,4.355 C13.7244039,4.37433333 13.6677372,4.312 13.5357372,4.168 C13.4044039,4.024 13.3270706,3.934 13.3037372,3.898 C13.2797372,3.86266667 13.2760706,3.857 13.2927372,3.881 C13.3087372,3.905 13.3170706,3.90766667 13.3177372,3.889 C13.3190706,3.871 13.2440706,3.772 13.0927372,3.592 C12.9420706,3.412 12.7827372,3.255 12.6147372,3.121 C12.4474039,2.98766667 12.3610706,2.92 12.3557372,2.918 C12.3510706,2.91666667 12.3607372,2.92466667 12.3847372,2.942 C12.4094039,2.96 12.3880706,2.94333333 12.3207372,2.892 C12.2527372,2.84066667 12.1640706,2.76966667 12.0547372,2.679 C11.9447372,2.58766667 11.8927372,2.548 11.8987372,2.56 C11.6807372,2.40666667 11.5840706,2.33866667 11.6087372,2.356 C11.4807372,2.334 11.4030706,2.28266667 11.3757372,2.202 C11.3484039,2.12066667 11.1550706,2.014 10.7957372,1.882 C10.4364039,1.75 10.1664039,1.682 9.98573723,1.678 C9.80507056,1.674 9.64173723,1.67333333 9.49573723,1.676 C9.34907056,1.678 9.20740389,1.674 9.07073723,1.664 C8.93473723,1.654 8.78440389,1.665 8.61973723,1.697 C8.45507056,1.729 8.32373723,1.769 8.22573723,1.817" id="STROKE_5a138094-dfaf-471a-a190-320ed8a5a383" stroke="#000000" stroke-width="1.7"></path>
    </g>
</svg>