<svg width="134" height="105" xmlns="http://www.w3.org/2000/svg"><g fill="none" fill-rule="evenodd" stroke-linecap="round" stroke-linejoin="round"><path d="M59.725 58.2c-.007-.181-.011-.253-.012-.217.006-.022-.03-.075-.106-.161-.076-.086-.12-.09-.128-.013-.008.076-.006.1.006.074.012-.028-.107.345-.359 1.118-.252.772-.464 1.43-.636 1.978-.172.546-.28.972-.327 1.278-.045.305-.066.52-.063.644.004.123.005.265.004.425-.001.159 0 .259.005.3.005.04.007.1.005.182-.001.08.001.472.007 1.174.006.7.031 1.285.075 1.75.044.467.154 1.02.328 1.664l.451 1.64c.126.453.231.777.317.975a6.54 6.54 0 0 1 .315.87c.025.09.07.215.137.374.066.158.13.297.193.415.064.118.127.225.19.32.064.095.127.186.19.274a2.73 2.73 0 0 1 .147.225s0-.007-.004-.021c-.003-.015.03.049.097.19.068.143.243.448.524.916.28.467.445.792.493.976.048.183.198.378.451.585.254.206.444.357.57.453.128.095.217.157.268.185a.31.31 0 0 0 .148.042 2.73 2.73 0 0 0 .194-.003c-.018 0-.026.002-.023.006a.626.626 0 0 0 .104-.098.901.901 0 0 1 .082-.08l.1-.07c.06-.04.114-.076.161-.11s.071-.049.073-.045c.002.003.016-.01.044-.036l.248-.248a1.75 1.75 0 0 1 .486-.343 6.054 6.054 0 0 1 .644-.274c.076-.03.136-.047.18-.055a2.174 2.174 0 0 0 .132-.028c.007 0 .003 0-.01.004a3.664 3.664 0 0 1 .263-.04 3.468 3.468 0 0 1 .385-.08.631.631 0 0 0 .083-.015 10.154 10.154 0 0 0 .465-.032c.008-.001.009 0 .002.003.186-.018.259-.024.217-.017h.254c.166-.028.229-.04.19-.035.145-.038.316-.097.513-.18.198-.08.407-.204.627-.37.22-.164.404-.313.553-.447l.264-.236c.027-.024.095-.08.205-.168.11-.09.188-.152.234-.187a5.948 5.948 0 0 1 .403-.278 91.464 91.464 0 0 0 .932-.571c.044-.025.115-.062.215-.111.1-.05.191-.099.271-.147.08-.048.196-.114.348-.197.152-.084.293-.154.425-.212a8.63 8.63 0 0 0 .342-.16l.248-.121a2.862 2.862 0 0 0 .364-.211 17.657 17.657 0 0 1 .277-.194 38.933 38.933 0 0 0 .542-.383c.182-.132.316-.226.4-.282.085-.058.168-.102.248-.132a1.094 1.094 0 0 1 .12-.046c.017-.007.01-.004-.02.01-.032.014-.001.003.091-.032l.13-.05.14-.068c.097-.048.186-.09.264-.126a1.34 1.34 0 0 1 .121-.053c.004 0 0-.002-.009-.008-.008-.006.073-.063.245-.17.173-.108.353-.195.54-.262l.417-.152c.093-.034.171-.059.235-.073a.854.854 0 0 0 .11-.03c-.013.005.015-.001.083-.02.069-.017.25-.104.541-.26.088.066.103.087.043.065-.058-.023-.014.013.132.108a.676.676 0 0 0 .411.127c.128-.01.255-.013.38-.01.124.002.257.005.398.01.142.004.308-.014.5-.055.19-.042.356-.076.495-.102.139-.027.217-.04.233-.036.016.002.104-.015.262-.051.159-.036.635-.157 1.427-.362.792-.206 1.393-.338 1.802-.396.41-.06.889-.133 1.438-.223.55-.091 1.094-.185 1.632-.282a8.134 8.134 0 0 0 1.463-.395c.437-.167 1.014-.32 1.732-.46.719-.14 1.272-.266 1.66-.38.388-.113.8-.255 1.24-.425.44-.171.785-.29 1.036-.356a5.41 5.41 0 0 0 .704-.24c.218-.091.356-.147.412-.167l.37-.138c.19-.072.34-.13.45-.177.11-.048.17-.072.177-.072.007-.001.06-.03.16-.084.099-.056.32-.146.662-.27.343-.122.612-.214.807-.275a2.22 2.22 0 0 1 .32-.09 3.87 3.87 0 0 0 .421-.113 41.539 41.539 0 0 0 1.041-.323l.161-.046c.135-.04.316-.086.543-.14l.66-.153c.213-.05.362-.08.448-.09a10.455 10.455 0 0 1 .33-.031 17.09 17.09 0 0 1 .859-.104c.224-.022.394-.04.508-.057.116-.017.23-.024.342-.022.114.002.528-.06 1.242-.184a18.251 18.251 0 0 0 2.08-.488c.673-.201 1.159-.354 1.458-.46.3-.105.545-.177.733-.217.19-.04.31-.067.361-.08.05-.013.419-.08 1.104-.2.686-.121 1.272-.218 1.758-.29.487-.073.858-.138 1.114-.194.256-.058.413-.102.47-.133.058-.032.412-.111 1.06-.237a37.215 37.215 0 0 1 1.586-.278c.41-.06.796-.112 1.158-.156.363-.044.64-.09.83-.137.19-.048.352-.084.482-.107.13-.024.18-.034.148-.03l.885-.066a22.207 22.207 0 0 0 1.812-.207 50.549 50.549 0 0 1 1.36-.198 10.8 10.8 0 0 0 .68-.101c.131-.028.232-.045.302-.052.07-.008.122-.01.152-.008.032.002.037 0 .015-.007-.022-.006.018-.006.12 0 .1.008.336.013.706.017.37.002.614-.01.728-.038.114-.028.32-.073.62-.137l.74-.16c.194-.044.33-.07.408-.08a.955.955 0 0 1 .11-.012 1.81 1.81 0 0 0 .142-.018.872.872 0 0 1 .148-.015c-.002.003-.01.003-.023 0a11.943 11.943 0 0 1 .859-.013 6.229 6.229 0 0 0 .07 0h.447c-.01 0-.014-.002-.012-.004a.327.327 0 0 1 .097.023c.06.018.264-.026.61-.132a2.238 2.238 0 0 1 .051-.241c.026-.176.033-.235.023-.178l.02-.248c0-.008 0-.011-.004-.008.016-.188.022-.259.02-.211.032-.23.042-.31.031-.24.036-.156.05-.224.045-.203.037-.23.053-.33.05-.303-.005.027-.002-.006.01-.1.01-.094.018-.1.021-.018.004.082.01-.184.022-.798.012-.614.017-1.17.013-1.664a129.864 129.864 0 0 1-.003-1.664c0-.116.002-.23.006-.342.005-.113.008-.262.01-.447l.006-.415c.001-.091-.007-.18-.026-.267a12.477 12.477 0 0 0-.038-.174 14.332 14.332 0 0 1-.074-.434c.014.062.005-.042-.025-.312a9.156 9.156 0 0 0-.103-.715 8.237 8.237 0 0 1-.072-.426 3.361 3.361 0 0 1-.02-.228 6.77 6.77 0 0 0-.009-.134c0-.014.001-.016.005-.005a6.457 6.457 0 0 1-.055-.439 5.133 5.133 0 0 1-.03-.616 14.02 14.02 0 0 0-.006-.842 1.86 1.86 0 0 1-.004-.207c.003-.06.004-.12.004-.176 0-.058-.004-.122-.014-.194a5.752 5.752 0 0 0-.038-.268v.037c.002.03-.03-.182-.096-.64l-.147-1.008a8.178 8.178 0 0 0-.102-.56 49.02 49.02 0 0 1-.087-.386c-.022-.1-.04-.19-.053-.27a.513.513 0 0 0-.037-.146c-.01-.017-.012-.025-.005-.023.008 0-.013-.078-.064-.237a2.353 2.353 0 0 0-.143-.365 1.957 1.957 0 0 1-.09-.18 1.767 1.767 0 0 0-.076-.13 3.086 3.086 0 0 0-.264-.38l-.124-.172a1.143 1.143 0 0 0-.108-.146c-.07-.085-.1-.125-.09-.12-.05-.064-.106-.133-.166-.205a.828.828 0 0 1-.08-.102c.006.004.011.013.015.027.005.014-.07-.067-.226-.243a6.212 6.212 0 0 1-.53-.68 105.739 105.739 0 0 0-.126-.168 9.203 9.203 0 0 1-.126-.15 1.849 1.849 0 0 0-.113-.128 20.567 20.567 0 0 1-.25-.214.026.026 0 0 1 .005.01 4.24 4.24 0 0 1-.135-.153c-.09-.106-.12-.137-.087-.092.032.044.031.026-.003-.056a.584.584 0 0 0-.134-.201 3.168 3.168 0 0 0-.196-.17 4.819 4.819 0 0 0-.21-.16 7.48 7.48 0 0 1-.135-.097l-.005-.005a4.192 4.192 0 0 0-.535-.373 15.903 15.903 0 0 0-.742-.412 9.49 9.49 0 0 0-.503-.244l-.48-.214a8.097 8.097 0 0 1-.258-.12c-.024-.012-.143-.079-.359-.2a3.456 3.456 0 0 0-.618-.275c-.195-.064-.43-.135-.706-.214a2.768 2.768 0 0 1-.649-.262c-.157-.095-.31-.184-.46-.267-.15-.084-.206-.12-.17-.106.037.012-.017-.002-.163-.044a1.715 1.715 0 0 0-.297-.068 7.924 7.924 0 0 0-.356-.006 25.533 25.533 0 0 1-.578-.011 17.53 17.53 0 0 0-.523-.008 4.01 4.01 0 0 0-.712.105c-.326.068-.823.096-1.49.084a22.824 22.824 0 0 1-1.445-.058 8.128 8.128 0 0 0-.855-.041c-.014 0-.17 0-.47.003-.3.002-.548-.001-.746-.008a8.639 8.639 0 0 0-.836.025c-.36.024-.654.047-.883.069a18.933 18.933 0 0 1-.637.05l-.628.058c-.411.038-.951.059-1.62.063-.67.004-1.21.023-1.625.055-.414.032-.75.075-1.008.129a9.046 9.046 0 0 1-.662.119l-1.163.149a18.05 18.05 0 0 0-1.648.28 46.09 46.09 0 0 1-1.75.349c-.66.12-1.233.232-1.722.338-.488.104-.809.19-.96.258-.152.067-.772.209-1.862.426-1.09.216-1.925.373-2.505.47a9.843 9.843 0 0 0-1.45.336 1207.083 1207.083 0 0 0-1.349.444l-.58.188c-.161.052-.33.115-.505.189s-.519.184-1.03.329c-.512.145-1.192.35-2.04.616a41.908 41.908 0 0 0-3.208 1.127 6.136 6.136 0 0 0-.712.327l-.266.14a4.599 4.599 0 0 1-.262.136 5.269 5.269 0 0 0-.297.133l-.186.088a.592.592 0 0 0-.12.062c-.006.008-.364.147-1.074.415l-1.619.612c-.37.138-.743.299-1.119.48-.376.183-.65.309-.823.378-.172.069-.342.142-.51.218a56.945 56.945 0 0 1-.732.327 2.849 2.849 0 0 0-.239.106c-.111.053-.277.128-.499.224-.22.096-.574.243-1.06.443-.486.199-.896.398-1.23.598-.335.199-.69.418-1.063.656-.373.238-.62.39-.739.457l-.652.357a12.65 12.65 0 0 0-1.094.692 33.29 33.29 0 0 0-1.149.833c-.351.267-.74.626-1.169 1.076-.428.45-.862.853-1.303 1.21-.44.358-.801.656-1.082.895s-.519.435-.713.589c-.193.153-.39.32-.593.5a5.036 5.036 0 0 0-.632.654c-.001 0-.002 0-.004.004a.123.123 0 0 1-.006.008l.013-.015c.01-.014.01-.014-.002 0a1.553 1.553 0 0 0-.058.072 11.033 11.033 0 0 1-.178.222c.004-.004.003-.001-.004.009l.032-.04c.028-.037-.015.012-.129.147-.113.134-.183.207-.209.217M10.396 87.018l.03-.134a4.926 4.926 0 0 1-.03-.268c0-.013-.01-.006-.03.02-.154-.092-.214-.127-.18-.103-.068-.08-.3-.137-.696-.173a3.182 3.182 0 0 0-1.036.052c-.294.07-.528.132-.702.183-.173.05-.497.176-.973.376-.475.2-.878.394-1.209.58a7.139 7.139 0 0 0-.763.479 7.173 7.173 0 0 0-.889.777l-.164.158a5.443 5.443 0 0 0-.222.226l.005-.005a7.74 7.74 0 0 0-.246.259c-.11.119-.196.211-.262.277a233.739 233.739 0 0 1-.373.38l-.132.143c-.051.056-.074.087-.07.095.005.006.01.001.014-.015.005-.016-.092.093-.29.329-.2.235-.389.558-.569.969-.18.41-.311.841-.394 1.29-.082.45-.126.835-.132 1.157-.005.32.031.598.11.833.077.234.15.408.216.52a4.327 4.327 0 0 1 .277.529 2.694 2.694 0 0 1 .097.22 1.676 1.676 0 0 0 .092.155l.073.116c.003.004 0 .004-.006 0-.006-.002.006.01.036.036.03.026.12.146.27.36.15.215.265.394.341.538.078.143.123.237.137.282.015.045.032.09.052.134.02.044.036.076.044.096a4.179 4.179 0 0 0 .052.104c-.007-.016.02.028.081.13.06.102.126.193.196.27.07.08.113.123.126.13.014.008.065.073.155.196.09.122.204.241.34.357.136.116.245.204.326.266a.911.911 0 0 0 .135.093c.008 0 .047.02.117.06l.124.069c.013.005.03.015.05.03.022.014.027.013.015-.005-.011-.018.074.008.255.08.182.07.343.16.484.269.142.109.264.207.367.295.104.087.202.157.296.21.094.054.141.08.143.08l.05.023a2.33 2.33 0 0 0 .132.058c-.004-.004-.004-.002.002.004.007.006.004.002-.01-.011-.013-.014.025.01.113.072.088.06.17.12.248.175.077.055.129.09.155.104a3.248 3.248 0 0 0 .312.136c.083.032.137.056.162.072.025.016.025.015 0-.003-.024-.02-.01 0 .043.056.054.056.12.108.198.157l.115.069a37.919 37.919 0 0 0 .393.158 1.335 1.335 0 0 0 .164.059c.004.003.006.002.008-.004s.022.004.062.03.136.066.288.122c.152.054.367.092.645.112.279.02.495.033.647.039.153.006.29.01.41.009a53.836 53.836 0 0 1 .39-.001h-.01.43a.273.273 0 0 0 .085-.008c.012-.006.008-.006-.012 0-.018.007.037 0 .166-.018.13-.02.241-.038.333-.056a14.345 14.345 0 0 1 .374-.07 30.57 30.57 0 0 0 .224-.042 100.504 100.504 0 0 0 .425-.1.489.489 0 0 0 .056-.015.894.894 0 0 1 .08-.027c.042-.014.043-.013.003.004-.04.016.1-.036.424-.156a27.423 27.423 0 0 1 1.19-.413c.09-.028.168-.051.235-.068a.892.892 0 0 1 .077-.02 3.486 3.486 0 0 0 .238-.012.335.335 0 0 0 .041-.006.107.107 0 0 0 .022-.008.143.143 0 0 1 .043-.007c.022-.001.182-.041.48-.12.299-.08.54-.15.724-.214.184-.064.312-.115.385-.153a5.482 5.482 0 0 1 .176-.092 9.721 9.721 0 0 0 .315-.183 4.12 4.12 0 0 0 .074-.046 7.576 7.576 0 0 0 .313-.182c.097-.06.156-.094.176-.106.02-.012.06-.038.117-.08.057-.04.126-.092.207-.153a50.027 50.027 0 0 0 .45-.338 21.563 21.563 0 0 0 .151-.111c-.004.002.04-.04.134-.125.094-.086.132-.123.114-.112-.018.01-.016.005.004-.015.02-.021.049-.053.083-.097a5.374 5.374 0 0 0 .312-.444.567.567 0 0 0 .057-.105c.002-.01.002-.008 0 .008s.009-.005.031-.061a1.15 1.15 0 0 0 .083-.313l.021-.137c.005-.022.01-.029.014-.02.005.01.025-.069.06-.237.034-.168.05-.35.05-.544a46.752 46.752 0 0 1-.003-.651v-.575c0 .02 0 .02 0 0v-.176.016-.041c0-.03-.002-.044-.008-.042-.005 0-.006.01-.003.026s.013-.1.031-.35a2.16 2.16 0 0 0-.044-.67 1.947 1.947 0 0 0-.148-.436 5.072 5.072 0 0 1-.163-.318 10.915 10.915 0 0 0-.275-.434l-.25-.387a3.433 3.433 0 0 1-.177-.301 10.51 10.51 0 0 1-.075-.12 3.038 3.038 0 0 0-.105-.164 11.68 11.68 0 0 1-.193-.29c.012.021-.024-.03-.11-.151-.086-.123-.24-.41-.46-.858-.221-.45-.382-.793-.482-1.031a21.395 21.395 0 0 0-.276-.628.61.61 0 0 1-.058-.113 1.818 1.818 0 0 1-.046-.102 11.891 11.891 0 0 1-.222-.423l.007.017a.03.03 0 0 0 .003.004l-.007-.014.001.002a9.224 9.224 0 0 0-.169-.312l.013.03-.022-.043a5.957 5.957 0 0 0-.19-.36.562.562 0 0 0-.02-.041 2.24 2.24 0 0 0-.18-.194c-.065-.062-.096-.088-.092-.076.004.01.007.015.007.013a.29.29 0 0 0-.064-.042 1.575 1.575 0 0 0-.202-.098c-.006-.003-.008-.003-.006 0 .003.002-.008-.002-.033-.013a36.302 36.302 0 0 1-.302-.15 14.597 14.597 0 0 0-.433-.206 2.312 2.312 0 0 1-.303-.157l-.116-.084a1.943 1.943 0 0 0-.246-.155 1.708 1.708 0 0 0-.405-.143c-.026-.003-.033-.007-.022-.013.012-.007-.057-.014-.209-.021a6.307 6.307 0 0 0-.377-.01 7.232 7.232 0 0 1-.217 0l-.204.009a.734.734 0 0 1-.106.144" stroke="#FFB352" stroke-width=".5" fill="#FFB352" fill-rule="nonzero"/><path d="m11.451 85.573.001.006c0 .004-.009.071-.029.203a2.866 2.866 0 0 1-.076.09c-.053-.047-.148-.758-.285-2.134a369.99 369.99 0 0 1-.317-3.293 89.283 89.283 0 0 0-.175-1.796 14.765 14.765 0 0 0-.066-.551c-.002.01-.028-.206-.078-.65-.05-.443-.102-.852-.156-1.226a87.136 87.136 0 0 1-.129-.911 7.11 7.11 0 0 1-.06-.66c-.001.005 0-.036.004-.122.005-.086-.055-.552-.18-1.396a30.439 30.439 0 0 1-.248-2.106 15.098 15.098 0 0 1-.057-1.168l.01-.481c0-.102 0-.107-.005-.017-.005.089-.005.012 0-.23l.012-.691c.004-.218.01-.392.02-.523a20.613 20.613 0 0 0 .038-.672 37.268 37.268 0 0 1 .033-1.342c.016-.358.032-.615.048-.771l.048-.423a2.72 2.72 0 0 1 .088-.422 3.87 3.87 0 0 0 .05-.174c-.012.039-.003.009.025-.091.029-.1.054-.198.075-.292a3.18 3.18 0 0 1 .16-.451c.086-.206.17-.381.252-.525.082-.144.12-.215.113-.214-.006 0-.01.005-.012.015-.001.008.004.002.016-.02.012-.02.006-.014-.017.022s.017-.036.121-.216a23.315 23.315 0 0 0 .468-.843 2.455 2.455 0 0 1 .051-.093 30.673 30.673 0 0 0 .292-.55 45.127 45.127 0 0 1 .404-.897c.14-.304.25-.546.327-.727a18.31 18.31 0 0 1 .285-.638 11.056 11.056 0 0 0 .12-.274 1.19 1.19 0 0 1-.008.026 16.38 16.38 0 0 1 .409-.897c.14-.291.245-.497.311-.62.067-.122.127-.237.18-.344.054-.107.096-.188.126-.243.03-.056.054-.1.07-.133a.432.432 0 0 1-.03.07c-.037.079.047-.07.253-.445.206-.377.364-.684.475-.922.112-.238.202-.426.27-.563a8.496 8.496 0 0 0 .244-.544c-.016.038.009-.011.074-.146a9.51 9.51 0 0 0 .303-.76c.136-.37.239-.662.31-.875.07-.214.112-.35.128-.404.016-.056.048-.158.095-.306s.068-.22.064-.216a.709.709 0 0 1 .037-.123l.097-.291c.036-.11.06-.185.076-.227a1.4 1.4 0 0 1 .045-.117c.015-.034.026-.045.033-.031.008.014.057-.133.148-.441.092-.308.232-.683.42-1.127a9.98 9.98 0 0 1 .558-1.132c.184-.311.33-.557.44-.74a5.74 5.74 0 0 1 .201-.32c.024-.03.05-.07.08-.121.03-.051.063-.111.1-.18a.924.924 0 0 1 .065-.111c.006-.006-.002.009-.023.044-.02.035.132-.189.456-.671a47.93 47.93 0 0 1 1.15-1.622c.44-.6.787-1.096 1.041-1.488.254-.394.435-.684.541-.87l.24-.424c.053-.095.1-.172.141-.232a6.16 6.16 0 0 0 .183-.287c-.01.014-.01.01 0-.012a4.53 4.53 0 0 1 .145-.247c.086-.142.14-.228.164-.257.024-.03.031-.04.023-.028-.008.01.02-.031.084-.126l.142-.208c.03-.044.096-.124.196-.24l.182-.215a3.438 3.438 0 0 1 .453-.563c.042-.042.278-.305.707-.788.43-.484.779-.894 1.048-1.23.269-.334.49-.6.662-.795.172-.196.252-.28.24-.251-.013.028.306-.406.956-1.302.65-.897 1.186-1.638 1.606-2.222a35.98 35.98 0 0 1 1.15-1.521c.345-.43.665-.812.961-1.15.296-.337.56-.653.794-.95l.516-.652c.11-.14.204-.256.28-.35a9.863 9.863 0 0 0 .275-.34.12.12 0 0 1-.023.023c-.012.009.033-.047.134-.168l.207-.248c.037-.044.048-.054.033-.032a.35.35 0 0 0-.03.049c-.007.01.154-.19.481-.603.328-.413.737-.874 1.23-1.383.491-.51.855-.884 1.091-1.125a18.919 18.919 0 0 1 .785-.761c.01-.01.08-.063.208-.161l.225-.178c.023-.02.052-.042.086-.066l.088-.066a8.42 8.42 0 0 1 .25-.174c.144-.098.37-.256.68-.476a43.618 43.618 0 0 0 1.056-.774c-.04.027.107-.078.44-.314a52.6 52.6 0 0 0 .895-.653 22.138 22.138 0 0 0 .836-.647l.09-.07a32.643 32.643 0 0 0 1.954-1.694l.424-.387c.19-.174.352-.316.483-.428a3.957 3.957 0 0 1 .268-.218 44.553 44.553 0 0 0 .567-.456.434.434 0 0 1 .091-.07c-.003.007-.01.012-.02.015-.01.002.166-.145.527-.441.362-.297.88-.691 1.553-1.183.674-.493 1.16-.855 1.458-1.087.298-.233.64-.475 1.024-.727.385-.252.715-.463.99-.632.276-.17.493-.292.65-.367a17.055 17.055 0 0 0 .362-.175 5.67 5.67 0 0 0 .315-.134c.212-.093.65-.33 1.313-.713.664-.382 1.171-.67 1.521-.863.35-.194.603-.343.757-.447a5.42 5.42 0 0 1 .293-.191c.04-.023.08-.045.122-.065a53.44 53.44 0 0 0 .421-.207c-.02.008.104-.05.371-.175.268-.126.602-.293 1.002-.501.4-.21.971-.485 1.713-.827a89.168 89.168 0 0 1 1.58-.716c.31-.136.588-.255.833-.36.246-.103.445-.188.597-.254.152-.066.354-.161.606-.286.252-.125.438-.221.56-.29a3.11 3.11 0 0 1 .38-.18c.131-.054.199-.078.202-.073.004.004.017.002.041-.005l-.043.014c-.052.017.096-.014.445-.093l.797-.182a6.26 6.26 0 0 0 .46-.121 16.49 16.49 0 0 0 .49-.157c-.028.009-.013.006.047-.01.06-.017.085-.026.074-.028l.022.005c.026.004.168-.038.426-.126s.49-.171.693-.25a9.548 9.548 0 0 1 .626-.221l.033-.011c.036-.012.026-.01-.03.006-.057.016.034-.022.273-.114.24-.092.441-.164.603-.214a6.66 6.66 0 0 0 .35-.115.666.666 0 0 1 .07-.02c.014-.003.105-.033.272-.09.168-.057.25-.083.25-.078 0 .004.03-.002.091-.02a3.694 3.694 0 0 1 .288-.067c.039-.01.034-.01-.014 0l.122-.025a14.3 14.3 0 0 1 .395-.078c.136-.026.198-.04.188-.042-.01-.002.006-.008.046-.017.04-.01.098-.026.173-.05a32.496 32.496 0 0 1 .572-.165l.374-.062a2.923 2.923 0 0 0 .403-.148.849.849 0 0 1 .174-.046l.118-.022a21.311 21.311 0 0 1 .79-.19c.096-.015.267-.064.512-.147l.242-.082.416-.097c.02-.004.005-.006-.048-.004.077-.024.23-.06.461-.106.23-.048.325-.067.281-.057a130.26 130.26 0 0 0 .758-.13c.168-.031.24-.039.216-.023.023-.03.108.022.254.152.147.129.417.268.81.417.393.148.743.2 1.05.154a49.748 49.748 0 0 0 .933-.151 312.501 312.501 0 0 0 .988-.166c.242-.04.44-.079.593-.115.154-.037.309-.076.466-.116.158-.042.232-.06.22-.055-.011.005-.013.007-.007.005a13.2 13.2 0 0 1 .347-.064c.07-.02.226-.026.47-.02.242.005.358.01.348.014.309.06.408.078.297.052a6.14 6.14 0 0 0 .193.037c.156.03.258.05.306.062.049.01.063.01.043-.001.3-.003.405-.008.316-.016l.458-.093c.024-.005.008-.004-.049.004.234.038.335.058.304.06.04.01.128.03.265.057.138.026.194.035.17.027-.025-.01-.036-.01-.032-.003.004.007.102.004.292-.01.19-.015.29-.022.3-.021a.375.375 0 0 0-.073-.01c.418-.095.561-.137.43-.123.262-.046.403-.07.422-.072.02-.004.012-.006-.025-.008l.387.01c.01 0 .006-.001-.015-.004.246.012.366.023.362.033.117.043.176.06.176.05 0-.01.21.015.625.074.416.059.7.118.853.178.153.058.33.115.53.169.2.054.356.09.465.108.11.018.127.007.053-.031-.074-.038.015-.032.268.019.254.05.53.1.831.149.3.048.623.095.966.14.343.047 1.036.098 2.078.154 1.044.054 1.836.133 2.378.236.542.102.952.232 1.228.39.276.157.52.307.734.449.214.142.476.26.784.354a21.513 21.513 0 0 0 1.541.41c.139.028.242.048.31.06.068.01.152.018.252.022.1.003.137.002.11-.003-.028-.006-.011-.005.05.003a.45.45 0 0 0 .137 0c.03-.005.147-.01.347-.01a3.165 3.165 0 0 1 .704.066l-.014-.008c-.006-.005.023.003.086.024.064.02.154.066.272.138a3.593 3.593 0 0 0 .137.083l.05.05c.03.03.102.085.215.163.114.078.17.114.168.109a.02.02 0 0 0-.01-.013 121.219 121.219 0 0 0 .42.236c.067.038.092.05.074.038.454.213.646.292.575.238-.07-.054-.067-.066.011-.035a.41.41 0 0 1 .137.07c.013.016.125.056.337.12.212.063.379.11.501.142.122.03.179.044.17.039a39.851 39.851 0 0 1 1.018.261 6.667 6.667 0 0 1 .956.358c.196.09.377.173.543.247.167.074.337.146.51.218.171.072.275.118.31.14.034.02.124.06.27.117.145.057.295.134.447.23.152.098.275.182.37.252.093.07.128.1.102.092-.026-.008-.022-.011.01-.008.033.002.282.208.746.618.465.41.907.84 1.325 1.293.419.452.74.785.963 1 .223.216.411.429.565.64.154.21.227.312.22.306-.009-.007-.011-.005-.009.007.003.01-.008.007-.032-.011s.159.202.55.659c.39.457.703.849.936 1.176.233.326.376.54.428.64.054.101.12.22.197.355.079.134.127.214.145.238a.393.393 0 0 0 .023.03.664.664 0 0 0 .024.053c.018.039.164.237.437.594.274.356.526.687.757.993.232.304.378.508.438.612.062.102.127.209.197.32.07.11.11.174.118.192.009.018.009.02 0 .008l.221.326c.156.23.284.422.384.576.1.154.189.316.263.487.075.17.107.248.096.23-.01-.02-.009-.025.005-.017.015.006.107.342.275 1.007.17.665.32 1.327.452 1.985.133.658.212 1.145.238 1.46a61.03 61.03 0 0 1 .086 1.104c.007.104.008.235.002.393-.006.157 0 .344.02.56.018.216.035.45.05.706.015.255.025.449.031.582.007.133.007.236.007.31l-.006.256c-.002.097-.006.131-.013.103-.007-.028-.013-.019-.018.029-.004.047-.017.04-.038-.021-.02-.062-.027.295-.02 1.069.007.773.018 1.333.032 1.679.015.346.004.597-.034.753-.036.156-.07.308-.1.457-.031.148-.049.222-.053.222-.004-.001-.004-.011 0-.03a.65.65 0 0 0-.044.129c-.032.106-.067.215-.103.328-.036.112-.05.161-.044.147.007-.015-.001-.006-.024.027a1.292 1.292 0 0 0-.1.29 2.855 2.855 0 0 0-.09.519 7.56 7.56 0 0 0-.027.492l-.005.197a.289.289 0 0 0-.009-.06c-.006-.026-.007.01-.004.108a2.07 2.07 0 0 1-.06.453 2.272 2.272 0 0 1-.067.28c0-.018-.008-.002-.027.047l-.054.148a.623.623 0 0 0-.029.082c0-.007-.001-.008-.003-.003a.084.084 0 0 0-.002.02v-.02c-.002-.02-.011.004-.029.075a4.8 4.8 0 0 0-.07.409c-.062 0-.072.005-.032.013.04.007-.024.017-.195.029a2.34 2.34 0 0 1-.503-.02 9.96 9.96 0 0 0-.295-.043c-.032-.003-.026-.001.018.005l-.157-.02a150.019 150.019 0 0 1-1.478-.203 8.944 8.944 0 0 0-.39-.054c-.068-.007-.095-.003-.08.013.014.015.042.01.082-.017.04-.026-.16-.03-.605-.012-.444.018-.833.06-1.169.127-.336.067-.573.116-.712.147a9.004 9.004 0 0 1-.593.109l-.376.063a1759.944 1759.944 0 0 1-3.104.522c-.034.005-.026.001.023-.011.05-.014-.262.042-.936.168-.672.125-1.301.23-1.887.316-.584.085-1.32.175-2.208.269-.888.094-1.586.188-2.096.28-.51.092-1.383.234-2.619.424-1.236.189-2.236.361-3 .517-.764.155-1.312.317-1.643.485-.331.168-1.703.46-4.115.873s-4.235.729-5.47.948a88.608 88.608 0 0 0-2.699.508c-.563.12-.978.226-1.244.32a13.9 13.9 0 0 1-1.125.323 9.534 9.534 0 0 0-1.513.528c-.525.23-.947.435-1.267.616-.32.18-.674.381-1.064.603a272.197 272.197 0 0 1-1.36.769 11.42 11.42 0 0 0-.205.113c-.088.05-.175.105-.259.167-.084.06-.346.203-.788.426a9.792 9.792 0 0 0-1.09.626c-.285.194-.428.3-.428.319 0 .018-.217.213-.652.583-.434.37-.805.668-1.113.896a6.226 6.226 0 0 0-.903.826c-.294.323-.55.582-.769.778a3.32 3.32 0 0 1-.529.406l-.393.22c-.128.07-.252.143-.374.216-.12.073-.142.09-.066.05a12.665 12.665 0 0 1-.908.469c-.242.112-.429.2-.56.267l-.31.152c-.075.034-.107.052-.097.052.01 0 .02-.006.028-.02.008-.013-.072.037-.24.15a6.925 6.925 0 0 0-.354.25.465.465 0 0 1-.093.069c.006-.008 0-.006-.02.006s-.096.076-.229.192-.424.334-.873.655a8.61 8.61 0 0 1-1.136.71c-.308.153-.516.238-.622.254l-.363.048a1.071 1.071 0 0 0-.212.035c-.005.007.016-.004.063-.033.048-.03-.107.045-.465.225a1.09 1.09 0 0 1 .063-.261c.035-.097.074-.242.116-.435.042-.193.082-.365.12-.515a4.6 4.6 0 0 0 .072-.307c.018-.08.054-.196.108-.348.054-.153.07-.43.052-.832a11.7 11.7 0 0 0-.159-1.52 2.281 2.281 0 0 0-.076-.263 2.75 2.75 0 0 1-.08-.284 1.004 1.004 0 0 0-.066-.207c-.024-.053-.031-.08-.02-.083.012-.003-.03-.136-.125-.398a4.395 4.395 0 0 0-.417-.827c-.182-.29-.298-.456-.349-.498a1.536 1.536 0 0 1-.22-.26 26.125 26.125 0 0 1-.183-.254.374.374 0 0 0-.073-.082c-.021-.016-.028-.03-.02-.04.008-.009-.037-.083-.137-.221a2.474 2.474 0 0 0-.379-.407 1.805 1.805 0 0 0-.328-.246 9.13 9.13 0 0 1-.54-.286c-.16-.09-.23-.124-.207-.1.022.024.034.035.036.033-.228-.186-.312-.235-.25-.145-.065-.046-.085-.05-.06-.01.024.038.027.049.007.032a.957.957 0 0 1-.042-.04 7.89 7.89 0 0 0-.502-.428c-.147-.117-.205-.147-.173-.091.032.056.03.067-.006.035a10.326 10.326 0 0 1-.379-.366 9.342 9.342 0 0 0-.208-.205 6.924 6.924 0 0 0-.302-.255c-.158-.131-.244-.2-.257-.207a58.285 58.285 0 0 0-.26-.178c-.176-.124-.23-.14-.158-.05.072.09.064.1-.025.033a4.813 4.813 0 0 0-.382-.254 1.179 1.179 0 0 0-.408-.176 4.152 4.152 0 0 0-.689-.03l-.012.006c.01-.004-.344.06-1.06.196-.718.135-1.248.215-1.592.24-.343.024-.7.109-1.072.256-.372.147-.761.318-1.168.512-.406.194-2.13.664-5.17 1.408-.093.176-.13.23-.115.16a3.179 3.179 0 0 0-.769.47c-.187.165-.606.49-1.256.975-.65.484-1.14.843-1.47 1.076-.33.232-.519.345-.567.338-.048-.008-.385.295-1.01.909-.627.612-1.1 1.132-1.42 1.559-.322.426-.56.756-.714.988-.153.232-.432.649-.837 1.25-.404.6-.844 1.227-1.318 1.88a66.892 66.892 0 0 1-1.17 1.572 9.752 9.752 0 0 0-.759 1.116c-.2.348-.378.637-.538.867-.16.228-.289.425-.387.59a80.244 80.244 0 0 0-.494.832c-.126.216-.234.392-.324.53s-.17.265-.242.38c-.071.117-.1.167-.085.15.014-.015.006-.004-.024.033-.03.036-.133.213-.31.532a19.38 19.38 0 0 0-.426.803c-.106.217-.172.35-.198.4a1.038 1.038 0 0 0-.068.18c-.02.073-.116.252-.287.538-.171.285-.425.693-.763 1.225-.337.53-.596.963-.776 1.299-.18.334-.31.6-.39.797-.081.196-.161.398-.24.604l-.21.534c-.06.15-.22.416-.479.796-.258.38-.526.916-.804 1.606-.277.689-.468 1.235-.574 1.638a8.392 8.392 0 0 1-.299.96 8.41 8.41 0 0 1-.24.556 6.107 6.107 0 0 0-.15.325l-.128.305c-.05.12-.085.197-.103.23l-.057.108c-.02.038-.022.032-.005-.018.017-.05-.096.145-.339.584a27.948 27.948 0 0 1-1.779 2.83c-.082.107-.16.219-.233.335-.073.116-.11.173-.11.169 0-.004-.065.129-.194.4-.128.27-.227.48-.298.627a3.402 3.402 0 0 1-.285.505l-.01.008c-.01.008-.007-.007.007-.044.014-.038-.038.035-.158.218-.118.182-.216.333-.294.45a3.458 3.458 0 0 0-.142.23c-.018.036-.029.047-.03.034-.003-.013.005-.027.023-.042.02-.016-.134.214-.46.69a57.225 57.225 0 0 1-1.17 1.637 43.123 43.123 0 0 0-.944 1.31c-.174.26-.268.413-.28.459a.32.32 0 0 1-.03.087c-.009.012-.041.1-.099.263a10.14 10.14 0 0 1-.107.298l-.008.037a4.18 4.18 0 0 1-.042.132c-.021.064-.07.183-.146.357a6.87 6.87 0 0 0-.112.263c-.104.229-.152.334-.142.315l.018-.034-.16.3c-.11.203-.15.278-.123.225.028-.054.039-.074.033-.06a.938.938 0 0 1-.1.136c-.06.075-.116.143-.166.203-.05.059-.07.09-.06.094-.134.199-.219.329-.255.389-.036.06-.055.084-.058.072a.489.489 0 0 0-.085.038c.03.18.046.277.05.287.002.01 0 .023-.007.04a.53.53 0 0 0-.023.106l-5.143-2.445Z" stroke="#38AC54" stroke-width=".5" fill="#38AC54" fill-rule="nonzero"/><path d="M59.983 59.532c.075-.392.097-.544.067-.455v-.507c.025.057.043.042.053-.045.01-.088-.135-.067-.437.06-.302.13-.625.928-.969 2.397a20.499 20.499 0 0 0-.552 4.313 55.628 55.628 0 0 0 .045 3.734c.056 1.083.329 2.167.82 3.253.49 1.086 1.006 1.85 1.548 2.292.542.442 1.105.869 1.691 1.279.586.41.975.764 1.168 1.062.194.297.298.48.31.549M58.541 61.105c-.04.01-.052.016-.039.019a2.168 2.168 0 0 0-.23-.111l-.41-.188c-.107-.05-.14-.07-.1-.062.039.006.043.021.011.045-.031.023-.016-.113.045-.408.062-.296.07-.393.028-.292-.042.1-.023.1.058-.001.08-.102.15-.177.21-.224.058-.048.12-.112.183-.194.064-.082.088-.118.072-.107 0-.012.013-.053.038-.123.01 0 .02-.022.03-.066.012 0 .025-.012.037-.034.013 0 .036.014.07.044a.536.536 0 0 1 .102.129" stroke="#171612" stroke-width="1.7"/><path d="M58.264 60.196c-.242.002-.347-.004-.315-.017.088.02.062.012-.077-.024a21.46 21.46 0 0 0-.62-.152c.004-.407.009-.54.014-.401.283-.381.382-.51.296-.385.182-.18.265-.268.25-.262.107-.108.715-.708 1.821-1.801a102.178 102.178 0 0 1 2.74-2.625c.719-.656 1.309-1.204 1.77-1.643.462-.44.833-.781 1.112-1.026.28-.246.462-.393.544-.443.084-.05.2-.168.347-.353.148-.186 1.062-.836 2.741-1.95 1.68-1.115 3.124-1.994 4.33-2.638 1.208-.644 2.14-1.142 2.8-1.492.66-.35 1.17-.614 1.53-.79.36-.176 1.146-.515 2.357-1.015 1.212-.5 2.06-.852 2.546-1.055.486-.203 1.332-.515 2.538-.935 1.206-.421 2.352-.805 3.438-1.152 1.086-.348 1.936-.58 2.55-.694.615-.116 1.009-.213 1.182-.293.174-.08 1.058-.246 2.65-.496 1.593-.251 2.957-.478 4.092-.681 1.135-.204 2.274-.396 3.417-.576 1.144-.181 2.689-.388 4.636-.622 1.948-.234 3.52-.424 4.714-.571a32.077 32.077 0 0 1 3.952-.218c1.44.002 2.597-.006 3.47-.024.874-.02 1.498-.006 1.871.039.373.044.864.184 1.472.42a519.7 519.7 0 0 0 1.337.516 2.7 2.7 0 0 1 .634.32c.14.105.212.155.213.15a.908.908 0 0 1 .185.085c.122.06.261.12.417.176.156.056.3.113.433.169.133.056.2.08.204.07.004-.011.019 0 .046.032.028.03.204.11.53.237.326.126.664.223 1.012.292.349.068 1.04.237 2.073.505 0 .01-.017.06-.052.148a.717.717 0 0 1-.158.237M63.765 78.127c.435-.13-.055 0-1.47.385.215-.216.46-.404.736-.564.276-.161.573-.354.891-.58.318-.225 1.377-.837 3.175-1.835 1.799-1 3.835-1.98 6.107-2.942 2.273-.962 3.987-1.64 5.142-2.03 1.156-.391 2.16-.735 3.015-1.033.855-.298 2.405-.811 4.65-1.541a366.785 366.785 0 0 1 8.484-2.662c1.02-.311 3.089-.812 6.203-1.503 3.115-.692 5.585-1.19 7.411-1.494 1.826-.305 3.205-.555 4.136-.751.932-.196 1.894-.402 2.885-.617a67.402 67.402 0 0 1 2.434-.491 35.141 35.141 0 0 0 1.661-.331c.476-.11 1.1-.201 1.874-.276a23.25 23.25 0 0 1 1.845-.122c.456-.006.774-.014.954-.025.18-.012.377-.015.587-.01.21.004.256.01.136.018-.118.006.168-.022.858-.085a32.43 32.43 0 0 1 1.788-.123c.5-.018.85-.024 1.045-.02.196.004.363.005.5.003.138-.002.196-.005.173-.007-.023-.004-.031-.006-.025-.008l.17-.07c.108-.045.2-.08.275-.107.076-.027.109-.034.097-.02-.231.02.009-.045.72-.194.71-.15 1.07-.235 1.08-.257" stroke="#171612" stroke-width="1.7"/><path d="M128.19 40.446c-.07.074-.257-.012-.562-.26-.304-.247-.56-.616-.767-1.107.089-.18.479.317 1.17 1.49.69 1.175 1.208 2.122 1.552 2.843.346.72.553 1.246.621 1.577.069.33.138.584.207.76.07.177.114 1.253.132 3.229.018 1.974.016 3.449-.007 4.424-.023.975-.062 1.694-.116 2.157a12.548 12.548 0 0 0-.066 1.653c.01.639.014 1.088.01 1.347a4.058 4.058 0 0 1-.085.763c-.052.25-.18.63-.385 1.14-.204.51-.33.782-.378.815M63.058 54.289c.009.014.013.021.011.023l.067-.084c.048-.058.098-.124.152-.2.054-.077.077-.12.071-.126.083-.196.112-.272.086-.228a6.54 6.54 0 0 1 .041-.263c.003-.174-.01-.244-.038-.21-.05-.087-.151-.334-.304-.74a5.925 5.925 0 0 0-.462-.99 10.143 10.143 0 0 0-.336-.524c-.07-.097-.098-.12-.087-.071.01.05-.058-.08-.207-.39a4.284 4.284 0 0 1-.332-.988 3.834 3.834 0 0 0-.353-.99 4.501 4.501 0 0 0-.423-.693 2.434 2.434 0 0 1-.273-.411 1.072 1.072 0 0 1-.114-.344 3.746 3.746 0 0 0-.106-.464 7.758 7.758 0 0 0-.164-.527 2.027 2.027 0 0 0-.188-.395c-.072-.116-.1-.157-.083-.125.018.032-.056-.068-.22-.3a5.193 5.193 0 0 1-.367-.578 5.235 5.235 0 0 0-.199-.354 1.368 1.368 0 0 0-.079-.118c.013.014-.042-.03-.164-.131a1.003 1.003 0 0 0-.426-.207 1.861 1.861 0 0 1-.513-.208 2.505 2.505 0 0 1-.51-.39 1.697 1.697 0 0 0-.428-.325 2.456 2.456 0 0 0-.31-.127c-.084-.027-.091-.037-.023-.031a97.856 97.856 0 0 0-1.675-.204 5.565 5.565 0 0 1-.91-.163 2.772 2.772 0 0 0-.479-.112 3.429 3.429 0 0 1-.26-.035 1.318 1.318 0 0 0-.185-.021c.037.002-.18-.017-.653-.058-.471-.042-.9 0-1.285.124a5.75 5.75 0 0 0-1.045.446c-.311.173-.584.316-.818.43a9.081 9.081 0 0 0-.63.335c-.187.109-.366.216-.538.32-.171.104-.405.242-.702.415-.296.172-.594.336-.895.493-.3.157-.581.316-.842.478-.26.162-.481.313-.662.454-.18.14-.286.234-.316.282-.03.047-.233.197-.61.45-.376.252-.789.522-1.237.81a8.834 8.834 0 0 0-1.299 1.029c-.418.398-.855.834-1.313 1.308-.457.474-.85.888-1.179 1.24-.328.352-.69.766-1.086 1.24-.396.474-.91 1.048-1.544 1.722-.633.674-1.117 1.192-1.452 1.554-.334.362-.562.625-.682.789l-.965 1.317a826.07 826.07 0 0 1-1.299 1.766c-.341.462-.931 1.416-1.77 2.862a226.337 226.337 0 0 0-1.869 3.262c-.406.728-.742 1.28-1.008 1.658-.266.376-.625 1.046-1.078 2.01a48.423 48.423 0 0 0-.999 2.235 12.93 12.93 0 0 1-.71 1.479c-.26.46-.5.896-.722 1.309-.221.413-.417.77-.587 1.07a34.412 34.412 0 0 0-1.015 1.963c-.06.138-.233.555-.523 1.25-.288.697-.683 1.531-1.184 2.505-.5.974-.875 1.735-1.124 2.285A36.993 36.993 0 0 0 19 84.519a10.262 10.262 0 0 0-.217.539 1.068 1.068 0 0 1-.155.253c-.081.106-.21.32-.385.643-.175.323-.347.648-.517.976-.17.328-.43 1.089-.782 2.284a.11.11 0 0 0-.039.013.244.244 0 0 1 .028-.048l.076-.108" stroke="#171612" stroke-width="1.7"/><path d="M12.764 86.185c.039.024.023-.042-.049-.198-.07-.156-.158-.255-.263-.297-.105-.043-.167-.249-.185-.617a65.909 65.909 0 0 1-.044-1.074c-.011-.348-.094-.911-.248-1.69a90.551 90.551 0 0 0-.348-1.697 9.418 9.418 0 0 0-.237-.901c-.08-.248-.241-.857-.484-1.828-.242-.972-.397-1.697-.466-2.176a13.64 13.64 0 0 1-.125-1.127 40.893 40.893 0 0 0-.144-1.57 31.866 31.866 0 0 1-.149-1.774 5.19 5.19 0 0 1 .03-.977 5.42 5.42 0 0 1 .108-.558c.035-.13.076-.477.123-1.044.048-.568.06-1.047.036-1.44-.023-.392-.015-.673.025-.843.04-.17.122-.67.244-1.5s.232-1.51.33-2.042a5.258 5.258 0 0 1 .515-1.508c.247-.473.466-.915.658-1.327.192-.412.363-.851.511-1.317.15-.466.423-1.289.82-2.47.396-1.18.738-2.094 1.025-2.74.288-.644.537-1.15.748-1.515.212-.366.514-.84.907-1.425.394-.585.792-1.373 1.192-2.364.402-.991 1.117-2.298 2.145-3.92a251.99 251.99 0 0 1 2.373-3.688c.553-.836.978-1.43 1.276-1.781.298-.352.695-.96 1.191-1.822a25.55 25.55 0 0 1 1.562-2.407c.547-.743.984-1.29 1.31-1.642.328-.352.776-.897 1.344-1.635a68.823 68.823 0 0 1 2.054-2.52 42.877 42.877 0 0 1 2.24-2.453 46.292 46.292 0 0 1 1.61-1.56c.38-.344.777-.78 1.19-1.306.41-.528.967-1.138 1.668-1.832a49.573 49.573 0 0 1 1.881-1.777c.552-.492 1.07-.945 1.553-1.36a25.1 25.1 0 0 1 1.272-1.033l2.826-2.123a550.433 550.433 0 0 0 3.466-2.62c.79-.606 1.64-1.193 2.548-1.763.908-.57 1.581-.987 2.021-1.252l1.517-.92c.573-.348 1.482-.821 2.727-1.42 1.246-.6 2.286-1.088 3.12-1.464a32.458 32.458 0 0 1 1.92-.81c.445-.164.948-.338 1.508-.522.56-.185 1.808-.515 3.742-.99s3.45-.864 4.546-1.166a16.423 16.423 0 0 1 3.178-.565 35.985 35.985 0 0 1 2.502-.111c.648-.001 1.596-.043 2.846-.126a35.957 35.957 0 0 1 3.17-.094c.863.02 1.628.088 2.294.205.666.116 1.222.19 1.668.224.447.032 1.33.086 2.65.164 1.319.077 2.322.146 3.01.208.689.06 1.196.122 1.52.183.325.06.652.17.98.329.33.158.97.35 1.922.574.952.224 1.773.446 2.464.666.69.22 1.2.427 1.525.619.326.19.836.371 1.53.54.694.17 1.301.366 1.821.59.52.223 1.108.493 1.764.809.656.316 1.164.537 1.523.664.36.126.65.22.871.279.22.059.705.288 1.453.687a24.153 24.153 0 0 1 3.132 1.964c.262.2.643.593 1.145 1.179.502.585.858 1.037 1.066 1.357.209.319.409.646.6.98.192.335.344.58.457.733a61.327 61.327 0 0 1 .567.777c.024.034.083.136.177.306.095.17.278.55.548 1.144.27.592.486 1.03.644 1.315.159.284.357.78.594 1.49.237.711.403 1.33.497 1.86.094.528.158.904.191 1.128.033.223.05.452.054.688.004.235-.001.476-.014.724-.012.247-.023.483-.032.707-.008.224-.012.555-.012.995 0 .439.013.965.037 1.577.025.61.039 1.075.041 1.39.003.317.012.566.028.749.017.183.026.618.028 1.306 0 .687 0 1.169-.006 1.446-.005.276-.036.678-.094 1.206-.056.528-.095.91-.116 1.147a6.965 6.965 0 0 1-.062.525 9.687 9.687 0 0 0-.067.419v-.002a.447.447 0 0 0-.004.024l-.116.738c.007-.015-.082-.001-.266.042-.183.043-.31.078-.379.106M14.02 87.29c-.088-.016-.097-.016-.029 0l-.505-.115c-.008-.036-.004-.043.011-.021.015.02.018.023.01.005a1.406 1.406 0 0 0-.086-.131 12.147 12.147 0 0 0-.144-.2c-.046-.063-.08-.097-.098-.1-.018-.002-.012.002.02.014.03.01-.031-.033-.187-.131a9.193 9.193 0 0 1-.455-.307c-.148-.107-.504-.23-1.069-.37a15.33 15.33 0 0 0-1.606-.312c-.505-.07-1.044-.003-1.616.2-.572.204-1.05.39-1.433.56-.383.17-.911.497-1.584.98a21.97 21.97 0 0 0-1.515 1.164c-.338.293-.677.626-1.017.998-.34.37-.628.89-.862 1.559-.234.668-.41 1.245-.529 1.733a5.039 5.039 0 0 0-.1 1.627c.05.598.163 1.124.336 1.578.173.454.406 1.017.7 1.69A7.12 7.12 0 0 0 3.3 99.434c.398.475.775.833 1.131 1.074.357.24.66.453.91.637.249.183.548.394.896.633.35.238.761.457 1.235.657.474.2 1.144.305 2.01.317.866.01 1.923-.155 3.17-.497 1.247-.343 2.205-.642 2.873-.897.67-.256 1.19-.483 1.562-.681a8.882 8.882 0 0 0 1.268-.855c.474-.371.828-.711 1.064-1.021.236-.31.428-.722.575-1.236.148-.514.23-.986.248-1.418.018-.432-.203-1.05-.665-1.85a36.43 36.43 0 0 1-1.168-2.18 49.621 49.621 0 0 1-.71-1.51 9.2 9.2 0 0 1-.272-.65c-.024-.077-.153-.36-.387-.844a8.545 8.545 0 0 0-.802-1.345c-.3-.41-.893-.763-1.78-1.057-.886-.294-2.546-.296-4.982-.006-2.435.29-3.782.46-4.042.508" stroke="#171612" stroke-width="1.7"/></g></svg>