<svg width="52" height="62" xmlns="http://www.w3.org/2000/svg"><g fill="none" fill-rule="evenodd" stroke-linecap="round" stroke-linejoin="round"><path d="M5.468 41.694c.014.017.022.025.026.023.005-.003 0-.004-.014-.002-.013 0-.007-.001.017-.005s.029-.006.013-.005c-.015 0-.023.003-.024.005 0 .002.009.001.027-.001a1.163 1.163 0 0 1-.176.022c-.004-.002-.004-.003 0-.002h.006a7.28 7.28 0 0 1-.164.029 1.817 1.817 0 0 0-.069.025c.035-.161.057-.221.066-.18.066-.103.22-.307.462-.612.242-.306.423-.543.542-.713.12-.17.184-.258.192-.265.009-.007.046-.088.11-.242s.124-.285.178-.391c.054-.106.11-.194.17-.264A26.05 26.05 0 0 0 6.926 39a.719.719 0 0 1 .059-.067c.064-.074.125-.135.182-.185.058-.05.11-.094.157-.131a2.751 2.751 0 0 0 .131-.107 7.262 7.262 0 0 1 .191-.152 21.724 21.724 0 0 1 .174-.143c-.03.023.01-.002.117-.076a35.468 35.468 0 0 1 .614-.414 2.46 2.46 0 0 1 .235-.138c.01-.005.013-.005.006 0l.02-.011c.019-.012.108-.048.267-.108.16-.061.316-.107.468-.14l.322-.067c.063-.014.107-.025.132-.034a.142.142 0 0 1 .05-.014l.023-.002.074-.015a8.05 8.05 0 0 0 .311-.08c.166-.043.325-.075.48-.095a2.31 2.31 0 0 1 .363-.025 8.31 8.31 0 0 0 .338.005h-.008.092c.056.001.08 0 .073-.002l.027.01c.026.01.075-.003.148-.036.074-.034.166-.062.276-.082.11-.021.21-.035.298-.041l.191-.016c.04-.004.054-.006.044-.004l.024-.002a3.11 3.11 0 0 0 .164-.015c.11-.012.215-.018.316-.016h.227a.614.614 0 0 1 .128.009.588.588 0 0 1 .112.034c.04.015.042.013.006-.006-.035-.02-.016.023.056.13.073.106.14.192.202.257.062.064.116.11.163.138.047.026.076.043.086.05a.107.107 0 0 0 .031.014c.009 0 .01 0 .003-.001a1.1 1.1 0 0 0 .174.071 5.093 5.093 0 0 1 .288.106l.01.004a9.694 9.694 0 0 1 .328.118 4.57 4.57 0 0 0 .267.094c.022.01.099.04.231.09.019-.046.013-.136-.017-.272a2.317 2.317 0 0 0-.084-.306.542.542 0 0 1-.039-.127.667.667 0 0 0-.012-.095 1.123 1.123 0 0 1-.015-.13c.004.043.006-.085.006-.381 0-.298.017-.635.05-1.012s.053-.656.06-.837a5.08 5.08 0 0 1 .023-.375 18.152 18.152 0 0 0 .047-.441c.004-.036.007-.05.011-.043.004.006.004-.005.001-.032a4.384 4.384 0 0 1 .028-.38c.022-.226.049-.415.081-.568a9.23 9.23 0 0 0 .094-.465.909.909 0 0 0 .007-.03 1.036 1.036 0 0 1 .04-.127c.006-.018.008-.022.007-.012a4.362 4.362 0 0 1 .13-.392 4.85 4.85 0 0 1 .29-.663.571.571 0 0 1 .028-.058 1 1 0 0 0 .037-.076c.012-.026.007-.02-.013.018s.058-.138.233-.528l.477-1.06c.142-.315.244-.576.305-.78a6.821 6.821 0 0 1 .246-.7 4.616 4.616 0 0 1 .07-.168l.053-.128.094-.23.062-.157c.023-.06.044-.14.062-.241.019-.102.075-.342.17-.72.093-.378.175-.678.244-.9.07-.222.138-.416.204-.58.066-.165.112-.286.136-.363a1.719 1.719 0 0 0 .056-.23 2.706 2.706 0 0 1 .08-.286l.07-.2c.023-.067.044-.13.06-.187.018-.057.047-.136.087-.236.042-.101.114-.34.218-.716.104-.378.194-.73.272-1.058.079-.328.17-.59.273-.79.104-.198.19-.389.26-.571.07-.183.161-.466.275-.848.114-.383.308-.856.582-1.42l.638-1.314c.152-.314.353-.696.602-1.147.25-.451.42-.791.511-1.021.092-.23.19-.408.293-.535.104-.127.162-.2.176-.221.014-.021.073-.09.18-.205.105-.116.193-.226.262-.332a3.212 3.212 0 0 0 .264-.483 4.716 4.716 0 0 1 .13-.286c.03-.063.081-.162.153-.297.073-.136.145-.276.217-.422l.177-.364a8.95 8.95 0 0 1 .118-.234 7.458 7.458 0 0 0 .107-.213c-.017.034.032-.08.148-.342.116-.263.239-.506.37-.728.132-.223.27-.46.412-.712.142-.252.328-.54.558-.866.23-.326.466-.634.705-.925.24-.291.435-.518.585-.681.152-.164.268-.281.348-.351a5.865 5.865 0 0 1 .32-.26 1.714 1.714 0 0 1 .072-.061c-.004 0 .006-.005.03-.015a24.668 24.668 0 0 0 .997-.68 4.235 4.235 0 0 0 .393-.317l.056-.053a3.259 3.259 0 0 0 .153-.174.082.082 0 0 1-.01.009 23.668 23.668 0 0 1 .147-.155l.034-.034c-.008.008.003 0 .031-.022a4.213 4.213 0 0 1 .215-.151c.016-.01.025-.014.027-.011a4.19 4.19 0 0 0 .28-.183c.183-.125.326-.241.428-.348.102-.108.241-.236.42-.382.177-.147.339-.268.484-.364a7.773 7.773 0 0 0 .767-.562l.096-.091a.629.629 0 0 1 .047-.045c-.014.009.005-.01.058-.056.053-.047.102-.09.148-.128a.98.98 0 0 1 .178-.116c.074-.038.139-.067.194-.087.056-.021.077-.031.061-.031-.014-.001-.01-.001.012-.001.023 0 .018-.003-.014-.011s.032-.025.191-.053c.16-.028.278-.03.355-.002.078.026.148.06.21.1.062.039.11.066.142.08.032.015.06.03.086.045.026.014.032.016.02.004-.013-.012.004-.01.05.01.048.019.098.034.152.044a4.293 4.293 0 0 1 .254.053c-.003-.004 0-.004.012-.002s.01-.002-.003-.011c-.012-.01.003-.009.045 0 .043.01.114.02.212.03.099.009.15.013.152.01.003-.002.094-.003.274-.001a60.035 60.035 0 0 0 .773 0c.147 0 .293.01.437.029.145.02.3.043.465.07.166.029.31.048.434.06.124.01.226.02.307.03.082.01.15.021.207.033l.202.042c.078.016.125.028.14.035.013.006.074.02.182.045.108.024.228.046.36.067a3.177 3.177 0 0 1 .545.128c.008 0 .013.003.015.01.003.007.074.038.212.094a2.634 2.634 0 0 0 .467.146 1.19 1.19 0 0 0 .135.029.478.478 0 0 1 .094.008c.034.004.049.006.044.004a1.019 1.019 0 0 1 .095.021.097.097 0 0 0 .055-.002c.02-.006.115.011.283.053.17.04.29.073.36.096.07.023.099.03.086.023-.012-.01-.005-.005.022.012.028.017.03.01.007-.02-.024-.031.01-.021.1.03.09.05.16.098.212.144.052.045.078.065.076.059-.002-.006-.004-.01-.006-.011l-.003-.004v-.002l-.003-.003v-.002l-.002-.003-.002-.002.008.008.057.06c.032.033.06.065.087.097.027.03.04.043.037.038-.002-.005 0-.005.005 0l.046.035a.96.96 0 0 1 .093.084 1.273 1.273 0 0 0 .346.22 1.223 1.223 0 0 1 .091.039c0-.002.01.004.03.018l.102.066a1.208 1.208 0 0 1 .096.06c.018.01.038.02.058.033a.14.14 0 0 0 .032.016 7.918 7.918 0 0 1 .31.135c.169.075.315.15.44.223.123.073.216.129.277.168.062.038.1.064.117.078a5.006 5.006 0 0 1 .268.264c-.008-.004-.01-.004-.008 0l.08.075c.05.046.072.068.066.067-.006-.002-.007 0-.002.003a.98.98 0 0 1 .064.057c.038.034.098.098.182.19a22.906 22.906 0 0 1 .275.308 122.688 122.688 0 0 1 .354.444 7.943 7.943 0 0 0 .586.665c.07.07.114.11.132.124.018.012.063.055.133.13.07.074.134.148.19.22.057.07.104.127.141.168.038.04.038.055.001.04-.037-.014.005.037.125.153.12.115.218.206.294.273a8.055 8.055 0 0 1 .295.27l.12.11a5.101 5.101 0 0 0 .246.22.105.105 0 0 1-.012-.006 3.137 3.137 0 0 0 .208.18c.002 0 .002 0 0 .004a1.05 1.05 0 0 0 .107.092c.074.059.16.125.257.199.098.073.177.136.235.188.06.052.105.11.136.175.032.064.04.086.026.067l.045.16-.01-.033.018.066c.01.032.019.092.028.178.01.086.013.13.01.13.012.172.016.228.01.169v.172-.011.156c-.003.083-.001.124.004.123a.23.23 0 0 1 .015.047.358.358 0 0 1-.014-.032l.06.144c.037.09.054.134.05.13.044.112.06.15.05.118.05.118.065.157.045.117a10.29 10.29 0 0 0 .068.235l.006.039.021.12a.39.39 0 0 1 .013.113c.012.112.016.161.011.149v.357c0-.025-.002-.004-.004.062s-.003.087-.003.064v.017a3.557 3.557 0 0 1-.134.531 2.265 2.265 0 0 1-.113.275c-.006.014-.005.012.002-.007l-.05.13c-.042.107-.08.21-.117.312-.036.1-.065.185-.085.255-.02.069-.037.139-.05.209-.014.07-.018.087-.014.05a192.011 192.011 0 0 0-.164 1.068.331.331 0 0 1-.016.074c-.003.004-.002.008.003.012a2.342 2.342 0 0 1-.171.59 279.986 279.986 0 0 0-.137.319 47.821 47.821 0 0 1-.214.521.374.374 0 0 1-.025.054 7.417 7.417 0 0 1-.19.378 1.73 1.73 0 0 0-.108.227 2.708 2.708 0 0 0-.396.866 3.75 3.75 0 0 1-.179.509c-.034.074-.046.101-.036.083a2.034 2.034 0 0 1-.141.256 2.901 2.901 0 0 0-.059.093c.004-.003-.004.012-.026.046-.02.034-.135.207-.344.52a4.751 4.751 0 0 0-.54 1.18 24.84 24.84 0 0 0-.303.984c-.05.18-.128.418-.236.71a6.27 6.27 0 0 1-.255.622 3.035 3.035 0 0 0-.139.305 11.969 11.969 0 0 0-.104.283c.004-.012.003-.003-.003.026a1.662 1.662 0 0 1-.069.2.913.913 0 0 1-.13.24 3.292 3.292 0 0 0-.192.257.957.957 0 0 1-.07.097 6.691 6.691 0 0 0-.327.54c-.135.244-.252.446-.35.607a22.506 22.506 0 0 1-.373.593.48.48 0 0 0-.065.124 1.657 1.657 0 0 1-.147.26 2.42 2.42 0 0 1-.254.349 5.26 5.26 0 0 1-.184.194.493.493 0 0 0-.077.084.103.103 0 0 0-.006.017s-.02.015-.06.04c-.04.027-.15.205-.327.533-.176.328-.307.584-.392.768a4.726 4.726 0 0 1-.26.493c-.088.144-.148.249-.178.314a1.838 1.838 0 0 1-.1.192h.002l-.083.105a10.151 10.151 0 0 1-.149.187 3.872 3.872 0 0 0-.079.1l-.046.072-.09.14a9.917 9.917 0 0 0-.16.263c.008-.011-.056.096-.192.322-.136.224-.307.51-.513.858-.205.348-.373.639-.504.874-.13.234-.303.523-.518.866-.215.342-.39.611-.522.809a9.003 9.003 0 0 1-.302.433c-.07.09-.133.17-.193.24-.06.07-.078.096-.054.079.025-.017-.05.088-.225.316a3.548 3.548 0 0 1-.48.53c-.147.125-.363.36-.649.707l-.642.777a4.155 4.155 0 0 1-.316.35 2.092 2.092 0 0 0-.159.159 7.345 7.345 0 0 1-.23.252 5.388 5.388 0 0 0-.13.12c-.014.013-.015.017-.003.01.012-.005-.012.013-.072.056-.06.043-.184.18-.37.413-.187.232-.33.427-.43.585-.1.158-.193.282-.279.372l-.168.17a5.016 5.016 0 0 0-.247.312 5.1 5.1 0 0 1-.51.565c-.2.192-.396.39-.59.59-.194.201-.388.387-.583.559a3.448 3.448 0 0 0-.424.426c-.087.112-.174.239-.26.382a3.03 3.03 0 0 1-.198.298 1.99 1.99 0 0 1-.216.225 5.29 5.29 0 0 0-.446.453c-.045.057-.09.112-.134.164a9.635 9.635 0 0 0-.145.177c-.016.02-.051.059-.105.116-.053.056-.067.072-.043.048.024-.025.006 0-.056.073a6.494 6.494 0 0 1-.242.272c-.1.107-.202.226-.305.357a.905.905 0 0 0-.227.624.674.674 0 0 1 .007.096.883.883 0 0 1-.046.315.524.524 0 0 0-.017.089.488.488 0 0 1-.02.103 1.66 1.66 0 0 0-.022.262c-.006.156-.01.309-.008.46l.002.31c0 .058-.002.067-.008.029l.082.54c.06.4.095.825.103 1.277.008.45.01.827.007 1.128a35.002 35.002 0 0 0-.002.954 4.816 4.816 0 0 0 .001.19.25.25 0 0 1 0 .019c.004-.037.01.045.018.245.008.2.01.352.007.455a3.935 3.935 0 0 1-.027.388c.003-.011-.002.074-.014.255a3.81 3.81 0 0 1-.065.503 4.735 4.735 0 0 1-.128.518 3.261 3.261 0 0 0-.03.139 2.653 2.653 0 0 1-.071.182.274.274 0 0 1-.03.059 8.593 8.593 0 0 1-.098.108 5.605 5.605 0 0 0-.216.247 2.23 2.23 0 0 0-.132.182 1.692 1.692 0 0 1-.057.084l-.006.006a7.431 7.431 0 0 1-.484.638c-.168.205-.308.374-.419.506-.11.132-.2.224-.268.278a.639.639 0 0 1-.1.073c.003-.006-.097.092-.299.292-.202.199-.37.369-.504.509-.132.14-.252.25-.36.33-.106.079-.21.16-.308.24-.098.081-.202.163-.31.247a5.43 5.43 0 0 0-.236.19c-.05.044-.234.172-.552.385-.317.213-.605.39-.865.533-.26.14-.49.249-.692.324a.997.997 0 0 1-.59.043c-.192-.046-.322-.101-.388-.166-.066-.066-.126-.1-.179-.101a1.113 1.113 0 0 1-.084-.006c.018.003 0 .002-.054-.003a.794.794 0 0 0-.164 0 .43.43 0 0 0-.177.065.813.813 0 0 1-.196.084c-.068.018-.088.024-.062.018.027-.006-.016 0-.129.02-.113.019-.238.026-.375.022a1.55 1.55 0 0 1-.24-.018c-.024-.008-.035-.013-.035-.016 0-.004.005 0 .011.009.007.01-.018-.011-.074-.063a6.822 6.822 0 0 1-.187-.176 1.623 1.623 0 0 0-.086-.08 2.133 2.133 0 0 0-.241-.132.914.914 0 0 1-.18-.112 2.348 2.348 0 0 1-.068-.053l-.089-.091a3.117 3.117 0 0 0-.183-.177 1.118 1.118 0 0 0-.138-.11c-.036-.021-.052-.03-.05-.024.002.005-.014-.006-.049-.033-.034-.027-.135-.056-.303-.086a1.801 1.801 0 0 0-.512-.02 1.127 1.127 0 0 0-.386.092c-.084.043-.12.055-.11.035.009-.02-.065.02-.222.12a2.416 2.416 0 0 0-.51.417.147.147 0 0 1-.033.029c-.008.004-.012.008-.01.01a.262.262 0 0 1-.059.039.332.332 0 0 1-.065.035c-.002-.001-.001-.002.002-.004a.023.023 0 0 0 .006-.003s-.003 0-.009.004l-.008.003c0-.002-.03.018-.093.059a8.116 8.116 0 0 1-.332.205.605.605 0 0 1-.172.069 2.56 2.56 0 0 0-.533.205 1.068 1.068 0 0 1-.352.12 3.709 3.709 0 0 0-.169.006 6.266 6.266 0 0 1-.45.031 6.348 6.348 0 0 1-.288 0h-.03l-.02-.001c-.022-.001-.021-.001.002-.001.024 0 .013.003-.033.007a.598.598 0 0 1-.175-.015 2.01 2.01 0 0 1-.203-.05 1.046 1.046 0 0 0-.23-.044c.003.002-.006 0-.03-.006-.023-.007-.024-.004-.004.009.02.012 0 .008-.06-.013a1.318 1.318 0 0 1-.285-.14c.004 0 .007 0 .01.006a22.347 22.347 0 0 0-.41-.533c-.002.004-.005-.008-.01-.035a1.4 1.4 0 0 0-.107-.226 51.003 51.003 0 0 0-.168-.312c-.045-.084-.1-.127-.164-.128a.367.367 0 0 1-.092-.006c.003-.003 0-.004-.01-.002a.405.405 0 0 1-.199-.091 1.273 1.273 0 0 0-.179-.116 2.994 2.994 0 0 0-.21-.11 7.388 7.388 0 0 0-.181-.046c-.035-.008-.053-.01-.055-.006-.001.004.004.008.016.012s-.07-.01-.244-.04a1.212 1.212 0 0 0-.443-.011.718.718 0 0 0-.359.157 140.79 140.79 0 0 1-.234.142c.003-.003 0-.004-.01-.003-.01 0-.018.012-.026.034a1.47 1.47 0 0 1-.185.21 2.02 2.02 0 0 1-.285.254.455.455 0 0 1-.19.085.426.426 0 0 0-.098.016.193.193 0 0 0-.03.016c-.01.005-.012.004-.007-.002.006-.008-.01.002-.046.03a1.019 1.019 0 0 0-.114.103.38.38 0 0 1-.084.073 1.063 1.063 0 0 1-.339.07c-.026 0-.033.003-.023.007.01.004-.007-.006-.053-.03-.046-.023-.434.148-1.166.512-.014-.02-.008-.109.016-.267.025-.16.038-.307.04-.443v-.258a.227.227 0 0 0-.006-.055 3.728 3.728 0 0 1-.072-.118c-.046-.077-.064-.103-.056-.077a6.733 6.733 0 0 0-.185-.032c-.008-.002-.007 0 .003.005h-.316a.03.03 0 0 0-.018.006c-.006.004 0 .004.018 0s-.062-.01-.238-.017a1.72 1.72 0 0 0-.497.046c-.155.038-.288.08-.399.126-.11.046-.186.074-.227.082a1.613 1.613 0 0 1-.218.027.546.546 0 0 0-.103.017c-.09.016-.21.053-.362.109s-.28.097-.385.125a.57.57 0 0 1-.23.026 4.45 4.45 0 0 1-.264-.063c-.012-.004-.018-.007-.018-.01 0-.002-.055-.013-.163-.031a10.4 10.4 0 0 1-.252-.046 1.076 1.076 0 0 1-.143-.038.4.4 0 0 1-.065-.03.156.156 0 0 0-.035-.016c-.014-.006-.004.002.03.025.033.022-.041-.015-.224-.112a12.455 12.455 0 0 0-.477-.243 1.358 1.358 0 0 1-.265-.151.965.965 0 0 1-.097-.093c-.022-.026-.03-.043-.022-.05.008-.008.01-.004.003.01-.006.015-.011-.049-.014-.191a5.332 5.332 0 0 1 .003-.354 9.2 9.2 0 0 0 .01-.365c.001-.151-.007-.245-.026-.283a1.603 1.603 0 0 1-.066-.165.686.686 0 0 1-.042-.198.417.417 0 0 1-.002-.084c.003.004.003.009 0 .016-.005.007-.006-.013-.006-.061 0-.05.008-.113.02-.192.012-.08.018-.112.018-.098v-.216c0-.031 0-.078.003-.141.003-.064 0-.099-.009-.105-.008-.006-.006-.054.005-.142a.648.648 0 0 1 .05-.194 7.326 7.326 0 0 1 .208-.358l.201-.326c.109-.177.307-.394.595-.651.288-.258.532-.49.733-.694.2-.206.348-.382.442-.527.095-.145.197-.294.307-.448.11-.155.206-.276.286-.363l.27-.288a9.2 9.2 0 0 0 .481-.547c.055-.068.149-.154.282-.257.133-.104.257-.191.372-.26.115-.07.252-.198.411-.386.16-.188.326-.415.498-.68.173-.265.297-.452.373-.562.076-.11.138-.194.184-.254.047-.06.112-.147.194-.262.084-.115.195-.313.335-.595.14-.283.253-.496.338-.638.085-.144.13-.223.138-.24.008-.015.056-.087.145-.215a32.654 32.654 0 0 0 .483-.713c.085-.13.15-.224.198-.283.048-.06.123-.14.225-.243l.284-.288a1.05 1.05 0 0 1 .186-.164.532.532 0 0 0 .148-.18c.06-.098.107-.187.14-.265.031-.08.066-.148.103-.206l.096-.154c.028-.045.037-.062.028-.052-.008.01-.01.01-.004 0a.668.668 0 0 0 .037-.147c-.008.016-.011.014-.01-.006a.292.292 0 0 0-.007-.07.964.964 0 0 1-.01-.314c.01-.071.009-.086-.002-.046-.011.039-.001-.043.03-.246-.001-.005-.078-.002-.23.009a1.039 1.039 0 0 0-.35.073.93.93 0 0 0-.159.086l-.046.037c-.004.003-.004-.003.002-.017.006-.015-.038.04-.132.166l.053.005c-.007.048-.026-.002-.058-.15a.086.086 0 0 1-.019-.003v-.005a1.169 1.169 0 0 1-.143-.007.372.372 0 0 0-.047-.013c-1.582-.438-2.992-.948-4.23-1.53Z" stroke="#FFB352" stroke-width=".5" fill="#FFB352" fill-rule="nonzero"/><path d="M49.457 13.793c-.342.354-.621.667-.836.938-.214.27-.336.42-.366.45" stroke="#171612" stroke-width="1.7"/><path d="M48.565 15.047c.032-.04.043-.046.035-.018-.008.027.008-.01.047-.111s.067-.197.083-.29a2.07 2.07 0 0 1 .025-.126l.065-.213a18.767 18.767 0 0 0 .183-.623c.016-.058.033-.113.05-.163a.397.397 0 0 0 .025-.107c0-.022-.002-.027-.006-.015-.004.01.04-.254.131-.795.09-.542.167-1 .227-1.373.062-.375.084-.634.068-.778a2.818 2.818 0 0 0-.075-.41 2.295 2.295 0 0 0-.148-.4c-.064-.14-.088-.228-.072-.266.017-.038-.073-.194-.27-.466a4.274 4.274 0 0 0-.539-.634c-.162-.15-.27-.246-.32-.288a4.388 4.388 0 0 0-.23-.178 132.72 132.72 0 0 0-.406-.3 4.079 4.079 0 0 1-.497-.434 54.405 54.405 0 0 1-.569-.591 12.755 12.755 0 0 0-.6-.596 20.094 20.094 0 0 0-.725-.641 3.049 3.049 0 0 0-.296-.213 10.643 10.643 0 0 1-.225-.146 1.092 1.092 0 0 0-.118-.07 2.18 2.18 0 0 1-.26-.182c-.126-.098-.455-.284-.989-.558a11.166 11.166 0 0 0-1.465-.637l-1.148-.395c-.322-.112-.735-.254-1.238-.426a6.863 6.863 0 0 0-1.437-.334c-.454-.051-.847-.097-1.18-.137-.332-.041-.586-.078-.76-.11a24.287 24.287 0 0 1-.453-.091 1.897 1.897 0 0 0-.23-.04l-.102-.003a2.881 2.881 0 0 0-.228-.002c.019 0 .017-.001-.005-.003a.32.32 0 0 0-.09.012c-.037.009-.24.002-.606-.02a50.737 50.737 0 0 0-.896-.05c-.23-.01-.375-.005-.435.015s-.105.037-.135.052l-.08.036a3.619 3.619 0 0 1-.273.12 9.77 9.77 0 0 0-.293.125.737.737 0 0 0-.114.056c-.004.005-.007.005-.008 0 0-.006-.058.034-.172.119a17.68 17.68 0 0 1-.302.22 9.882 9.882 0 0 0-.242.177 1.108 1.108 0 0 0-.133.109 9.819 9.819 0 0 0-.262.296c.014-.012.015-.01.001.008a2.236 2.236 0 0 1-.222.167c-.134.094-.254.2-.36.315-.106.115-.18.202-.22.26-.043.057-.062.075-.06.054.003-.022-.004-.028-.022-.02a.24.24 0 0 1-.09.012.508.508 0 0 0-.058.002 2.202 2.202 0 0 0-.167.025c-.13.02-.212.037-.247.053M29.576 4.279h.016c-.002-.01.007-.012.027-.008.02.002-.01-.028-.094-.09-.083-.064-.18-.07-.288-.018a.913.913 0 0 0-.28.204c-.078.084-.156.167-.235.249a4.921 4.921 0 0 0-.196.215c-.052.062-.217.254-.497.578-.278.324-.563.689-.853 1.096-.29.406-.491.718-.605.935a22.89 22.89 0 0 1-.696 1.167c-.35.562-.63 1.05-.84 1.467-.21.416-.395.742-.559.979a7.837 7.837 0 0 0-.526.917c-.187.374-.395.781-.623 1.223-.227.44-.394.752-.5.932a7.54 7.54 0 0 0-.374.749 9.05 9.05 0 0 1-.336.696c-.082.146-.216.48-.404 1.006-.187.524-.351.96-.493 1.308-.14.347-.286.68-.438.999-.151.318-.284.621-.398.91l-.307.786c-.09.234-.156.413-.197.538-.04.124-.072.22-.098.289a4.613 4.613 0 0 0-.082.249c.02-.066-.033.098-.163.492l-.3.927c-.072.223-.13.415-.175.576l-.117.42a5.887 5.887 0 0 0-.076.3 6.303 6.303 0 0 1-.196.689 6.017 6.017 0 0 1-.237.579 7.743 7.743 0 0 0-.187.483 3.995 3.995 0 0 1-.17.433" stroke="#171612" stroke-width="1.7"/><path d="M49.141 14.428c.026-.015.004-.167-.068-.457-.028.049-.2.488-.518 1.318-.317.828-.672 1.78-1.065 2.857a70.857 70.857 0 0 0-.858 2.46c-.18.563-.467 1.169-.863 1.817a25.001 25.001 0 0 0-1.025 1.839c-.287.578-.473 1.003-.559 1.276-.084.273-.259.634-.523 1.084-.264.45-.588.922-.972 1.418-.384.495-.662.91-.834 1.247a25.46 25.46 0 0 1-.766 1.353c-.338.566-.69 1.106-1.056 1.622-.365.514-.668.952-.908 1.314-.24.36-.543.764-.91 1.212-.368.447-.67.828-.907 1.142-.237.314-.44.59-.607.826a3.846 3.846 0 0 1-.523.605c-.182.167-.487.52-.916 1.06a122.26 122.26 0 0 0-1.652 2.123 5.03 5.03 0 0 1-.525.59c-.181.173-.404.43-.669.77-.264.34-.577.692-.938 1.058-.36.366-.643.666-.849.9a5.49 5.49 0 0 1-.486.504c-.118.1-.203.194-.254.28a1.123 1.123 0 0 1-.11.172.76.76 0 0 1-.065.126l-.09.159a.192.192 0 0 1-.045.052 3.333 3.333 0 0 0-.071.059 8.818 8.818 0 0 1-.157.13 1.18 1.18 0 0 0-.25.266 2.437 2.437 0 0 0-.109.183.87.87 0 0 1-.082.132M18.627 26.436c-.074.107.094-.286.503-1.18.008-.133-.195.07-.609.613-.414.542-.822 1.38-1.225 2.513a293.935 293.935 0 0 0-.966 2.747c-.241.698-.411 1.532-.51 2.502-.098.969-.247 1.954-.446 2.954a1.151 1.151 0 0 1-.05-.103h-.05c0 .01-.006.032-.02.067a.296.296 0 0 1-.057.095M14.975 37.339a.16.16 0 0 0 .033-.007c-.071-.196-.099-.258-.083-.185.009.008-.126-.071-.406-.236a2.53 2.53 0 0 0-.876-.324 4.914 4.914 0 0 0-.782-.075 6.18 6.18 0 0 1-.514-.015 5.197 5.197 0 0 0-.622.003 2.07 2.07 0 0 0-.803.194c-.247.116-.417.192-.51.229-.092.036-.215.1-.368.192a3.342 3.342 0 0 1-.507.244c-.184.07-.378.113-.582.127-.203.013-.396.022-.579.026a2.65 2.65 0 0 0-.346.022c-.048.009-.054.018-.018.026l-.796.942a65.345 65.345 0 0 0-1.21 1.47c-.31.39-.514.676-.614.858-.1.182-.172.33-.22.446a4.124 4.124 0 0 0-.167.636c0-.005.023-.017.067-.037a.477.477 0 0 0 .11-.067M6.025 42.399c-.154-.01-.226-.018-.216-.024-.224-.04-.301-.055-.23-.043-.124-.023-.186-.03-.185-.023h-.05c.107.146.169.205.185.178-.108-.015.045.046.46.183a5.1 5.1 0 0 0 1.44.23c.548.016 1.122.078 1.722.186.6.108.927.169.98.184M10.901 43.993c.11-.092-.01-.174-.357-.244-.042.07-.33.496-.867 1.276-.536.78-.96 1.408-1.273 1.882-.312.474-.53.842-.656 1.104-.125.262-.224.47-.296.626a6.923 6.923 0 0 1-.335.607h.028" stroke="#171612" stroke-width="1.7"/><path d="M7.96 48.003c-.033.028-.103.021-.21-.02-.107-.04-.213.012-.317.154a1.565 1.565 0 0 0-.22.405c-.045.128-.085.22-.122.275a2.323 2.323 0 0 0-.15.306c-.064.148-.25.457-.557.925a7.369 7.369 0 0 1-.94 1.18c-.32.318-.588.543-.805.674-.216.13-.355.254-.419.373a3.66 3.66 0 0 1-.183.308 9.81 9.81 0 0 1-.387.506c-.198.25-.707.743-1.526 1.48v-.03l-.054.059a1.008 1.008 0 0 0-.139.232l-.108.238a5.011 5.011 0 0 0-.138.338 2.111 2.111 0 0 1-.183.364c-.081.13-.155.329-.223.593-.066.264-.097.466-.093.607.005.14.02.253.047.339a.6.6 0 0 0 .091.192c.035.042.05.063.047.064-.003 0-.004-.014-.004-.04 0-.028.153.113.455.422.302.308.5.594.593.856.094.262.455.437 1.084.525.63.088.979.134 1.047.14" stroke="#171612" stroke-width="1.7"/><path d="M4.088 59.162c-.414.14-.544.194-.39.159-.01.024-.014.139-.014.346.54.018.731.024.575.017.653-.056.88-.084.68-.086.258-.144.4-.226.425-.244.026-.02.042-.04.047-.06.005-.022.053-.038.145-.05.092-.012.512-.397 1.26-1.155a53.93 53.93 0 0 0 2.055-2.2 35.295 35.295 0 0 1 1.6-1.72c.444-.438.754-.747.931-.926a4.41 4.41 0 0 0 .23-.235c-.026.022.006-.036.096-.172a3.64 3.64 0 0 0 .201-.332c.044-.085.083-.154.117-.208a2.78 2.78 0 0 0 .112-.191c.04-.075.135-.245.281-.51.147-.266.207-.378.18-.338-.027.04-.029.043-.005.009a.207.207 0 0 0 .03-.044c-.004.005 0 .002.011-.008.012-.012.086-.118.221-.32.136-.202.235-.346.3-.431.064-.086.083-.11.055-.07-.027.039-.035.048-.023.026l.107-.184c.059-.101.145-.265.26-.491.114-.227.174-.348.18-.362.005-.016.036-.092.094-.228a11.07 11.07 0 0 0 .138-.348c-.01.02-.011.024-.007.01.005-.014.052-.117.142-.308l.218-.46c.055-.113.11-.232.165-.355.056-.123.084-.183.084-.18 0 .005.003.002.007-.007.004-.01.045-.085.121-.224l.106-.191c-.006.01-.012.018-.02.02-.006.003.012-.026.055-.085.044-.06.125-.134.243-.224.12-.091.214-.172.284-.242" stroke="#171612" stroke-width="1.7"/><path d="M7.017 58.29c.024.02.01.024-.04.008-.051-.017-.053-.017-.006-.001s-.05-.001-.289-.051l-.64-.133c-.187-.04-.276-.05-.266-.028h-.195c-.05.012-.067.042-.049.088a.75.75 0 0 0 .084.154c.039.056.094.133.166.229.072.096.09.125.051.086a.993.993 0 0 1 .076.074c.089.088.29.204.601.35.312.144.549.237.711.279.162.04.333.068.512.08.179.012.253.005.221-.02-.031-.024-.042.002-.034.079.009.076.284.007.825-.21.542-.216.983-.482 1.325-.797.342-.316.556-.472.644-.468.088.003.352-.173.791-.527.44-.355.796-.678 1.07-.968.273-.291.497-.498.671-.622.174-.124.407-.297.698-.52.29-.222.51-.418.658-.588.148-.17.217-.253.21-.25-.009.005-.013.01-.014.015a.17.17 0 0 1-.023.037l.193-.267a17.7 17.7 0 0 0 .38-.543c.112-.166.24-.344.386-.536l.455-.595c.158-.204.238-.311.24-.32a.129.129 0 0 0 .003-.015c0-.002.031-.035.093-.1a2.49 2.49 0 0 0 .216-.261 10.408 10.408 0 0 1 .326-.42c-.04.05.017-.034.168-.252.152-.22.309-.427.47-.623.16-.196.278-.34.356-.43a16.759 16.759 0 0 0 .325-.391.859.859 0 0 1-.009.02c-.004.008.062-.095.196-.311.136-.216.355-.482.66-.798.303-.317.473-.488.507-.512M12.142 59.757c-.16-.218-.241-.322-.247-.314-.157.034-.331-.337-.523-1.114.022-.016.106.09.254.322.149.23.199.31.15.237-.05-.074-.06-.092-.033-.056l.062.08.188.207c.11.119.19.188.237.207.048.018.03.017-.055-.003-.084-.022.074.06.474.247.4.186.935.282 1.605.29.67.007 1.246-.067 1.724-.222a4.307 4.307 0 0 0 1.261-.64c.362-.27.679-.538.952-.8.273-.263.452-.457.537-.582.086-.126.297-.365.634-.718a5.7 5.7 0 0 0 .896-1.255c.26-.484.487-.974.68-1.472.194-.498.356-.874.486-1.126.13-.253.211-.401.241-.444a.798.798 0 0 0 .065-.103.18.18 0 0 0-.008.027c0 .004.097-.182.291-.556.194-.375.343-.673.447-.894.104-.221.193-.406.268-.555.075-.15.116-.227.122-.234a.07.07 0 0 1 .017-.016c.006-.003.047-.09.123-.26.078-.17.218-.346.42-.528a10.1 10.1 0 0 0 .371-.344M19.464 59.162c-.518-.3-.694-.404-.528-.314a31.169 31.169 0 0 0-.242-.241c.27.182.404.267.401.256-.003-.011.018-.01.063.003.045.012.14.06.287.146.146.085.505.175 1.077.27a6.304 6.304 0 0 0 1.655.065 18.15 18.15 0 0 1 1.218-.09c.28-.008.67-.167 1.168-.478a10.094 10.094 0 0 0 2.001-1.605c.162-.178.303-.334.423-.47.12-.135.234-.275.342-.42.108-.144.175-.249.2-.313a.707.707 0 0 1 .162-.222c.083-.084.306-.432.67-1.044.363-.612.573-1.139.631-1.58.058-.44.081-.765.07-.971a6.975 6.975 0 0 1-.015-.561 3.819 3.819 0 0 0 .002-.24v-3.555l.001-.247c0-.074.006-.192.015-.353.009-.162-.003-.188-.037-.08-.033.11-.018.056.044-.16s.17-.476.323-.78l.32-.63" stroke="#171612" stroke-width="1.7"/></g></svg>