<?xml version="1.0" encoding="UTF-8"?>
<svg width="52px" height="62px" viewBox="0 0 52 62" version="1.1" xmlns="http://www.w3.org/2000/svg" xmlns:xlink="http://www.w3.org/1999/xlink">
    <title>left-hand</title>
    <g id="left-hand" stroke="none" stroke-width="1" fill="none" fill-rule="evenodd" stroke-linecap="round" stroke-linejoin="round">
        <path d="M5.46825,41.6935505 C5.48158333,41.7108838 5.49025,41.7185505 5.49425,41.7165505 C5.49891667,41.7138838 5.49425,41.7132171 5.48025,41.7145505 C5.46691667,41.7152171 5.47258333,41.7135505 5.49725,41.7095505 C5.52125,41.7055505 5.52558333,41.7038838 5.51025,41.7045505 C5.49491667,41.7058838 5.48691667,41.7075505 5.48625,41.7095505 C5.48558333,41.7115505 5.49458333,41.7112171 5.51325,41.7085505 C5.53125,41.7058838 5.53158333,41.7065505 5.51425,41.7105505 C5.49691667,41.7145505 5.46391667,41.7195505 5.41525,41.7255505 C5.36725,41.7308838 5.34125,41.7325505 5.33725,41.7305505 C5.33325,41.7285505 5.33291667,41.7278838 5.33625,41.7285505 C5.34025,41.7285505 5.34258333,41.7285505 5.34325,41.7285505 C5.34391667,41.7278838 5.31958333,41.7322171 5.27025,41.7415505 C5.22091667,41.7508838 5.19225,41.7562171 5.18425,41.7575505 C5.17558333,41.7588838 5.17391667,41.7588838 5.17925,41.7575505 C5.17058333,41.7602171 5.14758333,41.7685505 5.11025,41.7825505 C5.14491667,41.6218838 5.16691667,41.5618838 5.17625,41.6025505 C5.24158333,41.4998838 5.39558333,41.2958838 5.63825,40.9905505 C5.88025,40.6852171 6.06091667,40.4475505 6.18025,40.2775505 C6.29958333,40.1082171 6.36358333,40.0198838 6.37225,40.0125505 C6.38091667,40.0058838 6.41758333,39.9252171 6.48225,39.7705505 C6.54625,39.6165505 6.60558333,39.4862171 6.66025,39.3795505 C6.71425,39.2735505 6.77058333,39.1855505 6.82925,39.1155505 C6.88791667,39.0448838 6.91691667,39.0098838 6.91625,39.0105505 C6.91491667,39.0118838 6.91858333,39.0085505 6.92725,39.0005505 C6.93525,38.9932171 6.93125,38.9985505 6.91525,39.0165505 C6.89925,39.0338838 6.92291667,39.0062171 6.98625,38.9335505 C7.05025,38.8602171 7.11091667,38.7985505 7.16825,38.7485505 C7.22558333,38.6985505 7.27791667,38.6548838 7.32525,38.6175505 C7.37258333,38.5795505 7.40291667,38.5545505 7.41625,38.5425505 C7.43025,38.5305505 7.44358333,38.5198838 7.45625,38.5105505 C7.46825,38.5005505 7.50125,38.4742171 7.55525,38.4315505 C7.60925,38.3895505 7.63991667,38.3655505 7.64725,38.3595505 C7.65391667,38.3535505 7.65391667,38.3532171 7.64725,38.3585505 C7.64058333,38.3638838 7.67525,38.3355505 7.75125,38.2735505 C7.82725,38.2122171 7.85058333,38.1928838 7.82125,38.2155505 C7.79191667,38.2388838 7.83091667,38.2135505 7.93825,38.1395505 C8.04491667,38.0662171 8.15991667,37.9882171 8.28325,37.9055505 C8.40591667,37.8228838 8.49558333,37.7628838 8.55225,37.7255505 C8.60891667,37.6882171 8.66125,37.6562171 8.70925,37.6295505 C8.75791667,37.6022171 8.78025,37.5895505 8.77625,37.5915505 C8.77291667,37.5928838 8.77658333,37.5915505 8.78725,37.5875505 C8.79791667,37.5828838 8.79991667,37.5828838 8.79325,37.5875505 C8.78658333,37.5915505 8.79291667,37.5878838 8.81225,37.5765505 C8.83158333,37.5645505 8.92091667,37.5285505 9.08025,37.4685505 C9.23958333,37.4078838 9.39558333,37.3615505 9.54825,37.3295505 C9.70091667,37.2975505 9.80825,37.2748838 9.87025,37.2615505 C9.93291667,37.2482171 9.97691667,37.2368838 10.00225,37.2275505 C10.0269167,37.2175505 10.0435833,37.2128838 10.05225,37.2135505 C10.0609167,37.2135505 10.0685833,37.2128838 10.07525,37.2115505 C10.0819167,37.2102171 10.1065833,37.2052171 10.14925,37.1965505 C10.19125,37.1878838 10.2949167,37.1615505 10.46025,37.1175505 C10.6255833,37.0735505 10.78525,37.0415505 10.93925,37.0215505 C11.0925833,37.0015505 11.2139167,36.9932171 11.30325,36.9965505 C11.39325,36.9992171 11.4745833,37.0005505 11.54725,37.0005505 C11.6205833,37.0005505 11.6519167,37.0008838 11.64125,37.0015505 C11.6305833,37.0015505 11.6279167,37.0015505 11.63325,37.0015505 C11.6385833,37.0015505 11.66925,37.0018838 11.72525,37.0025505 C11.78125,37.0032171 11.8055833,37.0022171 11.79825,36.9995505 C11.7909167,36.9975505 11.7999167,37.0012171 11.82525,37.0105505 C11.8505833,37.0192171 11.8999167,37.0068838 11.97325,36.9735505 C12.0465833,36.9395505 12.1385833,36.9122171 12.24925,36.8915505 C12.3599167,36.8708838 12.45925,36.8572171 12.54725,36.8505505 C12.63525,36.8438838 12.6989167,36.8385505 12.73825,36.8345505 C12.7775833,36.8305505 12.79225,36.8292171 12.78225,36.8305505 C12.77225,36.8312171 12.78025,36.8305505 12.80625,36.8285505 C12.8315833,36.8265505 12.8375833,36.8265505 12.82425,36.8285505 C12.8115833,36.8305505 12.86025,36.8255505 12.97025,36.8135505 C13.0795833,36.8015505 13.1849167,36.7962171 13.28625,36.7975505 C13.3875833,36.7988838 13.46325,36.7992171 13.51325,36.7985505 C13.56325,36.7972171 13.6059167,36.7998838 13.64125,36.8065505 C13.6765833,36.8132171 13.7139167,36.8245505 13.75325,36.8405505 C13.7925833,36.8558838 13.7945833,36.8538838 13.75925,36.8345505 C13.7239167,36.8145505 13.7425833,36.8578838 13.81525,36.9645505 C13.8879167,37.0712171 13.95525,37.1568838 14.01725,37.2215505 C14.0785833,37.2862171 14.1329167,37.3322171 14.18025,37.3595505 C14.2269167,37.3862171 14.2555833,37.4032171 14.26625,37.4105505 C14.2775833,37.4172171 14.2879167,37.4215505 14.29725,37.4235505 C14.3059167,37.4248838 14.3069167,37.4245505 14.30025,37.4225505 C14.2935833,37.4205505 14.3089167,37.4278838 14.34625,37.4445505 C14.3835833,37.4618838 14.42625,37.4782171 14.47425,37.4935505 C14.5229167,37.5095505 14.5805833,37.5298838 14.64725,37.5545505 C14.7139167,37.5798838 14.7475833,37.5928838 14.74825,37.5935505 C14.7495833,37.5942171 14.75425,37.5962171 14.76225,37.5995505 C14.77025,37.6035505 14.7735833,37.6048838 14.77225,37.6035505 C14.77025,37.6022171 14.8095833,37.6158838 14.89025,37.6445505 C14.9709167,37.6732171 15.0409167,37.6988838 15.10025,37.7215505 C15.1595833,37.7442171 15.2159167,37.7645505 15.26925,37.7825505 C15.32325,37.7998838 15.34825,37.8082171 15.34425,37.8075505 C15.3409167,37.8062171 15.3385833,37.8048838 15.33725,37.8035505 C15.3359167,37.8015505 15.3459167,37.8055505 15.36725,37.8155505 C15.3885833,37.8255505 15.4655833,37.8555505 15.59825,37.9055505 C15.6169167,37.8602171 15.61125,37.7695505 15.58125,37.6335505 C15.55125,37.4975505 15.52325,37.3955505 15.49725,37.3275505 C15.47125,37.2595505 15.45825,37.2172171 15.45825,37.2005505 C15.45825,37.1832171 15.45425,37.1515505 15.44625,37.1055505 C15.4375833,37.0588838 15.4319167,37.0152171 15.42925,36.9745505 C15.4265833,36.9338838 15.42725,36.9345505 15.43125,36.9765505 C15.4345833,37.0185505 15.4365833,36.8912171 15.43725,36.5945505 C15.43725,36.2972171 15.4535833,35.9598838 15.48625,35.5825505 C15.5195833,35.2058838 15.5399167,34.9268838 15.54725,34.7455505 C15.5539167,34.5648838 15.5615833,34.4398838 15.57025,34.3705505 C15.5789167,34.3018838 15.5879167,34.2202171 15.59725,34.1255505 C15.60725,34.0308838 15.6139167,33.9655505 15.61725,33.9295505 C15.6205833,33.8942171 15.62425,33.8798838 15.62825,33.8865505 C15.6315833,33.8925505 15.6319167,33.8818838 15.62925,33.8545505 C15.6265833,33.8272171 15.6359167,33.7005505 15.65725,33.4745505 C15.6785833,33.2492171 15.7055833,33.0598838 15.73825,32.9065505 C15.7715833,32.7538838 15.7939167,32.6452171 15.80525,32.5805505 C15.8165833,32.5158838 15.8255833,32.4695505 15.83225,32.4415505 C15.8389167,32.4135505 15.84225,32.3988838 15.84225,32.3975505 C15.84225,32.3968838 15.84125,32.4002171 15.83925,32.4075505 C15.83725,32.4155505 15.83725,32.4165505 15.83925,32.4105505 C15.8405833,32.4045505 15.8409167,32.4035505 15.84025,32.4075505 C15.84025,32.4115505 15.8399167,32.4132171 15.83925,32.4125505 C15.83925,32.4112171 15.84425,32.3938838 15.85425,32.3605505 C15.8649167,32.3272171 15.87325,32.3018838 15.87925,32.2845505 C15.8845833,32.2672171 15.8869167,32.2632171 15.88625,32.2725505 C15.8849167,32.2825505 15.8909167,32.2618838 15.90425,32.2105505 C15.9169167,32.1598838 15.95425,32.0498838 16.01625,31.8805505 C16.07825,31.7112171 16.1269167,31.5892171 16.16225,31.5145505 C16.1969167,31.4392171 16.2279167,31.3742171 16.25525,31.3195505 C16.28325,31.2655505 16.2999167,31.2315505 16.30525,31.2175505 C16.3105833,31.2042171 16.32025,31.1848838 16.33425,31.1595505 C16.3475833,31.1348838 16.3599167,31.1095505 16.37125,31.0835505 C16.3825833,31.0582171 16.37825,31.0642171 16.35825,31.1015505 C16.33825,31.1395505 16.4159167,30.9635505 16.59125,30.5735505 C16.76725,30.1828838 16.92625,29.8298838 17.06825,29.5145505 C17.21025,29.1985505 17.3119167,28.9382171 17.37325,28.7335505 C17.43525,28.5288838 17.4825833,28.3845505 17.51525,28.3005505 C17.5479167,28.2165505 17.5825833,28.1278838 17.61925,28.0345505 C17.6559167,27.9418838 17.6789167,27.8855505 17.68825,27.8655505 C17.6969167,27.8455505 17.69725,27.8455505 17.68925,27.8655505 C17.6805833,27.8862171 17.69825,27.8435505 17.74225,27.7375505 C17.7855833,27.6315505 17.8169167,27.5552171 17.83625,27.5085505 C17.8549167,27.4618838 17.8755833,27.4092171 17.89825,27.3505505 C17.9209167,27.2918838 17.9415833,27.2115505 17.96025,27.1095505 C17.9789167,27.0075505 18.03525,26.7675505 18.12925,26.3895505 C18.22325,26.0115505 18.3049167,25.7115505 18.37425,25.4895505 C18.4435833,25.2675505 18.5115833,25.0742171 18.57825,24.9095505 C18.64425,24.7448838 18.6895833,24.6238838 18.71425,24.5465505 C18.73825,24.4698838 18.7549167,24.4065505 18.76425,24.3565505 C18.7735833,24.3072171 18.7755833,24.2938838 18.77025,24.3165505 C18.7649167,24.3392171 18.7715833,24.3128838 18.79025,24.2375505 C18.8089167,24.1628838 18.8289167,24.0938838 18.85025,24.0305505 C18.87225,23.9665505 18.89525,23.9002171 18.91925,23.8315505 C18.94325,23.7635505 18.9635833,23.7008838 18.98025,23.6435505 C18.9975833,23.5868838 19.0265833,23.5082171 19.06725,23.4075505 C19.1085833,23.3068838 19.18125,23.0682171 19.28525,22.6915505 C19.3885833,22.3142171 19.47925,21.9615505 19.55725,21.6335505 C19.6359167,21.3062171 19.7269167,21.0432171 19.83025,20.8445505 C19.93425,20.6458838 20.0209167,20.4552171 20.09025,20.2725505 C20.1595833,20.0898838 20.25125,19.8072171 20.36525,19.4245505 C20.47925,19.0418838 20.67325,18.5688838 20.94725,18.0055505 C21.22125,17.4422171 21.4339167,17.0038838 21.58525,16.6905505 C21.73725,16.3772171 21.9379167,15.9948838 22.18725,15.5435505 C22.4365833,15.0928838 22.6069167,14.7525505 22.69825,14.5225505 C22.7895833,14.2932171 22.88725,14.1148838 22.99125,13.9875505 C23.0945833,13.8608838 23.15325,13.7872171 23.16725,13.7665505 C23.1805833,13.7458838 23.24025,13.6775505 23.34625,13.5615505 C23.45225,13.4462171 23.5399167,13.3355505 23.60925,13.2295505 C23.6785833,13.1228838 23.7335833,13.0308838 23.77425,12.9535505 C23.81425,12.8762171 23.84725,12.8072171 23.87325,12.7465505 C23.89925,12.6858838 23.92025,12.6385505 23.93625,12.6045505 C23.9515833,12.5705505 23.9739167,12.5225505 24.00325,12.4605505 C24.03325,12.3978838 24.08425,12.2988838 24.15625,12.1635505 C24.2289167,12.0282171 24.30125,11.8875505 24.37325,11.7415505 C24.4445833,11.5948838 24.5035833,11.4735505 24.55025,11.3775505 C24.5975833,11.2808838 24.6369167,11.2028838 24.66825,11.1435505 C24.6995833,11.0835505 24.7295833,11.0242171 24.75825,10.9655505 C24.7875833,10.9068838 24.79325,10.8952171 24.77525,10.9305505 C24.7579167,10.9652171 24.80725,10.8512171 24.92325,10.5885505 C25.0385833,10.3258838 25.1619167,10.0832171 25.29325,9.86055048 C25.42525,9.63788381 25.5625833,9.40055048 25.70525,9.14855048 C25.84725,8.89721714 26.03325,8.60855048 26.26325,8.28255048 C26.4939167,7.95721714 26.7289167,7.64888381 26.96825,7.35755048 C27.2075833,7.06688381 27.4025833,6.83988381 27.55325,6.67655048 C27.7045833,6.51255048 27.8205833,6.39555048 27.90125,6.32555048 C27.9825833,6.25555048 28.0479167,6.20121714 28.09725,6.16255048 C28.14725,6.12455048 28.1885833,6.09221714 28.22125,6.06555048 C28.25325,6.03888381 28.27425,6.02188381 28.28425,6.01455048 C28.2949167,6.00721714 28.2979167,6.00388381 28.29325,6.00455048 C28.28925,6.00455048 28.2989167,5.99955048 28.32225,5.98955048 C28.34625,5.97888381 28.48525,5.88721714 28.73925,5.71455048 C28.99325,5.54121714 29.1865833,5.40621714 29.31925,5.30955048 C29.4525833,5.21288381 29.5445833,5.14221714 29.59525,5.09755048 C29.6465833,5.05221714 29.6859167,5.01721714 29.71325,4.99255048 C29.7405833,4.96721714 29.75925,4.94955048 29.76925,4.93955048 C29.77925,4.92888381 29.79525,4.91121714 29.81725,4.88655048 C29.8385833,4.86188381 29.86225,4.83488381 29.88825,4.80555048 C29.91425,4.77555048 29.92625,4.76121714 29.92425,4.76255048 C29.92225,4.76388381 29.9205833,4.76555048 29.91925,4.76755048 C29.91725,4.77021714 29.91825,4.76955048 29.92225,4.76555048 C29.9269167,4.76155048 29.9235833,4.76455048 29.91225,4.77455048 C29.9015833,4.78388381 29.9155833,4.76821714 29.95425,4.72755048 C29.9929167,4.68755048 30.0279167,4.65155048 30.05925,4.61955048 C30.0905833,4.58821714 30.1019167,4.57688381 30.09325,4.58555048 C30.08525,4.59421714 30.0955833,4.58688381 30.12425,4.56355048 C30.15225,4.54021714 30.19125,4.51155048 30.24125,4.47755048 C30.2905833,4.44421714 30.32325,4.42255048 30.33925,4.41255048 C30.35525,4.40255048 30.36425,4.39888381 30.36625,4.40155048 C30.36825,4.40421714 30.46125,4.34321714 30.64525,4.21855048 C30.82925,4.09388381 30.97225,3.97788381 31.07425,3.87055048 C31.1755833,3.76255048 31.31525,3.63521714 31.49325,3.48855048 C31.67125,3.34188381 31.8329167,3.22055048 31.97825,3.12455048 C32.1235833,3.02855048 32.2289167,2.95721714 32.29425,2.91055048 C32.3595833,2.86388381 32.4199167,2.81955048 32.47525,2.77755048 C32.53125,2.73555048 32.5495833,2.72155048 32.53025,2.73555048 C32.51025,2.74955048 32.53125,2.73321714 32.59325,2.68655048 C32.6559167,2.64055048 32.7065833,2.59921714 32.74525,2.56255048 C32.7845833,2.52588381 32.8165833,2.49555048 32.84125,2.47155048 C32.8665833,2.44688381 32.88425,2.43088381 32.89425,2.42355048 C32.90425,2.41621714 32.90225,2.41721714 32.88825,2.42655048 C32.8735833,2.43588381 32.8929167,2.41721714 32.94625,2.37055048 C32.9989167,2.32388381 33.04825,2.28121714 33.09425,2.24255048 C33.1395833,2.20388381 33.1989167,2.16521714 33.27225,2.12655048 C33.34625,2.08855048 33.4109167,2.05955048 33.46625,2.03955048 C33.52225,2.01888381 33.5425833,2.00855048 33.52725,2.00855048 C33.5125833,2.00788381 33.5165833,2.00755048 33.53925,2.00755048 C33.5619167,2.00821714 33.55725,2.00455048 33.52525,1.99655048 C33.49325,1.98921714 33.5569167,1.97155048 33.71625,1.94355048 C33.8755833,1.91555048 33.9939167,1.91488381 34.07125,1.94155048 C34.1485833,1.96821714 34.2185833,2.00155048 34.28125,2.04155048 C34.34325,2.08088381 34.3905833,2.10788381 34.42325,2.12255048 C34.45525,2.13721714 34.4839167,2.15188381 34.50925,2.16655048 C34.5345833,2.18121714 34.5409167,2.18255048 34.52825,2.17055048 C34.5155833,2.15855048 34.5325833,2.16188381 34.57925,2.18055048 C34.6265833,2.19988381 34.67725,2.21455048 34.73125,2.22455048 C34.78525,2.23455048 34.8429167,2.24655048 34.90425,2.26055048 C34.9649167,2.27521714 34.99425,2.28255048 34.99225,2.28255048 C34.9909167,2.28255048 34.9885833,2.28088381 34.98525,2.27755048 C34.9819167,2.27421714 34.9859167,2.27355048 34.99725,2.27555048 C35.0085833,2.27755048 35.0075833,2.27388381 34.99425,2.26455048 C34.9815833,2.25588381 34.9965833,2.25621714 35.03925,2.26555048 C35.0819167,2.27488381 35.1525833,2.28455048 35.25125,2.29455048 C35.3499167,2.30388381 35.4005833,2.30755048 35.40325,2.30555048 C35.4059167,2.30288381 35.49725,2.30221714 35.67725,2.30355048 C35.85725,2.30488381 35.99425,2.30555048 36.08825,2.30555048 C36.1829167,2.30621714 36.3035833,2.30588381 36.45025,2.30455048 C36.5969167,2.30388381 36.7425833,2.31321714 36.88725,2.33255048 C37.0319167,2.35255048 37.1869167,2.37621714 37.35225,2.40355048 C37.51825,2.43155048 37.6629167,2.45121714 37.78625,2.46255048 C37.9095833,2.47321714 38.0119167,2.48355048 38.09325,2.49355048 C38.1745833,2.50355048 38.2435833,2.51421714 38.30025,2.52555048 C38.3569167,2.53755048 38.42425,2.55155048 38.50225,2.56755048 C38.58025,2.58421714 38.6265833,2.59588381 38.64125,2.60255048 C38.65525,2.60855048 38.71625,2.62355048 38.82425,2.64755048 C38.93225,2.67155048 39.05225,2.69388381 39.18425,2.71455048 C39.31625,2.73521714 39.4185833,2.75521714 39.49125,2.77455048 C39.5639167,2.79321714 39.6159167,2.80721714 39.64725,2.81655048 C39.6785833,2.82655048 39.6979167,2.83321714 39.70525,2.83655048 C39.71325,2.83988381 39.72125,2.84188381 39.72925,2.84255048 C39.7365833,2.84255048 39.7415833,2.84621714 39.74425,2.85355048 C39.7469167,2.86021714 39.8175833,2.89121714 39.95625,2.94655048 C40.0949167,3.00121714 40.1945833,3.03588381 40.25525,3.05055048 C40.3159167,3.06455048 40.3719167,3.07855048 40.42325,3.09255048 C40.4739167,3.10655048 40.5075833,3.11488381 40.52425,3.11755048 C40.5415833,3.12021714 40.5529167,3.12155048 40.55825,3.12155048 C40.56425,3.12155048 40.5729167,3.12188381 40.58425,3.12255048 C40.5955833,3.12255048 40.61825,3.12488381 40.65225,3.12955048 C40.68625,3.13421714 40.7009167,3.13555048 40.69625,3.13355048 C40.69225,3.13221714 40.7029167,3.13421714 40.72825,3.13955048 C40.7535833,3.14488381 40.7745833,3.14988381 40.79125,3.15455048 C40.8085833,3.15921714 40.8269167,3.15855048 40.84625,3.15255048 C40.86625,3.14655048 40.9605833,3.16421714 41.12925,3.20555048 C41.2985833,3.24688381 41.41825,3.27888381 41.48825,3.30155048 C41.5589167,3.32488381 41.5879167,3.33255048 41.57525,3.32455048 C41.5625833,3.31588381 41.5699167,3.31988381 41.59725,3.33655048 C41.62525,3.35388381 41.6275833,3.34721714 41.60425,3.31655048 C41.58025,3.28588381 41.61325,3.29588381 41.70325,3.34655048 C41.79325,3.39721714 41.86425,3.44521714 41.91625,3.49055048 C41.96825,3.53588381 41.9935833,3.55555048 41.99225,3.54955048 C41.99025,3.54355048 41.98825,3.53988381 41.98625,3.53855048 C41.98425,3.53655048 41.98325,3.53521714 41.98325,3.53455048 C41.98325,3.53388381 41.9829167,3.53321714 41.98225,3.53255048 C41.9815833,3.53188381 41.9809167,3.53088381 41.98025,3.52955048 C41.98025,3.52888381 41.98025,3.52821714 41.98025,3.52755048 C41.9795833,3.52688381 41.9789167,3.52588381 41.97825,3.52455048 C41.9775833,3.52388381 41.9769167,3.52321714 41.97625,3.52255048 C41.9755833,3.52188381 41.97825,3.52455048 41.98425,3.53055048 C41.99025,3.53721714 42.00925,3.55721714 42.04125,3.59055048 C42.0725833,3.62388381 42.1015833,3.65621714 42.12825,3.68755048 C42.1549167,3.71821714 42.16725,3.73088381 42.16525,3.72555048 C42.16325,3.72088381 42.1649167,3.72088381 42.17025,3.72555048 C42.1755833,3.73021714 42.1909167,3.74188381 42.21625,3.76055048 C42.2409167,3.77921714 42.2719167,3.80721714 42.30925,3.84455048 C42.3465833,3.88188381 42.3969167,3.92088381 42.46025,3.96155048 C42.5235833,4.00221714 42.5885833,4.03655048 42.65525,4.06455048 C42.7219167,4.09255048 42.7539167,4.10655048 42.75125,4.10655048 C42.74925,4.10655048 42.7475833,4.10555048 42.74625,4.10355048 C42.7455833,4.10155048 42.75525,4.10755048 42.77525,4.12155048 C42.79525,4.13621714 42.8295833,4.15821714 42.87825,4.18755048 C42.9269167,4.21688381 42.9505833,4.23155048 42.94925,4.23155048 C42.94725,4.23155048 42.9555833,4.23688381 42.97425,4.24755048 C42.99225,4.25755048 43.0115833,4.26855048 43.03225,4.28055048 C43.0529167,4.29255048 43.06525,4.29855048 43.06925,4.29855048 C43.0725833,4.29921714 43.0709167,4.29855048 43.06425,4.29655048 C43.0575833,4.29521714 43.0655833,4.29855048 43.08825,4.30655048 C43.1109167,4.31455048 43.20625,4.35621714 43.37425,4.43155048 C43.5429167,4.50688381 43.68925,4.58121714 43.81325,4.65455048 C43.93725,4.72788381 44.0299167,4.78388381 44.09125,4.82255048 C44.1525833,4.86055048 44.1915833,4.88655048 44.20825,4.90055048 C44.2249167,4.91455048 44.2759167,4.96288381 44.36125,5.04555048 C44.4459167,5.12888381 44.48425,5.16855048 44.47625,5.16455048 C44.46825,5.16055048 44.4655833,5.16055048 44.46825,5.16455048 C44.4715833,5.16855048 44.49825,5.19355048 44.54825,5.23955048 C44.59825,5.28555048 44.62025,5.30788381 44.61425,5.30655048 C44.6075833,5.30521714 44.6069167,5.30621714 44.61225,5.30955048 C44.6175833,5.31288381 44.6389167,5.33188381 44.67625,5.36655048 C44.7135833,5.40121714 44.77425,5.46488381 44.85825,5.55755048 C44.9415833,5.65021714 45.0065833,5.72321714 45.05325,5.77655048 C45.1005833,5.82921714 45.12725,5.85855048 45.13325,5.86455048 C45.13925,5.86988381 45.1645833,5.90121714 45.20925,5.95855048 C45.2545833,6.01521714 45.34725,6.13188381 45.48725,6.30855048 C45.62725,6.48455048 45.7425833,6.62188381 45.83325,6.72055048 C45.9239167,6.81988381 46.0039167,6.90421714 46.07325,6.97355048 C46.14325,7.04355048 46.18725,7.08488381 46.20525,7.09755048 C46.22325,7.10955048 46.2675833,7.15288381 46.33825,7.22755048 C46.40825,7.30221714 46.4715833,7.37555048 46.52825,7.44755048 C46.5849167,7.51888381 46.6319167,7.57488381 46.66925,7.61555048 C46.7065833,7.65688381 46.7069167,7.67055048 46.67025,7.65655048 C46.6329167,7.64188381 46.6745833,7.69255048 46.79525,7.80855048 C46.91525,7.92388381 47.01325,8.01488381 47.08925,8.08155048 C47.16525,8.14821714 47.2299167,8.20655048 47.28325,8.25655048 C47.3365833,8.30721714 47.37025,8.33888381 47.38425,8.35155048 C47.3989167,8.36488381 47.4389167,8.40188381 47.50425,8.46255048 C47.5695833,8.52321714 47.62225,8.57055048 47.66225,8.60455048 C47.70225,8.63855048 47.72725,8.66021714 47.73725,8.66955048 C47.74725,8.67821714 47.7515833,8.68221714 47.75025,8.68155048 C47.74825,8.68088381 47.7455833,8.67955048 47.74225,8.67755048 C47.7389167,8.67555048 47.7359167,8.67355048 47.73325,8.67155048 C47.73125,8.67021714 47.7329167,8.67155048 47.73825,8.67555048 C47.7429167,8.68021714 47.7625833,8.69821714 47.79725,8.72955048 C47.8319167,8.76021714 47.86525,8.78888381 47.89725,8.81555048 C47.9285833,8.84221714 47.9449167,8.85555048 47.94625,8.85555048 C47.9475833,8.85555048 47.9475833,8.85688381 47.94625,8.85955048 C47.9449167,8.86155048 47.9805833,8.89221714 48.05325,8.95155048 C48.1265833,9.01088381 48.21225,9.07721714 48.31025,9.15055048 C48.40825,9.22388381 48.4865833,9.28655048 48.54525,9.33855048 C48.6045833,9.39121714 48.6499167,9.44955048 48.68125,9.51355048 C48.71325,9.57755048 48.7219167,9.59988381 48.70725,9.58055048 C48.74725,9.72121714 48.76225,9.77455048 48.75225,9.74055048 C48.74225,9.70655048 48.7389167,9.69555048 48.74225,9.70755048 C48.7455833,9.71955048 48.7515833,9.74155048 48.76025,9.77355048 C48.7695833,9.80621714 48.7789167,9.86555048 48.78825,9.95155048 C48.7975833,10.0375505 48.8009167,10.0812171 48.79825,10.0825505 C48.81025,10.2538838 48.8135833,10.3098838 48.80825,10.2505505 C48.80825,10.3578838 48.80825,10.4152171 48.80825,10.4225505 C48.80825,10.4298838 48.80825,10.4262171 48.80825,10.4115505 C48.8075833,10.5722171 48.80725,10.6242171 48.80725,10.5675505 C48.80525,10.6508838 48.8069167,10.6918838 48.81225,10.6905505 C48.8255833,10.7298838 48.8305833,10.7455505 48.82725,10.7375505 C48.82325,10.7295505 48.81925,10.7205505 48.81525,10.7105505 C48.8119167,10.7005505 48.81125,10.6988838 48.81325,10.7055505 C48.81525,10.7115505 48.8349167,10.7595505 48.87225,10.8495505 C48.9095833,10.9402171 48.9265833,10.9835505 48.92325,10.9795505 C48.96725,11.0915505 48.9835833,11.1308838 48.97225,11.0975505 C49.02225,11.2162171 49.0375833,11.2552171 49.01825,11.2145505 C49.0615833,11.3618838 49.0779167,11.4172171 49.06725,11.3805505 C49.0565833,11.3445505 49.05625,11.3428838 49.06625,11.3755505 C49.07625,11.4082171 49.0829167,11.4328838 49.08625,11.4495505 C49.0889167,11.4662171 49.0909167,11.4792171 49.09225,11.4885505 C49.0935833,11.4972171 49.1005833,11.5375505 49.11325,11.6095505 C49.1259167,11.6822171 49.13025,11.7195505 49.12625,11.7215505 C49.13825,11.8335505 49.1419167,11.8832171 49.13725,11.8705505 C49.13725,11.9932171 49.13725,12.0465505 49.13725,12.0305505 C49.13725,12.1865505 49.13725,12.2522171 49.13725,12.2275505 C49.1365833,12.2028838 49.13525,12.2235505 49.13325,12.2895505 C49.13125,12.3555505 49.13025,12.3768838 49.13025,12.3535505 C49.13025,12.3308838 49.13025,12.3365505 49.13025,12.3705505 C49.13025,12.4045505 49.11325,12.4862171 49.07925,12.6155505 C49.0459167,12.7448838 49.01825,12.8402171 48.99625,12.9015505 C48.9749167,12.9635505 48.95025,13.0258838 48.92225,13.0885505 C48.89425,13.1518838 48.88225,13.1788838 48.88625,13.1695505 C48.8895833,13.1602171 48.8885833,13.1625505 48.88325,13.1765505 C48.87725,13.1912171 48.8779167,13.1888838 48.88525,13.1695505 C48.8925833,13.1502171 48.8755833,13.1938838 48.83425,13.3005505 C48.7929167,13.4072171 48.75425,13.5108838 48.71825,13.6115505 C48.6815833,13.7122171 48.65325,13.7972171 48.63325,13.8665505 C48.61325,13.9358838 48.59625,14.0055505 48.58225,14.0755505 C48.5689167,14.1462171 48.5645833,14.1628838 48.56925,14.1255505 C48.5739167,14.0888838 48.5629167,14.1542171 48.53625,14.3215505 C48.51025,14.4895505 48.4889167,14.6282171 48.47225,14.7375505 C48.4555833,14.8468838 48.4419167,14.9385505 48.43125,15.0125505 C48.4205833,15.0872171 48.4119167,15.1475505 48.40525,15.1935505 C48.3979167,15.2388838 48.3925833,15.2635505 48.38925,15.2675505 C48.3859167,15.2722171 48.3869167,15.2762171 48.39225,15.2795505 C48.3969167,15.2828838 48.3845833,15.3472171 48.35525,15.4725505 C48.3259167,15.5985505 48.28125,15.7308838 48.22125,15.8695505 C48.16125,16.0082171 48.1229167,16.0968838 48.10625,16.1355505 C48.09025,16.1735505 48.0809167,16.1958838 48.07825,16.2025505 C48.0755833,16.2085505 48.0775833,16.2038838 48.08425,16.1885505 C48.09025,16.1732171 48.07025,16.2218838 48.02425,16.3345505 C47.9789167,16.4472171 47.9449167,16.5312171 47.92225,16.5865505 C47.8995833,16.6418838 47.88225,16.6828838 47.87025,16.7095505 C47.8589167,16.7362171 47.85325,16.7488838 47.85325,16.7475505 C47.8539167,16.7468838 47.8549167,16.7442171 47.85625,16.7395505 C47.8575833,16.7348838 47.8539167,16.7428838 47.84525,16.7635505 C47.83725,16.7842171 47.8129167,16.8352171 47.77225,16.9165505 C47.7315833,16.9978838 47.6925833,17.0728838 47.65525,17.1415505 C47.6179167,17.2102171 47.5925833,17.2608838 47.57925,17.2935505 C47.5659167,17.3268838 47.55525,17.3518838 47.54725,17.3685505 C47.5385833,17.3852171 47.53325,17.3942171 47.53125,17.3955505 C47.52925,17.3975505 47.4959167,17.4535505 47.43125,17.5635505 C47.36725,17.6735505 47.31225,17.7845505 47.26625,17.8965505 C47.2209167,18.0092171 47.1825833,18.1218838 47.15125,18.2345505 C47.1199167,18.3465505 47.0949167,18.4282171 47.07625,18.4795505 C47.0569167,18.5308838 47.0395833,18.5765505 47.02425,18.6165505 C47.0089167,18.6572171 47.0049167,18.6698838 47.01225,18.6545505 C47.0195833,18.6398838 47.00625,18.6695505 46.97225,18.7435505 C46.93825,18.8175505 46.92625,18.8452171 46.93625,18.8265505 C46.94625,18.8085505 46.94625,18.8102171 46.93625,18.8315505 C46.9269167,18.8522171 46.90925,18.8868838 46.88325,18.9355505 C46.85725,18.9835505 46.8279167,19.0325505 46.79525,19.0825505 C46.7619167,19.1318838 46.7429167,19.1605505 46.73825,19.1685505 C46.7335833,19.1758838 46.7329167,19.1782171 46.73625,19.1755505 C46.74025,19.1728838 46.7315833,19.1882171 46.71025,19.2215505 C46.6895833,19.2555505 46.5749167,19.4292171 46.36625,19.7425505 C46.1575833,20.0558838 45.97725,20.4492171 45.82525,20.9225505 C45.6725833,21.3965505 45.5719167,21.7242171 45.52325,21.9055505 C45.4739167,22.0868838 45.39525,22.3238838 45.28725,22.6165505 C45.17925,22.9098838 45.09425,23.1168838 45.03225,23.2375505 C44.97025,23.3588838 44.9239167,23.4605505 44.89325,23.5425505 C44.8625833,23.6245505 44.8369167,23.6948838 44.81625,23.7535505 C44.7949167,23.8128838 44.7859167,23.8368838 44.78925,23.8255505 C44.7925833,23.8142171 44.7915833,23.8228838 44.78625,23.8515505 C44.7809167,23.8795505 44.7579167,23.9462171 44.71725,24.0515505 C44.6759167,24.1562171 44.6325833,24.2362171 44.58725,24.2915505 C44.5419167,24.3468838 44.50825,24.3895505 44.48625,24.4195505 C44.4649167,24.4502171 44.45525,24.4645505 44.45725,24.4625505 C44.45925,24.4598838 44.4605833,24.4572171 44.46125,24.4545505 C44.4619167,24.4512171 44.4399167,24.4825505 44.39525,24.5485505 C44.3499167,24.6145505 44.3265833,24.6468838 44.32525,24.6455505 C44.2425833,24.7635505 44.1335833,24.9438838 43.99825,25.1865505 C43.8629167,25.4298838 43.7459167,25.6318838 43.64725,25.7925505 C43.54925,25.9538838 43.47225,26.0785505 43.41625,26.1665505 C43.3609167,26.2538838 43.3139167,26.3268838 43.27525,26.3855505 C43.23725,26.4442171 43.2155833,26.4855505 43.21025,26.5095505 C43.2055833,26.5335505 43.1565833,26.6205505 43.06325,26.7705505 C42.9699167,26.9198838 42.88525,27.0358838 42.80925,27.1185505 C42.7339167,27.2012171 42.6725833,27.2658838 42.62525,27.3125505 C42.5779167,27.3585505 42.55225,27.3865505 42.54825,27.3965505 C42.54425,27.4065505 42.54225,27.4122171 42.54225,27.4135505 C42.54225,27.4148838 42.52225,27.4285505 42.48225,27.4545505 C42.4415833,27.4812171 42.3325833,27.6585505 42.15525,27.9865505 C41.9785833,28.3152171 41.8479167,28.5712171 41.76325,28.7545505 C41.6785833,28.9385505 41.5919167,29.1028838 41.50325,29.2475505 C41.4145833,29.3922171 41.35525,29.4968838 41.32525,29.5615505 C41.2945833,29.6262171 41.27325,29.6685505 41.26125,29.6885505 C41.2499167,29.7078838 41.2405833,29.7235505 41.23325,29.7355505 C41.2259167,29.7482171 41.22325,29.7542171 41.22525,29.7535505 C41.2265833,29.7535505 41.22725,29.7538838 41.22725,29.7545505 C41.2265833,29.7545505 41.1989167,29.7892171 41.14425,29.8585505 C41.0895833,29.9278838 41.0629167,29.9615505 41.06425,29.9595505 C41.0655833,29.9575505 41.0425833,29.9862171 40.99525,30.0455505 C40.9479167,30.1048838 40.92325,30.1362171 40.92125,30.1395505 C40.9185833,30.1428838 40.9169167,30.1448838 40.91625,30.1455505 C40.91625,30.1455505 40.9009167,30.1695505 40.87025,30.2175505 C40.8395833,30.2648838 40.80925,30.3115505 40.77925,30.3575505 C40.7499167,30.4035505 40.7169167,30.4565505 40.68025,30.5165505 C40.6435833,30.5765505 40.62325,30.6102171 40.61925,30.6175505 C40.61525,30.6248838 40.6125833,30.6295505 40.61125,30.6315505 C40.6099167,30.6342171 40.6129167,30.6305505 40.62025,30.6205505 C40.62825,30.6098838 40.56425,30.7172171 40.42825,30.9425505 C40.2915833,31.1672171 40.1205833,31.4532171 39.91525,31.8005505 C39.7099167,32.1485505 39.5419167,32.4398838 39.41125,32.6745505 C39.2805833,32.9092171 39.1079167,33.1978838 38.89325,33.5405505 C38.6779167,33.8825505 38.5039167,34.1522171 38.37125,34.3495505 C38.23925,34.5475505 38.1385833,34.6918838 38.06925,34.7825505 C37.9999167,34.8725505 37.9355833,34.9525505 37.87625,35.0225505 C37.81625,35.0925505 37.79825,35.1188838 37.82225,35.1015505 C37.8469167,35.0848838 37.7719167,35.1902171 37.59725,35.4175505 C37.4225833,35.6455505 37.26225,35.8222171 37.11625,35.9475505 C36.97025,36.0728838 36.75425,36.3085505 36.46825,36.6545505 C36.1829167,37.0005505 35.9689167,37.2595505 35.82625,37.4315505 C35.6829167,37.6035505 35.5775833,37.7205505 35.51025,37.7825505 C35.44225,37.8445505 35.38925,37.8972171 35.35125,37.9405505 C35.31325,37.9845505 35.27225,38.0298838 35.22825,38.0765505 C35.1849167,38.1238838 35.1559167,38.1552171 35.14125,38.1705505 C35.1265833,38.1865505 35.1199167,38.1938838 35.12125,38.1925505 C35.12325,38.1905505 35.1055833,38.2068838 35.06825,38.2415505 C35.0315833,38.2762171 35.0059167,38.2998838 34.99125,38.3125505 C34.9765833,38.3258838 34.9755833,38.3295505 34.98825,38.3235505 C35.00025,38.3175505 34.97625,38.3358838 34.91625,38.3785505 C34.8555833,38.4218838 34.7319167,38.5595505 34.54525,38.7915505 C34.3585833,39.0235505 34.2155833,39.2185505 34.11625,39.3765505 C34.01625,39.5352171 33.92325,39.6592171 33.83725,39.7485505 C33.7505833,39.8372171 33.6945833,39.8938838 33.66925,39.9185505 C33.6439167,39.9432171 33.5615833,40.0472171 33.42225,40.2305505 C33.28225,40.4138838 33.11225,40.6022171 32.91225,40.7955505 C32.7129167,40.9882171 32.51625,41.1852171 32.32225,41.3865505 C32.12825,41.5872171 31.9339167,41.7732171 31.73925,41.9445505 C31.5439167,42.1165505 31.4025833,42.2585505 31.31525,42.3705505 C31.2279167,42.4825505 31.14125,42.6098838 31.05525,42.7525505 C30.9685833,42.8952171 30.9025833,42.9945505 30.85725,43.0505505 C30.81125,43.1065505 30.7685833,43.1542171 30.72925,43.1935505 C30.68925,43.2328838 30.68225,43.2408838 30.70825,43.2175505 C30.73425,43.1935505 30.7119167,43.2128838 30.64125,43.2755505 C30.57125,43.3375505 30.4909167,43.4142171 30.40025,43.5055505 C30.3095833,43.5968838 30.24125,43.6712171 30.19525,43.7285505 C30.1499167,43.7858838 30.10525,43.8405505 30.06125,43.8925505 C30.0179167,43.9452171 29.98725,43.9828838 29.96925,44.0055505 C29.9505833,44.0275505 29.9329167,44.0488838 29.91625,44.0695505 C29.8995833,44.0902171 29.8645833,44.1288838 29.81125,44.1855505 C29.7579167,44.2415505 29.7435833,44.2575505 29.76825,44.2335505 C29.79225,44.2088838 29.7735833,44.2332171 29.71225,44.3065505 C29.6509167,44.3805505 29.57025,44.4712171 29.47025,44.5785505 C29.3695833,44.6858838 29.2679167,44.8048838 29.16525,44.9355505 C29.06325,45.0662171 28.9985833,45.1865505 28.97125,45.2965505 C28.9445833,45.4065505 28.9335833,45.4942171 28.93825,45.5595505 C28.9435833,45.6248838 28.94525,45.6598838 28.94325,45.6645505 C28.94125,45.6692171 28.9419167,45.6662171 28.94525,45.6555505 C28.9485833,45.6455505 28.94825,45.6715505 28.94425,45.7335505 C28.9395833,45.7955505 28.9319167,45.8468838 28.92125,45.8875505 C28.9105833,45.9282171 28.90525,45.9498838 28.90525,45.9525505 C28.9045833,45.9552171 28.9025833,45.9612171 28.89925,45.9705505 C28.89525,45.9792171 28.8895833,46.0088838 28.88225,46.0595505 C28.8755833,46.1102171 28.8685833,46.1445505 28.86125,46.1625505 C28.8539167,46.1805505 28.8469167,46.2678838 28.84025,46.4245505 C28.8335833,46.5805505 28.8309167,46.7338838 28.83225,46.8845505 C28.8329167,47.0352171 28.8335833,47.1388838 28.83425,47.1955505 C28.83425,47.2528838 28.8315833,47.2622171 28.82625,47.2235505 C28.82025,47.1848838 28.8475833,47.3652171 28.90825,47.7645505 C28.9689167,48.1638838 29.00325,48.5892171 29.01125,49.0405505 C29.01925,49.4918838 29.0215833,49.8678838 29.01825,50.1685505 C29.0149167,50.4692171 29.0139167,50.6865505 29.01525,50.8205505 C29.0159167,50.9545505 29.01625,51.0552171 29.01625,51.1225505 C29.0155833,51.1898838 29.0155833,51.2372171 29.01625,51.2645505 C29.01625,51.2925505 29.0165833,51.3085505 29.01725,51.3125505 C29.0179167,51.3172171 29.0169167,51.3308838 29.01425,51.3535505 C29.0109167,51.3755505 29.0115833,51.3682171 29.01625,51.3315505 C29.0209167,51.2948838 29.02725,51.3765505 29.03525,51.5765505 C29.04325,51.7772171 29.0455833,51.9288838 29.04225,52.0315505 C29.0395833,52.1348838 29.03425,52.2275505 29.02625,52.3095505 C29.01825,52.3915505 29.0145833,52.4315505 29.01525,52.4295505 C29.0159167,52.4275505 29.01525,52.4278838 29.01325,52.4305505 C29.01125,52.4332171 29.0119167,52.4295505 29.01525,52.4195505 C29.0179167,52.4088838 29.01325,52.4938838 29.00125,52.6745505 C28.98925,52.8552171 28.9675833,53.0228838 28.93625,53.1775505 C28.9049167,53.3322171 28.87725,53.4508838 28.85325,53.5335505 C28.82925,53.6155505 28.81425,53.6695505 28.80825,53.6955505 C28.80225,53.7215505 28.7965833,53.7475505 28.79125,53.7735505 C28.78525,53.7988838 28.7809167,53.8168838 28.77825,53.8275505 C28.77625,53.8375505 28.77625,53.8398838 28.77825,53.8345505 C28.78025,53.8298838 28.77225,53.8508838 28.75425,53.8975505 C28.7369167,53.9442171 28.72125,53.9838838 28.70725,54.0165505 C28.69325,54.0485505 28.6829167,54.0682171 28.67625,54.0755505 C28.6695833,54.0828838 28.67525,54.0768838 28.69325,54.0575505 C28.71125,54.0382171 28.6729167,54.0802171 28.57825,54.1835505 C28.4835833,54.2875505 28.4119167,54.3698838 28.36325,54.4305505 C28.3145833,54.4912171 28.2705833,54.5518838 28.23125,54.6125505 C28.1919167,54.6732171 28.1729167,54.7018838 28.17425,54.6985505 C28.1749167,54.6952171 28.1749167,54.6945505 28.17425,54.6965505 C28.1729167,54.6978838 28.1709167,54.6998838 28.16825,54.7025505 C28.1649167,54.7052171 28.1259167,54.7608838 28.05125,54.8695505 C27.9759167,54.9788838 27.8535833,55.1358838 27.68425,55.3405505 C27.5155833,55.5458838 27.3759167,55.7145505 27.26525,55.8465505 C27.15525,55.9785505 27.0659167,56.0712171 26.99725,56.1245505 C26.9279167,56.1785505 26.8945833,56.2028838 26.89725,56.1975505 C26.8999167,56.1922171 26.80025,56.2895505 26.59825,56.4895505 C26.3955833,56.6888838 26.2275833,56.8585505 26.09425,56.9985505 C25.9615833,57.1392171 25.8415833,57.2492171 25.73425,57.3285505 C25.6275833,57.4078838 25.5249167,57.4882171 25.42625,57.5695505 C25.3275833,57.6502171 25.22425,57.7322171 25.11625,57.8155505 C25.0089167,57.8988838 24.93025,57.9625505 24.88025,58.0065505 C24.8295833,58.0498838 24.6455833,58.1778838 24.32825,58.3905505 C24.0109167,58.6038838 23.7225833,58.7815505 23.46325,58.9235505 C23.2039167,59.0648838 22.97325,59.1728838 22.77125,59.2475505 C22.5699167,59.3222171 22.37325,59.3365505 22.18125,59.2905505 C21.9885833,59.2452171 21.85925,59.1898838 21.79325,59.1245505 C21.7265833,59.0592171 21.6669167,59.0255505 21.61425,59.0235505 C21.5615833,59.0208838 21.5299167,59.0185505 21.51925,59.0165505 C21.5085833,59.0145505 21.51225,59.0148838 21.53025,59.0175505 C21.5475833,59.0208838 21.5295833,59.0198838 21.47625,59.0145505 C21.42225,59.0092171 21.3675833,59.0095505 21.31225,59.0155505 C21.2569167,59.0208838 21.1979167,59.0422171 21.13525,59.0795505 C21.0719167,59.1168838 21.0065833,59.1448838 20.93925,59.1635505 C20.87125,59.1815505 20.8505833,59.1875505 20.87725,59.1815505 C20.9039167,59.1755505 20.8609167,59.1822171 20.74825,59.2015505 C20.6349167,59.2208838 20.5099167,59.2282171 20.37325,59.2235505 C20.2365833,59.2188838 20.15625,59.2128838 20.13225,59.2055505 C20.1089167,59.1982171 20.0975833,59.1928838 20.09825,59.1895505 C20.0989167,59.1862171 20.1025833,59.1892171 20.10925,59.1985505 C20.1159167,59.2085505 20.09125,59.1875505 20.03525,59.1355505 C19.97925,59.0835505 19.94725,59.0535505 19.93925,59.0455505 C19.93125,59.0368838 19.9009167,59.0082171 19.84825,58.9595505 C19.79625,58.9102171 19.7675833,58.8838838 19.76225,58.8805505 C19.75625,58.8772171 19.7535833,58.8755505 19.75425,58.8755505 C19.7549167,58.8755505 19.7579167,58.8775505 19.76325,58.8815505 C19.76925,58.8848838 19.76925,58.8845505 19.76325,58.8805505 C19.7579167,58.8765505 19.7575833,58.8762171 19.76225,58.8795505 C19.76625,58.8828838 19.7449167,58.8702171 19.69825,58.8415505 C19.6509167,58.8128838 19.5919167,58.7815505 19.52125,58.7475505 C19.4505833,58.7135505 19.39025,58.6762171 19.34025,58.6355505 C19.2895833,58.5948838 19.26425,58.5742171 19.26425,58.5735505 C19.2635833,58.5722171 19.2665833,58.5752171 19.27325,58.5825505 C19.2799167,58.5892171 19.25025,58.5588838 19.18425,58.4915505 C19.1189167,58.4235505 19.0579167,58.3645505 19.00125,58.3145505 C18.94525,58.2645505 18.89925,58.2282171 18.86325,58.2055505 C18.82725,58.1835505 18.8105833,58.1752171 18.81325,58.1805505 C18.81525,58.1858838 18.7989167,58.1748838 18.76425,58.1475505 C18.7295833,58.1208838 18.6285833,58.0922171 18.46125,58.0615505 C18.29325,58.0308838 18.1225833,58.0245505 17.94925,58.0425505 C17.7759167,58.0598838 17.64725,58.0902171 17.56325,58.1335505 C17.47925,58.1768838 17.44225,58.1885505 17.45225,58.1685505 C17.4615833,58.1485505 17.3879167,58.1885505 17.23125,58.2885505 C17.07525,58.3878838 16.95425,58.4785505 16.86825,58.5605505 C16.7829167,58.6432171 16.7339167,58.6915505 16.72125,58.7055505 C16.7085833,58.7195505 16.6975833,58.7292171 16.68825,58.7345505 C16.6795833,58.7392171 16.67625,58.7425505 16.67825,58.7445505 C16.6795833,58.7465505 16.6599167,58.7595505 16.61925,58.7835505 C16.5779167,58.8082171 16.55625,58.8198838 16.55425,58.8185505 C16.55225,58.8178838 16.5529167,58.8165505 16.55625,58.8145505 C16.5595833,58.8132171 16.5615833,58.8122171 16.56225,58.8115505 C16.56225,58.8115505 16.55925,58.8128838 16.55325,58.8155505 C16.5465833,58.8182171 16.5439167,58.8192171 16.54525,58.8185505 C16.5459167,58.8172171 16.5149167,58.8368838 16.45225,58.8775505 C16.3895833,58.9182171 16.3495833,58.9438838 16.33225,58.9545505 C16.3155833,58.9652171 16.3009167,58.9745505 16.28825,58.9825505 C16.2755833,58.9912171 16.2545833,59.0048838 16.22525,59.0235505 C16.1959167,59.0415505 16.1819167,59.0492171 16.18325,59.0465505 C16.1839167,59.0438838 16.18925,59.0405505 16.19925,59.0365505 C16.2085833,59.0325505 16.18225,59.0478838 16.12025,59.0825505 C16.0575833,59.1178838 16.00025,59.1408838 15.94825,59.1515505 C15.89625,59.1628838 15.8189167,59.1872171 15.71625,59.2245505 C15.6135833,59.2618838 15.51325,59.3058838 15.41525,59.3565505 C15.3179167,59.4072171 15.2369167,59.4398838 15.17225,59.4545505 C15.1075833,59.4685505 15.07125,59.4758838 15.06325,59.4765505 C15.0545833,59.4765505 15.0255833,59.4775505 14.97625,59.4795505 C14.9269167,59.4822171 14.9049167,59.4832171 14.91025,59.4825505 C14.9155833,59.4818838 14.91025,59.4818838 14.89425,59.4825505 C14.8775833,59.4825505 14.8805833,59.4815505 14.90325,59.4795505 C14.9259167,59.4775505 14.87625,59.4825505 14.75425,59.4945505 C14.6315833,59.5058838 14.52825,59.5122171 14.44425,59.5135505 C14.3595833,59.5148838 14.2975833,59.5152171 14.25825,59.5145505 C14.2195833,59.5138838 14.1855833,59.5138838 14.15625,59.5145505 C14.1275833,59.5145505 14.1175833,59.5145505 14.12625,59.5145505 C14.1349167,59.5145505 14.12825,59.5138838 14.10625,59.5125505 C14.08425,59.5118838 14.0849167,59.5115505 14.10825,59.5115505 C14.1315833,59.5122171 14.1205833,59.5145505 14.07525,59.5185505 C14.0299167,59.5232171 13.9715833,59.5182171 13.90025,59.5035505 C13.82825,59.4895505 13.7605833,59.4728838 13.69725,59.4535505 C13.6339167,59.4342171 13.57525,59.4212171 13.52125,59.4145505 C13.46725,59.4085505 13.4435833,59.4058838 13.45025,59.4065505 C13.45625,59.4072171 13.4615833,59.4082171 13.46625,59.4095505 C13.47025,59.4115505 13.4605833,59.4095505 13.43725,59.4035505 C13.4139167,59.3968838 13.4125833,59.3998838 13.43325,59.4125505 C13.45325,59.4252171 13.4329167,59.4208838 13.37225,59.3995505 C13.3115833,59.3788838 13.2479167,59.3508838 13.18125,59.3155505 C13.11525,59.2802171 13.08425,59.2618838 13.08825,59.2605505 C13.09225,59.2592171 13.09525,59.2608838 13.09725,59.2655505 C13.09925,59.2702171 13.0745833,59.2378838 13.02325,59.1685505 C12.9719167,59.0998838 12.92125,59.0328838 12.87125,58.9675505 C12.82125,58.9022171 12.7919167,58.8638838 12.78325,58.8525505 C12.7739167,58.8418838 12.7585833,58.8225505 12.73725,58.7945505 C12.7159167,58.7672171 12.7025833,58.7488838 12.69725,58.7395505 C12.69125,58.7308838 12.6879167,58.7285505 12.68725,58.7325505 C12.6859167,58.7365505 12.6829167,58.7248838 12.67825,58.6975505 C12.6729167,58.6708838 12.63725,58.5955505 12.57125,58.4715505 C12.5045833,58.3468838 12.4485833,58.2428838 12.40325,58.1595505 C12.3579167,58.0755505 12.30325,58.0328838 12.23925,58.0315505 C12.1759167,58.0302171 12.14525,58.0282171 12.14725,58.0255505 C12.1499167,58.0228838 12.1465833,58.0222171 12.13725,58.0235505 C12.1279167,58.0255505 12.1029167,58.0195505 12.06225,58.0055505 C12.0215833,57.9915505 11.98025,57.9672171 11.93825,57.9325505 C11.8955833,57.8978838 11.8359167,57.8592171 11.75925,57.8165505 C11.6825833,57.7738838 11.6299167,57.7458838 11.60125,57.7325505 C11.57325,57.7192171 11.5585833,57.7118838 11.55725,57.7105505 C11.5559167,57.7092171 11.5529167,57.7082171 11.54825,57.7075505 C11.5435833,57.7075505 11.52125,57.7018838 11.48125,57.6905505 C11.4405833,57.6798838 11.4025833,57.6702171 11.36725,57.6615505 C11.3325833,57.6528838 11.3145833,57.6505505 11.31325,57.6545505 C11.3119167,57.6592171 11.31725,57.6632171 11.32925,57.6665505 C11.34125,57.6705505 11.2599167,57.6572171 11.08525,57.6265505 C10.9105833,57.5952171 10.7629167,57.5915505 10.64225,57.6155505 C10.52225,57.6388838 10.4365833,57.6682171 10.38525,57.7035505 C10.3339167,57.7388838 10.2999167,57.7618838 10.28325,57.7725505 C10.2659167,57.7832171 10.2219167,57.8102171 10.15125,57.8535505 C10.0799167,57.8968838 10.0459167,57.9172171 10.04925,57.9145505 C10.0519167,57.9118838 10.0485833,57.9108838 10.03925,57.9115505 C10.0299167,57.9128838 10.02125,57.9242171 10.01325,57.9455505 C10.0045833,57.9668838 9.94291667,58.0368838 9.82825,58.1555505 C9.71358333,58.2735505 9.61858333,58.3582171 9.54325,58.4095505 C9.46858333,58.4602171 9.40491667,58.4885505 9.35225,58.4945505 C9.29891667,58.4998838 9.26658333,58.5052171 9.25525,58.5105505 C9.24391667,58.5152171 9.23358333,58.5205505 9.22425,58.5265505 C9.21491667,58.5318838 9.21291667,58.5312171 9.21825,58.5245505 C9.22358333,58.5172171 9.20825,58.5272171 9.17225,58.5545505 C9.13625,58.5818838 9.09825,58.6162171 9.05825,58.6575505 C9.01758333,58.6995505 8.98958333,58.7238838 8.97425,58.7305505 C8.95891667,58.7372171 8.92858333,58.7475505 8.88325,58.7615505 C8.83791667,58.7755505 8.79191667,58.7858838 8.74525,58.7925505 C8.69791667,58.7992171 8.66125,58.8022171 8.63525,58.8015505 C8.60925,58.8015505 8.60158333,58.8035505 8.61225,58.8075505 C8.62291667,58.8115505 8.60525,58.8018838 8.55925,58.7785505 C8.51325,58.7552171 8.12458333,58.9255505 7.39325,59.2895505 C7.37925,59.2702171 7.38458333,59.1812171 7.40925,59.0225505 C7.43391667,58.8638838 7.44691667,58.7162171 7.44825,58.5795505 C7.44891667,58.4428838 7.44891667,58.3568838 7.44825,58.3215505 C7.44691667,58.2868838 7.44525,58.2685505 7.44325,58.2665505 C7.44125,58.2645505 7.41725,58.2252171 7.37125,58.1485505 C7.32525,58.0718838 7.30658333,58.0462171 7.31525,58.0715505 C7.19991667,58.0508838 7.13825,58.0402171 7.13025,58.0395505 C7.12225,58.0382171 7.12325,58.0398838 7.13325,58.0445505 C6.99858333,58.0445505 6.95191667,58.0445505 6.99325,58.0445505 C6.88258333,58.0445505 6.82391667,58.0445505 6.81725,58.0445505 C6.81058333,58.0445505 6.80458333,58.0465505 6.79925,58.0505505 C6.79325,58.0545505 6.79925,58.0545505 6.81725,58.0505505 C6.83458333,58.0472171 6.75525,58.0415505 6.57925,58.0335505 C6.40258333,58.0255505 6.23691667,58.0408838 6.08225,58.0795505 C5.92691667,58.1175505 5.79391667,58.1595505 5.68325,58.2055505 C5.57258333,58.2522171 5.49691667,58.2795505 5.45625,58.2875505 C5.41491667,58.2962171 5.36291667,58.3038838 5.30025,58.3105505 C5.23758333,58.3178838 5.21691667,58.3192171 5.23825,58.3145505 C5.25958333,58.3098838 5.22525,58.3155505 5.13525,58.3315505 C5.04591667,58.3482171 4.92525,58.3845505 4.77325,58.4405505 C4.62125,58.4965505 4.49291667,58.5382171 4.38825,58.5655505 C4.28291667,58.5928838 4.20591667,58.6015505 4.15725,58.5915505 C4.10858333,58.5815505 4.05558333,58.5695505 3.99825,58.5555505 C3.94158333,58.5408838 3.90691667,58.5318838 3.89425,58.5285505 C3.88225,58.5252171 3.87625,58.5222171 3.87625,58.5195505 C3.87558333,58.5168838 3.82125,58.5062171 3.71325,58.4875505 C3.60525,58.4688838 3.52125,58.4535505 3.46125,58.4415505 C3.40058333,58.4288838 3.35291667,58.4162171 3.31825,58.4035505 C3.28358333,58.3902171 3.26191667,58.3805505 3.25325,58.3745505 C3.24458333,58.3685505 3.23291667,58.3628838 3.21825,58.3575505 C3.20425,58.3515505 3.21391667,58.3598838 3.24725,58.3825505 C3.28125,58.4052171 3.20691667,58.3678838 3.02425,58.2705505 C2.84158333,58.1732171 2.68258333,58.0922171 2.54725,58.0275505 C2.41191667,57.9628838 2.32358333,57.9125505 2.28225,57.8765505 C2.24025,57.8405505 2.20791667,57.8095505 2.18525,57.7835505 C2.16258333,57.7575505 2.15525,57.7408838 2.16325,57.7335505 C2.17125,57.7262171 2.17225,57.7298838 2.16625,57.7445505 C2.15958333,57.7592171 2.15491667,57.6952171 2.15225,57.5525505 C2.14958333,57.4098838 2.15058333,57.2918838 2.15525,57.1985505 C2.15991667,57.1058838 2.16291667,56.9842171 2.16425,56.8335505 C2.16625,56.6828838 2.15791667,56.5885505 2.13925,56.5505505 C2.12058333,56.5125505 2.09858333,56.4575505 2.07325,56.3855505 C2.04791667,56.3142171 2.03391667,56.2482171 2.03125,56.1875505 C2.02791667,56.1275505 2.02725,56.0995505 2.02925,56.1035505 C2.03191667,56.1075505 2.03158333,56.1128838 2.02825,56.1195505 C2.02425,56.1268838 2.02258333,56.1065505 2.02310714,56.0585505 C2.02391667,56.0098838 2.03058333,55.9458838 2.04325,55.8665505 C2.05525,55.7872171 2.06125,55.7545505 2.06125,55.7685505 C2.06058333,55.7825505 2.06025,55.7638838 2.06025,55.7125505 C2.06025,55.6605505 2.06025,55.6352171 2.06025,55.6365505 C2.06025,55.6372171 2.06025,55.6308838 2.06025,55.6175505 C2.06025,55.6048838 2.06025,55.5832171 2.06025,55.5525505 C2.06025,55.5218838 2.06158333,55.4748838 2.06425,55.4115505 C2.06691667,55.3482171 2.06391667,55.3132171 2.05525,55.3065505 C2.04725,55.3005505 2.04891667,55.2532171 2.06025,55.1645505 C2.07225,55.0758838 2.08858333,55.0112171 2.10925,54.9705505 C2.12991667,54.9298838 2.15525,54.8842171 2.18525,54.8335505 C2.21458333,54.7822171 2.24025,54.7382171 2.26225,54.7015505 C2.28358333,54.6648838 2.29158333,54.6512171 2.28625,54.6605505 C2.28025,54.6698838 2.29058333,54.6538838 2.31725,54.6125505 C2.34391667,54.5712171 2.41125,54.4625505 2.51925,54.2865505 C2.62791667,54.1098838 2.82625,53.8928838 3.11425,53.6355505 C3.40158333,53.3782171 3.64591667,53.1468838 3.84725,52.9415505 C4.04791667,52.7355505 4.19525,52.5598838 4.28925,52.4145505 C4.38391667,52.2698838 4.48625,52.1205505 4.59625,51.9665505 C4.70625,51.8118838 4.80158333,51.6908838 4.88225,51.6035505 C4.96358333,51.5162171 5.05358333,51.4202171 5.15225,51.3155505 C5.25091667,51.2115505 5.34191667,51.1115505 5.42525,51.0155505 C5.50925,50.9195505 5.57858333,50.8372171 5.63325,50.7685505 C5.68791667,50.7005505 5.78191667,50.6148838 5.91525,50.5115505 C6.04791667,50.4075505 6.17191667,50.3208838 6.28725,50.2515505 C6.40191667,50.1822171 6.53891667,50.0535505 6.69825,49.8655505 C6.85758333,49.6775505 7.02358333,49.4508838 7.19625,49.1855505 C7.36891667,48.9208838 7.49325,48.7335505 7.56925,48.6235505 C7.64525,48.5142171 7.70658333,48.4295505 7.75325,48.3695505 C7.79991667,48.3102171 7.86458333,48.2228838 7.94725,48.1075505 C8.03058333,47.9928838 8.14225,47.7945505 8.28225,47.5125505 C8.42225,47.2298838 8.53491667,47.0172171 8.62025,46.8745505 C8.70491667,46.7312171 8.75091667,46.6515505 8.75825,46.6355505 C8.76558333,46.6195505 8.81391667,46.5475505 8.90325,46.4195505 C8.99191667,46.2922171 9.07325,46.1738838 9.14725,46.0645505 C9.22191667,45.9552171 9.30158333,45.8358838 9.38625,45.7065505 C9.47091667,45.5772171 9.53691667,45.4828838 9.58425,45.4235505 C9.63158333,45.3648838 9.70658333,45.2838838 9.80925,45.1805505 C9.91125,45.0772171 10.0059167,44.9812171 10.09325,44.8925505 C10.1799167,44.8038838 10.2419167,44.7492171 10.27925,44.7285505 C10.31725,44.7078838 10.3665833,44.6482171 10.42725,44.5495505 C10.4879167,44.4508838 10.53425,44.3622171 10.56625,44.2835505 C10.59825,44.2042171 10.6329167,44.1355505 10.67025,44.0775505 C10.7069167,44.0188838 10.7389167,43.9675505 10.76625,43.9235505 C10.7935833,43.8788838 10.8029167,43.8615505 10.79425,43.8715505 C10.7855833,43.8822171 10.78425,43.8822171 10.79025,43.8715505 C10.7955833,43.8615505 10.80525,43.8305505 10.81925,43.7785505 C10.8325833,43.7265505 10.83525,43.7085505 10.82725,43.7245505 C10.81925,43.7405505 10.8159167,43.7385505 10.81725,43.7185505 C10.8179167,43.6978838 10.8155833,43.6748838 10.81025,43.6495505 C10.80425,43.6248838 10.7985833,43.5838838 10.79325,43.5265505 C10.7879167,43.4692171 10.79025,43.4052171 10.80025,43.3345505 C10.8095833,43.2638838 10.8089167,43.2485505 10.79825,43.2885505 C10.7869167,43.3278838 10.7965833,43.2458838 10.82725,43.0425505 C10.8265833,43.0378838 10.7499167,43.0408838 10.59725,43.0515505 C10.4445833,43.0628838 10.32825,43.0872171 10.24825,43.1245505 C10.1675833,43.1618838 10.1145833,43.1905505 10.08925,43.2105505 C10.06325,43.2312171 10.0479167,43.2435505 10.04325,43.2475505 C10.0385833,43.2508838 10.03925,43.2452171 10.04525,43.2305505 C10.0505833,43.2158838 10.0065833,43.2712171 9.91325,43.3965505 C9.91658333,43.3972171 9.93425,43.3988838 9.96625,43.4015505 C9.95891667,43.4495505 9.93958333,43.3998838 9.90825,43.2525505 C9.90491667,43.2525505 9.89858333,43.2512171 9.88925,43.2485505 L9.88925,43.2435505 C9.79991667,43.2415505 9.75225,43.2392171 9.74625,43.2365505 C9.74025,43.2338838 9.72458333,43.2295505 9.69925,43.2235505 C8.11725,42.7862171 6.70691667,42.2762171 5.46825,41.6935505 Z" id="STROKE_09661d14-4bdf-47bd-956a-28ccf8b67a4a" stroke="#FFB352" stroke-width="0.5" fill="#FFB352" fill-rule="nonzero"></path>
        <path d="M49.45725,13.7925505 C49.1145833,14.1472171 48.8359167,14.4598838 48.62125,14.7305505 C48.4065833,15.0005505 48.2845833,15.1505505 48.25525,15.1805505" id="STROKE_4ade9aa0-a695-48e2-87cf-e808ea9196d6" stroke="#171612" stroke-width="1.7"></path>
        <path d="M48.56525,15.0465505 C48.5965833,15.0072171 48.60825,15.0012171 48.60025,15.0285505 C48.59225,15.0558838 48.6079167,15.0188838 48.64725,14.9175505 C48.6859167,14.8168838 48.7135833,14.7205505 48.73025,14.6285505 C48.7469167,14.5372171 48.7565833,14.4885505 48.75925,14.4825505 C48.7619167,14.4772171 48.7605833,14.4835505 48.75525,14.5015505 C48.74925,14.5195505 48.7709167,14.4485505 48.82025,14.2885505 C48.8695833,14.1285505 48.90825,13.9992171 48.93625,13.9005505 C48.96425,13.8018838 48.9865833,13.7235505 49.00325,13.6655505 C49.01925,13.6075505 49.0359167,13.5532171 49.05325,13.5025505 C49.0699167,13.4525505 49.07825,13.4168838 49.07825,13.3955505 C49.0775833,13.3742171 49.0755833,13.3692171 49.07225,13.3805505 C49.06825,13.3918838 49.1119167,13.1268838 49.20325,12.5855505 C49.2939167,12.0442171 49.3695833,11.5865505 49.43025,11.2125505 C49.4915833,10.8378838 49.51425,10.5785505 49.49825,10.4345505 C49.48225,10.2905505 49.45725,10.1542171 49.42325,10.0255505 C49.3899167,9.89688381 49.3405833,9.76321714 49.27525,9.62455048 C49.2105833,9.48521714 49.1865833,9.39655048 49.20325,9.35855048 C49.2199167,9.32055048 49.1299167,9.16521714 48.93325,8.89255048 C48.7365833,8.61988381 48.5569167,8.40855048 48.39425,8.25855048 C48.2315833,8.10921714 48.1245833,8.01321714 48.07325,7.97055048 C48.0225833,7.92721714 47.94625,7.86788381 47.84425,7.79255048 C47.7415833,7.71655048 47.60625,7.61688381 47.43825,7.49355048 C47.27025,7.37021714 47.1045833,7.22521714 46.94125,7.05855048 C46.7785833,6.89255048 46.5889167,6.69555048 46.37225,6.46755048 C46.1549167,6.23888381 45.9545833,6.04021714 45.77125,5.87155048 C45.5879167,5.70221714 45.4409167,5.56955048 45.33025,5.47355048 C45.22025,5.37755048 45.1259167,5.29655048 45.04725,5.23055048 C44.9679167,5.16455048 44.86925,5.09355048 44.75125,5.01755048 C44.63325,4.94221714 44.55825,4.89355048 44.52625,4.87155048 C44.49425,4.84955048 44.4549167,4.82655048 44.40825,4.80255048 C44.3615833,4.77855048 44.2749167,4.71755048 44.14825,4.61955048 C44.02225,4.52155048 43.6925833,4.33555048 43.15925,4.06155048 C42.6259167,3.78821714 42.1375833,3.57588381 41.69425,3.42455048 C41.2515833,3.27321714 40.8689167,3.14155048 40.54625,3.02955048 C40.2235833,2.91755048 39.8109167,2.77555048 39.30825,2.60355048 C38.8049167,2.43221714 38.3259167,2.32088381 37.87125,2.26955048 C37.41725,2.21888381 37.0239167,2.17321714 36.69125,2.13255048 C36.3585833,2.09188381 36.10525,2.05521714 35.93125,2.02255048 C35.7579167,1.98921714 35.6069167,1.95888381 35.47825,1.93155048 C35.3495833,1.90488381 35.2729167,1.89155048 35.24825,1.89155048 C35.2235833,1.89088381 35.1895833,1.88988381 35.14625,1.88855048 C35.1035833,1.88655048 35.05025,1.88588381 34.98625,1.88655048 C34.9229167,1.88721714 34.90025,1.88721714 34.91825,1.88655048 C34.9369167,1.88655048 34.93525,1.88555048 34.91325,1.88355048 C34.89125,1.88221714 34.86125,1.88621714 34.82325,1.89555048 C34.7859167,1.90488381 34.5839167,1.89821714 34.21725,1.87555048 C33.8505833,1.85288381 33.5519167,1.83655048 33.32125,1.82655048 C33.0905833,1.81655048 32.9455833,1.82121714 32.88625,1.84055048 C32.82625,1.86055048 32.78125,1.87788381 32.75125,1.89255048 C32.7205833,1.90721714 32.6939167,1.91921714 32.67125,1.92855048 C32.6485833,1.93788381 32.6149167,1.95321714 32.57025,1.97455048 C32.52625,1.99521714 32.4689167,2.01988381 32.39825,2.04855048 C32.3275833,2.07721714 32.2805833,2.09655048 32.25725,2.10655048 C32.2345833,2.11588381 32.22125,2.12121714 32.21725,2.12255048 C32.2125833,2.12455048 32.17525,2.14155048 32.10525,2.17355048 C32.0345833,2.20488381 31.9965833,2.22355048 31.99125,2.22955048 C31.9865833,2.23488381 31.9839167,2.23488381 31.98325,2.22955048 C31.9825833,2.22421714 31.92525,2.26388381 31.81125,2.34855048 C31.69725,2.43321714 31.5965833,2.50655048 31.50925,2.56855048 C31.4219167,2.63055048 31.34125,2.68955048 31.26725,2.74555048 C31.1925833,2.80155048 31.14825,2.83788381 31.13425,2.85455048 C31.1195833,2.87121714 31.10525,2.88721714 31.09125,2.90255048 C31.07725,2.91721714 31.0339167,2.96521714 30.96125,3.04655048 C30.8885833,3.12788381 30.8589167,3.16255048 30.87225,3.15055048 C30.88625,3.13855048 30.8865833,3.14121714 30.87325,3.15855048 C30.85925,3.17521714 30.78525,3.23088381 30.65125,3.32555048 C30.5165833,3.42021714 30.3965833,3.52521714 30.29125,3.64055048 C30.18525,3.75588381 30.1115833,3.84255048 30.07025,3.90055048 C30.02825,3.95788381 30.0085833,3.97588381 30.01125,3.95455048 C30.0139167,3.93321714 30.0065833,3.92655048 29.98925,3.93455048 C29.9719167,3.94255048 29.9415833,3.94655048 29.89825,3.94655048 C29.85425,3.94721714 29.8289167,3.94855048 29.82225,3.95055048 C29.81625,3.95321714 29.8225833,3.95255048 29.84125,3.94855048 C29.8599167,3.94455048 29.80425,3.95288381 29.67425,3.97355048 C29.54425,3.99355048 29.4619167,4.01121714 29.42725,4.02655048" id="STROKE_a1dc2d66-22c2-42e4-abc0-2be6ad981087" stroke="#171612" stroke-width="1.7"></path>
        <path d="M29.57625,4.27855048 C29.5815833,4.27855048 29.5869167,4.27855048 29.59225,4.27855048 C29.5895833,4.26988381 29.5985833,4.26721714 29.61925,4.27055048 C29.6399167,4.27321714 29.6085833,4.24321714 29.52525,4.18055048 C29.4419167,4.11721714 29.3459167,4.11121714 29.23725,4.16255048 C29.12925,4.21388381 29.0359167,4.28188381 28.95725,4.36655048 C28.87925,4.45055048 28.8009167,4.53355048 28.72225,4.61555048 C28.64425,4.69688381 28.5789167,4.76855048 28.52625,4.83055048 C28.47425,4.89255048 28.3085833,5.08521714 28.02925,5.40855048 C27.7505833,5.73255048 27.46625,6.09788381 27.17625,6.50455048 C26.88625,6.91121714 26.6845833,7.22288381 26.57125,7.43955048 C26.45725,7.65555048 26.22525,8.04455048 25.87525,8.60655048 C25.52525,9.16855048 25.24525,9.65755048 25.03525,10.0735505 C24.8259167,10.4895505 24.6395833,10.8158838 24.47625,11.0525505 C24.3129167,11.2898838 24.1375833,11.5955505 23.95025,11.9695505 C23.7629167,12.3435505 23.55525,12.7512171 23.32725,13.1925505 C23.0999167,13.6338838 22.9329167,13.9445505 22.82625,14.1245505 C22.7195833,14.3045505 22.59525,14.5542171 22.45325,14.8735505 C22.31125,15.1922171 22.19925,15.4242171 22.11725,15.5695505 C22.03525,15.7155505 21.9005833,16.0508838 21.71325,16.5755505 C21.5259167,17.0995505 21.3615833,17.5355505 21.22025,17.8835505 C21.0795833,18.2308838 20.9335833,18.5638838 20.78225,18.8825505 C20.6309167,19.2005505 20.49825,19.5042171 20.38425,19.7935505 C20.27025,20.0835505 20.1679167,20.3452171 20.07725,20.5785505 C19.9865833,20.8125505 19.9209167,20.9918838 19.88025,21.1165505 C19.84025,21.2412171 19.8075833,21.3375505 19.78225,21.4055505 C19.7575833,21.4728838 19.7325833,21.5475505 19.70725,21.6295505 C19.6819167,21.7115505 19.6795833,21.7198838 19.70025,21.6545505 C19.7209167,21.5892171 19.6665833,21.7532171 19.53725,22.1465505 C19.4085833,22.5405505 19.3085833,22.8495505 19.23725,23.0735505 C19.16525,23.2968838 19.1069167,23.4888838 19.06225,23.6495505 C19.0169167,23.8108838 18.9779167,23.9508838 18.94525,24.0695505 C18.9125833,24.1875505 18.88725,24.2875505 18.86925,24.3695505 C18.8519167,24.4508838 18.8245833,24.5582171 18.78725,24.6915505 C18.7499167,24.8248838 18.7119167,24.9472171 18.67325,25.0585505 C18.6339167,25.1698838 18.5935833,25.2745505 18.55225,25.3725505 C18.5115833,25.4712171 18.4729167,25.5595505 18.43625,25.6375505 C18.40025,25.7155505 18.3379167,25.8765505 18.24925,26.1205505 C18.16125,26.3652171 18.10425,26.5095505 18.07825,26.5535505" id="STROKE_e98a0bc8-ce67-462d-9ba0-9efc40a73054" stroke="#171612" stroke-width="1.7"></path>
        <path d="M49.14125,14.4275505 C49.16725,14.4128838 49.1445833,14.2605505 49.07325,13.9705505 C49.04525,14.0198838 48.8725833,14.4592171 48.55525,15.2885505 C48.2379167,16.1172171 47.8829167,17.0695505 47.49025,18.1455505 C47.09825,19.2222171 46.81225,20.0422171 46.63225,20.6055505 C46.45225,21.1688838 46.1645833,21.7745505 45.76925,22.4225505 C45.3739167,23.0712171 45.03225,23.6842171 44.74425,24.2615505 C44.4569167,24.8395505 44.2705833,25.2648838 44.18525,25.5375505 C44.1005833,25.8108838 43.92625,26.1722171 43.66225,26.6215505 C43.39825,27.0715505 43.07425,27.5442171 42.69025,28.0395505 C42.30625,28.5348838 42.02825,28.9505505 41.85625,29.2865505 C41.68425,29.6218838 41.4289167,30.0728838 41.09025,30.6395505 C40.7515833,31.2055505 40.3995833,31.7462171 40.03425,32.2615505 C39.6689167,32.7762171 39.36625,33.2142171 39.12625,33.5755505 C38.88625,33.9362171 38.5825833,34.3402171 38.21525,34.7875505 C37.8479167,35.2348838 37.5459167,35.6155505 37.30925,35.9295505 C37.0719167,36.2442171 36.8695833,36.5195505 36.70225,36.7555505 C36.5349167,36.9915505 36.3605833,37.1932171 36.17925,37.3605505 C35.99725,37.5278838 35.6919167,37.8815505 35.26325,38.4215505 C34.8345833,38.9608838 34.4939167,39.3942171 34.24125,39.7215505 C33.98925,40.0495505 33.77925,40.3235505 33.61125,40.5435505 C33.4425833,40.7642171 33.2675833,40.9608838 33.08625,41.1335505 C32.9049167,41.3068838 32.6819167,41.5635505 32.41725,41.9035505 C32.1525833,42.2435505 31.8399167,42.5962171 31.47925,42.9615505 C31.1185833,43.3275505 30.8355833,43.6278838 30.63025,43.8625505 C30.42425,44.0965505 30.26225,44.2642171 30.14425,44.3655505 C30.0255833,44.4662171 29.9409167,44.5598838 29.89025,44.6465505 C29.84025,44.7332171 29.8085833,44.7832171 29.79525,44.7965505 C29.7819167,44.8098838 29.7769167,44.8168838 29.78025,44.8175505 C29.7835833,44.8182171 29.7619167,44.8602171 29.71525,44.9435505 C29.6679167,45.0262171 29.6375833,45.0792171 29.62425,45.1025505 C29.6109167,45.1258838 29.59425,45.1452171 29.57425,45.1605505 C29.5549167,45.1752171 29.5569167,45.1732171 29.58025,45.1545505 C29.60425,45.1358838 29.6099167,45.1318838 29.59725,45.1425505 C29.5839167,45.1525505 29.5545833,45.1762171 29.50925,45.2135505 C29.4645833,45.2515505 29.41225,45.2948838 29.35225,45.3435505 C29.2929167,45.3915505 29.2715833,45.4102171 29.28825,45.3995505 C29.2055833,45.4762171 29.1435833,45.5462171 29.10225,45.6095505 C29.0609167,45.6728838 29.0245833,45.7338838 28.99325,45.7925505 C28.9625833,45.8505505 28.93525,45.8945505 28.91125,45.9245505" id="STROKE_a8581d77-fa22-4a57-aebd-d75af9993386" stroke="#171612" stroke-width="1.7"></path>
        <path d="M18.62725,26.4355505 C18.55325,26.5428838 18.7209167,26.1498838 19.13025,25.2565505 C19.13825,25.1225505 18.93525,25.3265505 18.52125,25.8685505 C18.10725,26.4112171 17.6989167,27.2488838 17.29625,28.3815505 C16.8929167,29.5142171 16.5709167,30.4298838 16.33025,31.1285505 C16.0889167,31.8272171 15.9189167,32.6612171 15.82025,33.6305505 C15.7215833,34.5998838 15.5729167,35.5845505 15.37425,36.5845505 C15.37025,36.5798838 15.3535833,36.5455505 15.32425,36.4815505 C15.3149167,36.4815505 15.29825,36.4815505 15.27425,36.4815505 C15.27425,36.4915505 15.2675833,36.5138838 15.25425,36.5485505 C15.2415833,36.5832171 15.2225833,36.6148838 15.19725,36.6435505" id="STROKE_bb1d71f2-3c2c-432a-8742-5ac975fa37c9" stroke="#171612" stroke-width="1.7"></path>
        <path d="M14.97525,37.3385505 C14.9805833,37.3385505 14.9915833,37.3362171 15.00825,37.3315505 C14.9369167,37.1355505 14.90925,37.0738838 14.92525,37.1465505 C14.9339167,37.1545505 14.7985833,37.0758838 14.51925,36.9105505 C14.23925,36.7452171 13.94725,36.6372171 13.64325,36.5865505 C13.3399167,36.5365505 13.07925,36.5115505 12.86125,36.5115505 C12.6439167,36.5122171 12.4725833,36.5072171 12.34725,36.4965505 C12.22125,36.4852171 12.0139167,36.4862171 11.72525,36.4995505 C11.4365833,36.5122171 11.1689167,36.5768838 10.92225,36.6935505 C10.6749167,36.8095505 10.5049167,36.8858838 10.41225,36.9225505 C10.3195833,36.9585505 10.1969167,37.0225505 10.04425,37.1145505 C9.89091667,37.2058838 9.72191667,37.2872171 9.53725,37.3585505 C9.35258333,37.4292171 9.15858333,37.4715505 8.95525,37.4855505 C8.75191667,37.4988838 8.55891667,37.5075505 8.37625,37.5115505 C8.19358333,37.5162171 8.07825,37.5235505 8.03025,37.5335505 C7.98225,37.5428838 7.97625,37.5515505 8.01225,37.5595505 C7.98025,37.5968838 7.71491667,37.9108838 7.21625,38.5015505 C6.71758333,39.0928838 6.31391667,39.5832171 6.00525,39.9725505 C5.69658333,40.3618838 5.49225,40.6475505 5.39225,40.8295505 C5.29291667,41.0122171 5.21958333,41.1608838 5.17225,41.2755505 C5.12491667,41.3902171 5.06925,41.6022171 5.00525,41.9115505 C5.00525,41.9068838 5.02758333,41.8945505 5.07225,41.8745505 C5.11625,41.8545505 5.15291667,41.8322171 5.18225,41.8075505" id="STROKE_93b079f6-fa9b-4ad1-a5c2-bc37c98ba881" stroke="#171612" stroke-width="1.7"></path>
        <path d="M6.02525,42.3985505 C5.87125,42.3885505 5.79925,42.3805505 5.80925,42.3745505 C5.58458333,42.3345505 5.50791667,42.3202171 5.57925,42.3315505 C5.45458333,42.3088838 5.39291667,42.3012171 5.39425,42.3085505 C5.37558333,42.3085505 5.35891667,42.3085505 5.34425,42.3085505 C5.45091667,42.4545505 5.51258333,42.5138838 5.52925,42.4865505 C5.42125,42.4718838 5.57425,42.5328838 5.98825,42.6695505 C6.40225,42.8062171 6.88258333,42.8828838 7.42925,42.8995505 C7.97658333,42.9162171 8.55058333,42.9782171 9.15125,43.0855505 C9.75125,43.1935505 10.0779167,43.2548838 10.13125,43.2695505" id="STROKE_7f1ad327-5389-4fbc-bd8f-4e3cf9739ce1" stroke="#171612" stroke-width="1.7"></path>
        <path d="M10.90125,43.9925505 C11.0105833,43.9005505 10.8915833,43.8192171 10.54425,43.7485505 C10.50225,43.8192171 10.21325,44.2445505 9.67725,45.0245505 C9.14058333,45.8052171 8.71625,46.4325505 8.40425,46.9065505 C8.09225,47.3805505 7.87358333,47.7485505 7.74825,48.0105505 C7.62291667,48.2732171 7.52425,48.4818838 7.45225,48.6365505 C7.38025,48.7905505 7.26858333,48.9928838 7.11725,49.2435505 C7.12658333,49.2435505 7.13591667,49.2435505 7.14525,49.2435505" id="STROKE_c4c06de5-aea4-4178-a093-277fdc6dda78" stroke="#171612" stroke-width="1.7"></path>
        <path d="M7.95925,48.0025505 C7.92658333,48.0305505 7.85691667,48.0242171 7.75025,47.9835505 C7.64291667,47.9435505 7.53725,47.9945505 7.43325,48.1365505 C7.32991667,48.2785505 7.25625,48.4135505 7.21225,48.5415505 C7.16825,48.6702171 7.12791667,48.7618838 7.09125,48.8165505 C7.05525,48.8718838 7.00525,48.9738838 6.94125,49.1225505 C6.87725,49.2712171 6.69158333,49.5795505 6.38425,50.0475505 C6.07691667,50.5155505 5.76325,50.9088838 5.44325,51.2275505 C5.12391667,51.5462171 4.85591667,51.7708838 4.63925,51.9015505 C4.42325,52.0315505 4.28358333,52.1558838 4.22025,52.2745505 C4.15691667,52.3925505 4.09591667,52.4952171 4.03725,52.5825505 C3.97858333,52.6698838 3.84958333,52.8385505 3.65025,53.0885505 C3.45158333,53.3385505 2.94291667,53.8322171 2.12425,54.5695505 C2.12425,54.5642171 2.12425,54.5538838 2.12425,54.5385505 C2.09491667,54.5705505 2.07691667,54.5902171 2.07025,54.5975505 C2.06425,54.6055505 2.05458333,54.6195505 2.04125,54.6395505 C2.02725,54.6602171 2.01058333,54.6858838 1.99125,54.7165505 C1.97191667,54.7472171 1.95191667,54.7848838 1.93125,54.8295505 C1.91058333,54.8735505 1.87458333,54.9528838 1.82325,55.0675505 C1.77191667,55.1815505 1.72591667,55.2942171 1.68525,55.4055505 C1.64391667,55.5168838 1.58291667,55.6382171 1.50225,55.7695505 C1.42091667,55.9008838 1.34658333,56.0985505 1.27925,56.3625505 C1.21258333,56.6265505 1.18158333,56.8288838 1.18625,56.9695505 C1.19091667,57.1095505 1.20658333,57.2225505 1.23325,57.3085505 C1.25991667,57.3938838 1.29025,57.4578838 1.32425,57.5005505 C1.35891667,57.5425505 1.37458333,57.5638838 1.37125,57.5645505 C1.36791667,57.5645505 1.36658333,57.5512171 1.36725,57.5245505 C1.36791667,57.4972171 1.51958333,57.6378838 1.82225,57.9465505 C2.12425,58.2552171 2.32191667,58.5405505 2.41525,58.8025505 C2.50858333,59.0645505 2.86991667,59.2395505 3.49925,59.3275505 C4.12858333,59.4155505 4.47758333,59.4622171 4.54625,59.4675505" id="STROKE_b938bd08-393f-47f2-9622-3230e1c4bccd" stroke="#171612" stroke-width="1.7"></path>
        <path d="M4.08825,59.1615505 C3.67425,59.3028838 3.54425,59.3558838 3.69825,59.3205505 C3.68891667,59.3445505 3.68425,59.4598838 3.68425,59.6665505 C4.22358333,59.6852171 4.41525,59.6908838 4.25925,59.6835505 C4.91191667,59.6282171 5.13858333,59.5995505 4.93925,59.5975505 C5.19658333,59.4535505 5.33825,59.3722171 5.36425,59.3535505 C5.39025,59.3342171 5.40591667,59.3142171 5.41125,59.2935505 C5.41591667,59.2722171 5.46425,59.2555505 5.55625,59.2435505 C5.64825,59.2315505 6.06791667,58.8465505 6.81525,58.0885505 C7.56258333,57.3298838 8.24791667,56.5965505 8.87125,55.8885505 C9.49525,55.1798838 10.0285833,54.6065505 10.47125,54.1685505 C10.9145833,53.7305505 11.2249167,53.4218838 11.40225,53.2425505 C11.58025,53.0632171 11.6565833,52.9848838 11.63125,53.0075505 C11.6059167,53.0295505 11.63825,52.9722171 11.72825,52.8355505 C11.8189167,52.6988838 11.8859167,52.5882171 11.92925,52.5035505 C11.9725833,52.4188838 12.0115833,52.3495505 12.04625,52.2955505 C12.0809167,52.2422171 12.11825,52.1785505 12.15825,52.1045505 C12.1989167,52.0298838 12.2925833,51.8598838 12.43925,51.5945505 C12.5859167,51.3292171 12.6459167,51.2165505 12.61925,51.2565505 C12.5919167,51.2965505 12.59025,51.2995505 12.61425,51.2655505 C12.6389167,51.2315505 12.6489167,51.2168838 12.64425,51.2215505 C12.64025,51.2268838 12.6439167,51.2242171 12.65525,51.2135505 C12.66725,51.2022171 12.7409167,51.0955505 12.87625,50.8935505 C13.0115833,50.6915505 13.11125,50.5478838 13.17525,50.4625505 C13.2399167,50.3772171 13.2585833,50.3538838 13.23125,50.3925505 C13.2039167,50.4318838 13.19625,50.4405505 13.20825,50.4185505 C13.2209167,50.3958838 13.2565833,50.3345505 13.31525,50.2345505 C13.3739167,50.1338838 13.46025,49.9702171 13.57425,49.7435505 C13.6889167,49.5168838 13.7489167,49.3962171 13.75425,49.3815505 C13.7595833,49.3662171 13.79125,49.2902171 13.84925,49.1535505 C13.9065833,49.0162171 13.94625,48.9185505 13.96825,48.8605505 C13.99025,48.8018838 13.9965833,48.7835505 13.98725,48.8055505 C13.9779167,48.8268838 13.9755833,48.8302171 13.98025,48.8155505 C13.9849167,48.8015505 14.03225,48.6988838 14.12225,48.5075505 C14.2129167,48.3162171 14.2855833,48.1632171 14.34025,48.0485505 C14.3949167,47.9345505 14.4499167,47.8158838 14.50525,47.6925505 C14.56125,47.5698838 14.58925,47.5102171 14.58925,47.5135505 C14.5899167,47.5175505 14.59225,47.5148838 14.59625,47.5055505 C14.60025,47.4955505 14.6405833,47.4208838 14.71725,47.2815505 C14.7945833,47.1422171 14.8299167,47.0785505 14.82325,47.0905505 C14.81725,47.1018838 14.8105833,47.1088838 14.80325,47.1115505 C14.7965833,47.1135505 14.8149167,47.0848838 14.85825,47.0255505 C14.9015833,46.9662171 14.9825833,46.8915505 15.10125,46.8015505 C15.2205833,46.7108838 15.31525,46.6302171 15.38525,46.5595505" id="STROKE_19988ab5-ce14-4b67-9e59-dd4a1fc305be" stroke="#171612" stroke-width="1.7"></path>
        <path d="M7.01725,58.2895505 C7.04058333,58.3108838 7.02691667,58.3135505 6.97625,58.2975505 C6.92558333,58.2808838 6.92391667,58.2805505 6.97125,58.2965505 C7.01791667,58.3125505 6.92158333,58.2955505 6.68225,58.2455505 C6.44291667,58.1962171 6.22958333,58.1518838 6.04225,58.1125505 C5.85491667,58.0732171 5.76625,58.0638838 5.77625,58.0845505 C5.74158333,58.0845505 5.67658333,58.0845505 5.58125,58.0845505 C5.53058333,58.0972171 5.51425,58.1265505 5.53225,58.1725505 C5.54958333,58.2185505 5.57758333,58.2698838 5.61625,58.3265505 C5.65491667,58.3832171 5.71025,58.4595505 5.78225,58.5555505 C5.85425,58.6522171 5.87125,58.6808838 5.83325,58.6415505 C5.79458333,58.6022171 5.81991667,58.6268838 5.90925,58.7155505 C5.99791667,58.8035505 6.19825,58.9202171 6.51025,59.0655505 C6.82158333,59.2102171 7.05858333,59.3032171 7.22125,59.3445505 C7.38325,59.3858838 7.55391667,59.4125505 7.73325,59.4245505 C7.91191667,59.4365505 7.98558333,59.4302171 7.95425,59.4055505 C7.92291667,59.3808838 7.91158333,59.4068838 7.92025,59.4835505 C7.92891667,59.5602171 8.20391667,59.4905505 8.74525,59.2745505 C9.28658333,59.0578838 9.72825,58.7918838 10.07025,58.4765505 C10.4115833,58.1605505 10.62625,58.0045505 10.71425,58.0085505 C10.80225,58.0118838 11.0659167,57.8362171 11.50525,57.4815505 C11.9445833,57.1268838 12.3009167,56.8042171 12.57425,56.5135505 C12.8475833,56.2228838 13.0715833,56.0155505 13.24625,55.8915505 C13.42025,55.7675505 13.6529167,55.5945505 13.94425,55.3725505 C14.2349167,55.1498838 14.45425,54.9535505 14.60225,54.7835505 C14.7495833,54.6135505 14.81925,54.5305505 14.81125,54.5345505 C14.80325,54.5392171 14.7989167,54.5438838 14.79825,54.5485505 C14.7969167,54.5538838 14.78925,54.5662171 14.77525,54.5855505 C14.76125,54.6042171 14.8255833,54.5152171 14.96825,54.3185505 C15.1109167,54.1218838 15.2375833,53.9408838 15.34825,53.7755505 C15.4595833,53.6102171 15.58825,53.4315505 15.73425,53.2395505 C15.8795833,53.0475505 16.03125,52.8492171 16.18925,52.6445505 C16.34725,52.4405505 16.42725,52.3338838 16.42925,52.3245505 C16.43125,52.3158838 16.43225,52.3108838 16.43225,52.3095505 C16.43225,52.3082171 16.46325,52.2752171 16.52525,52.2105505 C16.5879167,52.1465505 16.6599167,52.0592171 16.74125,51.9485505 C16.8225833,51.8372171 16.9069167,51.7265505 16.99425,51.6165505 C17.0815833,51.5072171 17.1059167,51.4778838 17.06725,51.5285505 C17.0279167,51.5792171 17.0839167,51.4952171 17.23525,51.2765505 C17.38725,51.0572171 17.5435833,50.8495505 17.70425,50.6535505 C17.86425,50.4575505 17.98325,50.3145505 18.06125,50.2245505 C18.1385833,50.1345505 18.2185833,50.0392171 18.30125,49.9385505 C18.3845833,49.8385505 18.42025,49.7945505 18.40825,49.8065505 C18.39625,49.8185505 18.3889167,49.8272171 18.38625,49.8325505 C18.38425,49.8372171 18.38125,49.8438838 18.37725,49.8525505 C18.37325,49.8612171 18.4385833,49.7575505 18.57325,49.5415505 C18.7085833,49.3262171 18.92825,49.0602171 19.23225,48.7435505 C19.53625,48.4268838 19.7055833,48.2562171 19.74025,48.2315505" id="STROKE_8b4db7e4-78b9-4810-b7b3-8c48d1bc7a80" stroke="#171612" stroke-width="1.7"></path>
        <path d="M12.14225,59.7565505 C11.9829167,59.5392171 11.9005833,59.4345505 11.89525,59.4425505 C11.7379167,59.4772171 11.5635833,59.1058838 11.37225,58.3285505 C11.3935833,58.3125505 11.47825,58.4198838 11.62625,58.6505505 C11.7749167,58.8812171 11.8245833,58.9602171 11.77525,58.8875505 C11.7265833,58.8142171 11.7159167,58.7955505 11.74325,58.8315505 C11.7699167,58.8675505 11.7905833,58.8945505 11.80525,58.9125505 C11.8199167,58.9298838 11.8825833,58.9985505 11.99325,59.1185505 C12.10325,59.2378838 12.18225,59.3068838 12.23025,59.3255505 C12.2775833,59.3442171 12.25925,59.3432171 12.17525,59.3225505 C12.09125,59.3012171 12.24925,59.3835505 12.64925,59.5695505 C13.0485833,59.7555505 13.5835833,59.8522171 14.25425,59.8595505 C14.9249167,59.8668838 15.4995833,59.7928838 15.97825,59.6375505 C16.4569167,59.4822171 16.87725,59.2692171 17.23925,58.9985505 C17.6005833,58.7272171 17.9179167,58.4602171 18.19125,58.1975505 C18.4639167,57.9348838 18.6429167,57.7408838 18.72825,57.6155505 C18.8135833,57.4902171 19.0249167,57.2508838 19.36225,56.8975505 C19.70025,56.5442171 19.9989167,56.1258838 20.25825,55.6425505 C20.51825,55.1592171 20.7449167,54.6685505 20.93825,54.1705505 C21.1315833,53.6725505 21.2935833,53.2972171 21.42425,53.0445505 C21.5549167,52.7918838 21.63525,52.6438838 21.66525,52.6005505 C21.69525,52.5565505 21.7145833,52.5252171 21.72325,52.5065505 C21.7325833,52.4878838 21.7349167,52.4848838 21.73025,52.4975505 C21.7255833,52.5108838 21.7229167,52.5198838 21.72225,52.5245505 C21.72225,52.5285505 21.81925,52.3432171 22.01325,51.9685505 C22.20725,51.5938838 22.35625,51.2958838 22.46025,51.0745505 C22.5635833,50.8538838 22.6529167,50.6688838 22.72825,50.5195505 C22.8029167,50.3708838 22.8435833,50.2928838 22.85025,50.2855505 C22.8569167,50.2775505 22.8625833,50.2722171 22.86725,50.2695505 C22.8725833,50.2668838 22.9135833,50.1805505 22.99025,50.0105505 C23.0675833,49.8405505 23.2075833,49.6642171 23.41025,49.4815505 C23.6135833,49.2982171 23.73725,49.1835505 23.78125,49.1375505" id="STROKE_43a5955f-242f-41fc-aa62-65baa41625ca" stroke="#171612" stroke-width="1.7"></path>
        <path d="M19.46425,59.1615505 C18.9455833,58.8622171 18.7695833,58.7575505 18.93625,58.8475505 C18.9015833,58.8122171 18.8209167,58.7318838 18.69425,58.6065505 C18.96425,58.7885505 19.0979167,58.8738838 19.09525,58.8625505 C19.0919167,58.8518838 19.1129167,58.8528838 19.15825,58.8655505 C19.2029167,58.8775505 19.2985833,58.9262171 19.44525,59.0115505 C19.59125,59.0968838 19.95025,59.1868838 20.52225,59.2815505 C21.09425,59.3768838 21.6459167,59.3985505 22.17725,59.3465505 C22.7085833,59.2938838 23.1145833,59.2638838 23.39525,59.2565505 C23.6759167,59.2492171 24.06525,59.0898838 24.56325,58.7785505 C25.0619167,58.4672171 25.4795833,58.1658838 25.81625,57.8745505 C26.1529167,57.5838838 26.40225,57.3502171 26.56425,57.1735505 C26.7255833,56.9962171 26.8665833,56.8398838 26.98725,56.7045505 C27.10725,56.5685505 27.22125,56.4285505 27.32925,56.2845505 C27.43725,56.1398838 27.5039167,56.0352171 27.52925,55.9705505 C27.5545833,55.9058838 27.6085833,55.8318838 27.69125,55.7485505 C27.7739167,55.6645505 27.9969167,55.3165505 28.36025,54.7045505 C28.7235833,54.0925505 28.93425,53.5662171 28.99225,53.1255505 C29.05025,52.6842171 29.07325,52.3602171 29.06125,52.1535505 C29.0485833,51.9468838 29.0439167,51.7598838 29.04725,51.5925505 C29.0505833,51.4252171 29.0515833,51.3565505 29.05025,51.3865505 C29.0489167,51.4165505 29.0485833,51.4052171 29.04925,51.3525505 C29.0499167,51.2998838 29.0499167,51.2352171 29.04925,51.1585505 C29.04925,51.0818838 29.04925,51.0638838 29.04925,51.1045505 C29.04925,51.1452171 29.04925,50.8898838 29.04925,50.3385505 C29.04925,49.7878838 29.04925,49.3275505 29.04925,48.9575505 C29.04925,48.5875505 29.04925,48.3245505 29.04925,48.1685505 C29.04925,48.0132171 29.04925,47.8898838 29.04925,47.7985505 C29.04925,47.7065505 29.0495833,47.6238838 29.05025,47.5505505 C29.0509167,47.4765505 29.0559167,47.3588838 29.06525,47.1975505 C29.0739167,47.0362171 29.0615833,47.0098838 29.02825,47.1185505 C28.9949167,47.2272171 29.0095833,47.1735505 29.07225,46.9575505 C29.13425,46.7415505 29.2419167,46.4818838 29.39525,46.1785505 C29.5485833,45.8758838 29.65525,45.6658838 29.71525,45.5485505" id="STROKE_7ebf438f-c6be-4f20-8d26-720731b393d2" stroke="#171612" stroke-width="1.7"></path>
    </g>
</svg>