<svg width="81" height="69" xmlns="http://www.w3.org/2000/svg"><g fill="none" fill-rule="evenodd" stroke-linecap="round" stroke-linejoin="round"><path d="M21.972 8.092H21.775a10.564 10.564 0 0 1-.254-.01 9.467 9.467 0 0 1-.417-.037l-.198-.02h-.172l-.125.002-.17.052a4.355 4.355 0 0 1-.277.064c-.141.03-.284.053-.428.07a8.361 8.361 0 0 1-.65.042l-.02.005c-.035.009-.13.028-.287.057a7.73 7.73 0 0 1-.71.084 5.145 5.145 0 0 1-.853.157 8.147 8.147 0 0 1-.718.023H16.1c-.145-.011-.29-.024-.434-.04a1.469 1.469 0 0 1-.602-.12 9.83 9.83 0 0 1-.282-.084l-.106-.031a2.823 2.823 0 0 0-.379.194c-.196.11-.349.202-.457.274a7.757 7.757 0 0 1-.466.28c-.204.116-.416.23-.638.345-.222.113-.334.164-.337.154-.002-.011-.061.018-.176.086a49.266 49.266 0 0 0-.435.4c-.074.069-.2.183-.38.343-.18.16-.323.289-.43.387-.105.098-.284.255-.537.472-.252.216-.545.44-.88.674-.337.232-.53.37-.582.414a13.399 13.399 0 0 1-1.249.907.822.822 0 0 0-.103.06 3.877 3.877 0 0 0-.16.097l-.33.204a1.804 1.804 0 0 0-.293.215c-.07.066-.174.156-.315.268-.14.112-.343.286-.609.522a7.405 7.405 0 0 0-.787.826c-.26.314-.397.493-.412.536-.014.043-.021.06-.022.052 0-.01-.002-.012-.005-.01a.531.531 0 0 0-.039.058 4.247 4.247 0 0 1-.1.153 6.016 6.016 0 0 0-.114.174l-.114.174a5.742 5.742 0 0 0-.155.249c-.058.1-.084.143-.078.13.008-.012.01-.013.005-.001a3.39 3.39 0 0 1-.043.094c-.024.05-.07.14-.137.268-.066.127-.144.281-.234.463-.09.182-.16.322-.213.42-.053.1-.154.273-.303.52-.148.249-.306.533-.473.854-.166.32-.265.512-.295.574a7.92 7.92 0 0 0-.198.516c-.102.282-.206.59-.312.925a8.532 8.532 0 0 1-.233.675 6.04 6.04 0 0 0-.209.558c-.022.07-.054.219-.097.444-.042.224-.084.466-.126.726-.041.258-.083.667-.127 1.227-.043.559-.056.855-.039.889.018.033.022.04.013.02-.008-.018-.008.011-.002.089s.016.17.028.275a89.13 89.13 0 0 0 .11.925c.013.099.07.251.173.457.104.205.248.458.432.76.184.3.256.44.216.416-.04-.024-.035-.017.017.023.052.04.08.058.084.056.004-.004.002-.004-.006 0s.032.01.12.022l.275.032c.098.01.197.027.297.05.1.023.22.054.358.094.139.039.306.107.502.205.197.096.325.164.385.204.06.039.155.126.282.26.128.135.21.233.244.297.034.063.039.077.013.042-.025-.036-.013-.023.036.039l.16.192c.055.067.11.138.166.214.056.075.137.177.243.306.107.129.199.245.275.348.077.103.166.207.267.313.102.105.177.174.226.206.05.032.081.056.095.07.015.016.054.048.116.097a26.833 26.833 0 0 1 .636.509c-.05-.035.017.013.198.145-.018-.005.042.025.178.09.137.067.204.1.201.1l.084.032c.058.02.149.061.271.123a2.208 2.208 0 0 1 .153.08 6.93 6.93 0 0 0 .163.107l.147.117a6.904 6.904 0 0 0 .24.187 18.105 18.105 0 0 0 .176.136 6.438 6.438 0 0 1 .757.454c.19.126.33.21.417.25a2.026 2.026 0 0 0 .097.045 3.55 3.55 0 0 1 .77.47l.26.208c.065.052.185.134.36.247.176.112.267.166.272.163.006-.004.003-.007-.007-.01a.668.668 0 0 0 .101.057c.078.04.133.07.163.089.032.018.065.035.1.052a25.07 25.07 0 0 0 .945.483 9.43 9.43 0 0 1 3.043 1.991c.049.046.1.086.155.122.056.034.142.095.26.182a15.362 15.362 0 0 0 1.3.843c.347.206.53.309.551.308.02-.001.066.015.136.049.07.033.176.078.318.135.142.056.336.115.58.179.244.064.543.149.897.255a4.712 4.712 0 0 1 1.235.548 6.271 6.271 0 0 0 .597.273c.055.019.148.056.278.11.132.056.304.152.517.289.214.136.384.255.512.355.128.1.253.194.373.283.12.088.299.163.533.223.235.06.61.17 1.128.33.518.16.851.292 1.001.398l.24.168.056.03.14.069c.066.032.173.08.322.143.15.063.254.11.311.143l.183.094c.064.032.11.058.142.079a8.851 8.851 0 0 1 .618.449c.145.114.257.189.335.226.079.036.206.09.381.163.176.072.315.123.416.152a3.1 3.1 0 0 1 .448.182c.197.093.377.18.54.264.163.082.311.15.445.206.134.054.401.22.801.5.4.281.724.535.972.762.248.227.511.453.791.678.28.224.448.364.504.42.056.055.135.149.236.282.102.132.167.237.197.313.03.076.064.143.102.2.038.056.06.084.067.084.007-.001.01 0 .012.005.002.004.044.05.128.14.084.089.158.176.221.262.064.084.176.215.338.39.162.177.295.294.398.353.103.059.174.114.214.164.04.05.102.13.186.242.085.11.12.151.103.123-.015-.028-.006-.02.026.023.033.044.103.115.211.213l.293.262c.087.076.202.193.344.35.144.158.186.196.128.114.002-.003 0-.007-.002-.011-.003-.005.031.004.103.028.073.023.13.055.17.096.04.04.046.042.015.002-.03-.04-.009-.014.065.077.074.09.128.153.16.189.033.036.043.043.031.02-.012-.021-.013-.026-.003-.013.01.012.01.013 0 .004-.01-.01.02.008.09.055.07.046.116.079.136.097.02.018.033.026.037.026.004-.001.043.039.12.119a41.072 41.072 0 0 0 .154.163.45.45 0 0 1 .047.084c.027.056.036.07.027.044-.008-.028 0 .014.023.125a2.758 2.758 0 0 0 .036.163v-.021l.001.046.003.137.003.138c0 .04.007.128.02.265.012.136.05.326.111.569.062.242.154.499.275.77.12.27.178.39.17.36-.007-.031-.01-.04-.01-.027 0 .012.013.046.037.103l.062.142a.993.993 0 0 0 .115.172c.06.076.19.19.387.34.198.15.37.304.515.462.145.156.196.214.154.172a4.98 4.98 0 0 1 .19.193 74.914 74.914 0 0 0 .422.396c.156.143.362.359.62.647.257.288.426.509.507.663.082.153.112.207.091.163-.021-.045 0-.027.061.053.062.08.102.133.121.16.02.028.03.04.032.04.002-.002.044.042.125.133.08.09.163.176.247.258a16.258 16.258 0 0 0 .348.33 12.138 12.138 0 0 0 .328.27c.056.045.175.096.356.153.182.056.414.15.696.282.283.13.507.242.671.334.165.09.244.128.236.112-.007-.016-.001-.02.018-.008.02.01.032.017.038.018.006 0 .063.024.17.068.106.044.158.065.154.062a3.363 3.363 0 0 1 .178.105 11.113 11.113 0 0 0 .306.183c-.008-.006.023.01.094.05.072.039.154.079.247.119l.221.093c.053.022.149.077.288.166.14.088.206.132.198.13-.008 0 .015.019.067.059a2.832 2.832 0 0 1 .135.107c.032.026.09.076.172.149a3.81 3.81 0 0 0 .142.12c.025.02.062.048.112.082s.092.063.126.088c.034.024.116.064.245.119.13.054.28.109.454.164.174.054.25.073.227.056-.022-.018-.024-.023-.008-.016a.17.17 0 0 0 .07.01 143.992 143.992 0 0 1 .726-.016c.215-.005.304-.008.267-.008a2.715 2.715 0 0 0 .211-.017c.045-.006.103-.008.173-.007.072 0 .15-.004.236-.013.086-.01.236.016.448.076.214.06.511.164.893.312.382.147.556.23.524.25-.031.018-.036.027-.015.027a.24.24 0 0 1 .103.038l.258.139c.125.066.24.095.346.089.106-.008.13-.014.071-.02-.06-.004-.011-.01.144-.015.003-.395.01-.58.024-.557a.814.814 0 0 0 .1-.058c-.004.006.028-.008.094-.043a8.61 8.61 0 0 0 .451-.283l.09-.041a.66.66 0 0 1 .245-.051c.104-.006.252.01.442.05.19.038.258.062.203.072-.055.009-.065.013-.029.013l.053-.002a.251.251 0 0 1-.009-.005.623.623 0 0 0 .101-.028.787.787 0 0 0 .256-.136c.089-.067.22-.153.393-.257.174-.106.332-.194.476-.266.144-.072.209-.113.193-.123-.015-.01-.017-.018-.005-.023a.147.147 0 0 0 .037-.027l.138-.138c.079-.08.114-.113.104-.103l.1-.122c.074-.091.144-.18.21-.27l.163-.221c.044-.06.105-.144.182-.254a10.29 10.29 0 0 1 .931-1.118c-.02.025-.026.032-.02.022a1.15 1.15 0 0 1 .117-.122 2.58 2.58 0 0 0 .228-.261 4.48 4.48 0 0 0 .28-.42c.105-.175.15-.262.132-.26-.016.004-.024.008-.023.014l.002.006.035-.098c.024-.064.052-.16.083-.291.032-.131.108-.3.228-.505a3.51 3.51 0 0 1 .291-.44c.074-.086.107-.134.1-.142-.007-.01-.01-.012-.01-.01v.007a9.629 9.629 0 0 0 .204-.302.432.432 0 0 1 .058-.067c.032-.032.075-.07.13-.112.053-.044.075-.06.064-.05l.03-.03a6.092 6.092 0 0 1 .225-.208.603.603 0 0 0 .249-.211c-.002.004.006-.002.022-.02a5.064 5.064 0 0 0 .112-.127c.076-.087.166-.186.27-.296.104-.111.193-.226.267-.344.074-.118.108-.177.102-.176-.006 0-.004-.004.005-.013.01-.01.048-.063.116-.16.068-.098.143-.192.224-.282.082-.09.123-.137.125-.142l-.004.012a6.35 6.35 0 0 0 .064-.22c.02-.072.037-.191.051-.356a8.08 8.08 0 0 0 .02-.714c-.003-.311-.039-.538-.107-.682-.067-.144-.17-.474-.307-.991-.136-.518-.235-.795-.295-.831-.06-.037-.097-.07-.112-.1a.194.194 0 0 0-.028-.05.853.853 0 0 1-.075-.117 5.655 5.655 0 0 0-.092-.153.737.737 0 0 0-.034-.05.286.286 0 0 1-.025-.077.267.267 0 0 1-.01-.1c.004-.023.002-.026-.006-.01-.007.016-.002-.021.016-.11.018-.09.02-.13.005-.116-.014.012.022-.037.108-.147.086-.111.211-.211.375-.3.164-.09.288-.195.374-.32.086-.123.129-.194.128-.212 0-.018 0-.023.002-.017.002.006.027-.03.077-.104.05-.076.084-.13.104-.164.02-.034.028-.05.024-.047-.004.002-.005.005-.003.01a2.027 2.027 0 0 0 .155-.269c.018-.042.023-.053.013-.035a1.836 1.836 0 0 0 .052-.139l.092-.26a1.232 1.232 0 0 0 .068-.241c0 .002.002.002.004 0a2.702 2.702 0 0 0 .06-.41c.008-.106.03-.27.07-.492a12.9 12.9 0 0 1 .168-.795c.074-.307.143-.55.207-.73.064-.18.089-.244.073-.194a.544.544 0 0 0 .018-.052c.028-.086.032-.105.014-.058l.118-.296a.051.051 0 0 1 .007.028c0 .012.017-.086.052-.294.036-.208.055-.313.057-.316a.665.665 0 0 0-.002-.113c-.004-.072-.006-.096-.007-.07v.012l.001-.097v-.125c-.002-.038 0-.034.004.01.005.044-.005-.068-.029-.336-.002.02-.01-.056-.025-.232V42.5c.01.012.007-.034-.009-.137l-.048-.318c-.016-.11-.02-.149-.015-.12.006.03.008.034.005.014a8.238 8.238 0 0 0-.012-.08.728.728 0 0 1-.006-.137c.004-.038.006-.046.008-.024s-.005.002-.02-.06a16.866 16.866 0 0 0-.037-.134c.002-.001-.037-.049-.117-.143a1.888 1.888 0 0 0-.307-.292c.045.037.014.025-.094-.035a5.843 5.843 0 0 0-.155-.088.545.545 0 0 0-.107-.055 32.264 32.264 0 0 1-.215-.105 1.382 1.382 0 0 1-.146-.084c-.04-.027-.05-.03-.03-.01.02.021-.024-.012-.132-.098a14.42 14.42 0 0 1-.167-.134l.01.009a6.566 6.566 0 0 1-.187-.187c.176-.407.26-.596.25-.566a.43.43 0 0 1-.009.032l.084-.194c.045-.104.102-.244.17-.422.069-.178.133-.342.193-.49.06-.15.109-.242.144-.278a.837.837 0 0 1 .063-.062.073.073 0 0 0 .018-.031.088.088 0 0 1 .004-.011 7.9 7.9 0 0 0 .222-.389c.042-.081.06-.118.052-.11a.063.063 0 0 0-.013.03c-.001.013.012-.02.04-.1.029-.079.06-.194.092-.344.033-.15.017-.345-.048-.584a3.161 3.161 0 0 0-.249-.645c-.1-.191-.142-.27-.124-.234.018.034.014.017-.01-.052a4.253 4.253 0 0 0-.127-.295 2.023 2.023 0 0 0-.08-.17c.006.017.001-.001-.013-.053a18.187 18.187 0 0 1-.053-.211 3.477 3.477 0 0 1-.093-.527 1.84 1.84 0 0 0-.1-.412 3.902 3.902 0 0 0-.15-.38c-.044-.094-.061-.133-.05-.117l.007.009a.246.246 0 0 1-.013-.091c-.001-.051-.007-.083-.018-.095-.01-.013-.013-.022-.009-.026.004-.006-.031-.019-.105-.04a1.365 1.365 0 0 0-.114-.03h-.018a50.407 50.407 0 0 1-.433-.005.537.537 0 0 0-.332.122 1.974 1.974 0 0 0-.323.3 9.7 9.7 0 0 0-.153.178.23.23 0 0 1 .012-.023c.01-.018.005-.014-.015.012-.02.026-.02.023.001-.008.02-.032-.026.046-.14.234-.115.188-.231.39-.35.607a4.329 4.329 0 0 1-.33.527c-.103.134-.234.37-.394.71-.16.34-.295.705-.404 1.093-.108.387-.156.562-.143.525.014-.038.013-.046 0-.023a.86.86 0 0 0-.053.112c-.02.05-.043.129-.069.233l-.08.328a3.66 3.66 0 0 1-.138.434l-.37.995c-.18.488-.266.743-.257.767l-.904 1.728c-.072.066-.202.15-.39.25a1.447 1.447 0 0 1-.659.162c-.25.006-.41-.02-.477-.078-.067-.058-.097-.09-.09-.096.008-.007.007-.012-.005-.015a.267.267 0 0 0-.017-.004l-.115-.116-.192-.197c-.052-.054-.182-.12-.39-.194a3.28 3.28 0 0 0-.43-.135c-.08-.014-.117-.024-.114-.03.003-.007-.003-.014-.017-.022a.633.633 0 0 0-.076-.03 4.63 4.63 0 0 1-.166-.061c.003 0-.046-.02-.147-.063a1.153 1.153 0 0 0-.386-.078 2.34 2.34 0 0 0-.464.022 1.146 1.146 0 0 0-.272.06c.058.005-.016.007-.222.007.027.004.036.008.027.013a.887.887 0 0 1-.192-.046.568.568 0 0 1-.263-.144 1.343 1.343 0 0 1-.195-.257l-.007-.001c-.006-.003-.01-.018-.015-.046-.004-.028-.04-.076-.105-.144-.066-.068-.082-.081-.048-.038.034.042.039.049.015.022-.024-.028-.03-.036-.02-.025l.01.01.005.005-.004-.003a.535.535 0 0 0-.075-.048 2.122 2.122 0 0 0-.262-.11 4.936 4.936 0 0 1-.619-.31c-.28-.157-.385-.224-.317-.2.046.025-.014-.014-.18-.118.064.042.002 0-.186-.126a.486.486 0 0 1-.097-.066 6.522 6.522 0 0 0-.149-.11c.006-.162.027-.265.065-.311a.396.396 0 0 0 .085-.14.477.477 0 0 0 .034-.078 3.97 3.97 0 0 0 .046-.132.28.28 0 0 1 .025-.066.308.308 0 0 0-.003-.09.997.997 0 0 1-.008-.107c0-.015.003-.022.005-.022.002-.001 0-.041-.006-.12a.952.952 0 0 1 .035-.295c.03-.118.071-.247.125-.39a3.6 3.6 0 0 0 .145-.45c0 .009.013-.03.041-.114.028-.086.073-.211.134-.375.062-.165.115-.32.16-.462l.097-.31c.02-.064.028-.081.02-.052-.006.028.004 0 .03-.083.027-.084.054-.18.082-.29l.122-.451c.054-.192.099-.415.136-.67.038-.255.077-.49.12-.703.041-.214.063-.312.065-.293.002.018.004.016.006-.004.002-.022.01-.067.026-.135l.071-.293c.032-.127.086-.31.163-.55.078-.238.157-.443.236-.615.08-.172.11-.234.092-.188a4.7 4.7 0 0 1 .113-.251l.093-.196a35.99 35.99 0 0 1 .172-.347 1.296 1.296 0 0 0 .904-1.772c-.012.019-.013.02-.002.006a.988.988 0 0 0 .07-.14l.06-.143c.008.056.017-.04.026-.286.01-.003 0-.043-.03-.12v-.01a.563.563 0 0 0-.069-.027c-.03-.114-.044-.161-.043-.142.002.018.01.027.026.026.017-.001-.012-.02-.086-.057a.912.912 0 0 0-.126-.058c-.01-.001-.013 0-.008.003l-.1-.04a.659.659 0 0 0-.127-.043h-.01c.006-.001-.034-.004-.122-.01a1.865 1.865 0 0 0-.216-.002.688.688 0 0 0-.149.024c.022-.005-.007-.007-.088-.007-.08 0-.13.005-.149.013-.018.008-.027.01-.027.01a7.498 7.498 0 0 0-.147.066c-.064.029-.091.045-.083.047a.658.658 0 0 1-.075-.011.522.522 0 0 0-.129-.011l-.127-.01a1.954 1.954 0 0 1-.259-.037 2.793 2.793 0 0 1-.439-.162c-.208-.09-.309-.135-.303-.133.006 0 0 .003-.015.007-.016.003-.021 0-.017-.006.005-.007-.028-.012-.099-.014a.92.92 0 0 1-.238-.045 17.217 17.217 0 0 0-.482-.133 8.545 8.545 0 0 1-.775-.251 15.788 15.788 0 0 1-.713-.28c-.192-.083-.287-.117-.285-.102.002.014-.001.021-.01.02-.008 0-.013 0-.015-.003a1.766 1.766 0 0 0-1.104.012 2.78 2.78 0 0 1-.415.059 45.467 45.467 0 0 0-1.629.18 1.457 1.457 0 0 0-.367.085c-.062.03-.085.042-.068.036l-.106.043c-.088.036-.128.049-.12.04a1.03 1.03 0 0 0-.16.099 1.906 1.906 0 0 0-.236.17 4.87 4.87 0 0 1-.149.096l-.294.193a5.706 5.706 0 0 1-.373.22 3.863 3.863 0 0 0-.539.374c-.204.163-.367.33-.489.5-.121.172-.149.22-.083.148.066-.074.018-.024-.146.148.014-.012-.016.032-.09.132.01-.03-.018.012-.083.122a.166.166 0 0 1 .023-.037l-.117.159a3.23 3.23 0 0 1-.179.229c-.031.032-.048.047-.05.045-.003-.003.002-.001.014.005.013.006-.048.012-.182.018a2.264 2.264 0 0 1-.175.005.44.44 0 0 1-.087-.012.328.328 0 0 1-.117-.045c.01.005-.026-.019-.112-.071a2.488 2.488 0 0 0-.252-.137 3.91 3.91 0 0 0-.175-.08c-.035-.014-.042-.019-.022-.013a3.805 3.805 0 0 0-.153-.047 1.07 1.07 0 0 1-.217-.106 2.234 2.234 0 0 1-.223-.15c-.052-.041-.065-.054-.038-.037.028.016-.013.002-.12-.043a1.102 1.102 0 0 0-.185-.07.593.593 0 0 1-.133-.06 6.922 6.922 0 0 1-.328-.193 1.684 1.684 0 0 1-.379-.317 26.192 26.192 0 0 1-.57-.68c-.273-.332-.436-.52-.489-.564a4.693 4.693 0 0 1-.193-.178 13.865 13.865 0 0 1-.247-.245 4.687 4.687 0 0 0-.167-.166 4.415 4.415 0 0 0-.18-.146c-.098-.077-.213-.17-.346-.28a1.406 1.406 0 0 1-.286-.297 3.989 3.989 0 0 0-.209-.292 14.166 14.166 0 0 0-.372-.444 3.605 3.605 0 0 1-.465-.7 87.23 87.23 0 0 0-.302-.577c-.057-.11-.085-.155-.083-.134.002.02.004.028.006.022a.742.742 0 0 0-.108-.136l-.12-.138a39.566 39.566 0 0 0-.243-.267c-.18-.13-.355-.265-.528-.404-.1-.08-.245-.205-.434-.376a9.861 9.861 0 0 1-.505-.478l-.13-.13-.122-.123-.18-.187-.17-.185a12.483 12.483 0 0 1-.316-.361l-.273-.344-.087-.101-.288-.354-.243-.217a8.246 8.246 0 0 1-.409-.398 11.795 11.795 0 0 1-.34-.403 10.29 10.29 0 0 1-.37-.453l-.132-.162-.238-.308-.1-.102a4.327 4.327 0 0 1-.272-.302 8.046 8.046 0 0 1-.409-.56l-.065-.092-.066-.072a18.604 18.604 0 0 1-.3-.368l-.016-.016-.105-.111-.078-.078-.059-.056a7.618 7.618 0 0 1-.208-.231l-.11-.123-.092-.101-.034-.037-.059-.062c-.032-.03-.15-.154-.354-.373-.046-.045-.174-.191-.386-.438a8.941 8.941 0 0 1-.387-.525l-.253-.411a69.759 69.759 0 0 1-.258-.421l-.103-.174-.097-.161-.01-.018-.165-.27a10.608 10.608 0 0 1-.566-.682 4.122 4.122 0 0 1-.214-.302 4.92 4.92 0 0 1-.483-.924c-.064-.162-.147-.41-.249-.744a8.536 8.536 0 0 1-.163-.642 4.31 4.31 0 0 1-.156-.421c-.054-.17-.13-.425-.224-.767-.055-.187-.13-.452-.225-.795-.021-.068-.063-.23-.126-.487" stroke="#FFB352" stroke-width=".5" fill="#FFB352" fill-rule="nonzero"/><path d="M55.726 21.742a5.957 5.957 0 0 0-.389-.008c.01.109-.128.573-.418 1.39-.288.82-.492 1.54-.61 2.162a25.104 25.104 0 0 1-.319 1.483 3.48 3.48 0 0 1-.352.906c-.141.236-.225.403-.253.5-.028.097-.06.184-.098.26-.037.076-.123.302-.259.678a9.33 9.33 0 0 1-.475 1.095 7.153 7.153 0 0 0-.405.915 4.01 4.01 0 0 0-.182.758 4.123 4.123 0 0 1-.189.847l-.073.222a2.68 2.68 0 0 0-.053.17c-.007.031-.013.048-.017.05a.649.649 0 0 0-.04.132c-.023.086-.087.292-.193.619-.105.326-.209.611-.31.857-.103.245-.185.438-.249.579-.063.14-.096.219-.099.236a1.309 1.309 0 0 1-.035.138l-.033.128c-.001.01 0 .012.006.006a1.915 1.915 0 0 1-.065.222c-.048.154-.095.315-.14.483a7.841 7.841 0 0 1-.092.32 1.965 1.965 0 0 0-.04.143c-.013.049-.015.063-.006.04.009-.022.007-.024-.007-.005a1.04 1.04 0 0 0-.062.248c-.026.146-.04.272-.039.378v.274a3.07 3.07 0 0 0-.002.092l.006.063a.912.912 0 0 0 .034.172c.016.049.023.073.02.072a16.329 16.329 0 0 0 .064.166c.009-.021.024.023.046.13.022.11.045.194.067.254.023.059.05.11.083.152.032.042.099.108.2.198.102.09.152.132.152.127v-.006c0 .002 0 .004-.002.007 0 .002.036.029.11.079.073.05.158.092.254.127.096.034.19.073.282.117a2.072 2.072 0 0 0 .116.055.466.466 0 0 1 .071.04c.05.03.142.1.274.205.132.105.184.146.154.124-.03-.024-.038-.028-.028-.014.01.014.06.056.148.124l.271.205c.092.068.138.1.136.097-.002-.005.005-.006.02-.004.015 0 .012.005-.009.01-.02.007.056.038.23.094.174.056.327.089.458.1a7.472 7.472 0 0 0 .29.019h.01a3.433 3.433 0 0 0 .34-.004c.08-.006.171-.007.271-.001.1.005.186.017.257.037a2.965 2.965 0 0 0 .133.036c.024.007.032.007.023 0-.01-.006.012-.005.064.003.053.008.135.037.247.086.112.048.208.085.288.109.08.024.164.04.25.052a1.053 1.053 0 0 0 .162.015c.016.003.043-.004.083-.021a1.247 1.247 0 0 1 .159-.062c.02-.006.069-.024.148-.056a.88.88 0 0 0 .26-.15 5.76 5.76 0 0 1 .153-.116c.094-.07.143-.109.147-.117.004-.01.007-.013.008-.013a25.05 25.05 0 0 0 .03-.047.312.312 0 0 1 .073-.08c.035-.03.127-.166.276-.411.15-.246.273-.473.37-.681a11.062 11.062 0 0 0 .288-.671 2.562 2.562 0 0 1 .027-.06l.055-.147c.043-.113.08-.207.112-.283a3.61 3.61 0 0 1 .124-.258l.072-.14-.004.006c0 .002.01-.016.034-.055a110.698 110.698 0 0 0 .247-.42l.083-.178c.06-.13.216-.488.465-1.075.25-.588.443-1.038.58-1.351a13.718 13.718 0 0 1 .408-.88c0-.004-.004 0-.012.01l.117-.22c.086-.16.226-.453.422-.883.197-.43.339-.758.425-.983.087-.225.144-.4.17-.523a2.38 2.38 0 0 1 .08-.293 6.144 6.144 0 0 0 .101-.298 40.35 40.35 0 0 1 .089-.293l.03-.097-.009.027a223.36 223.36 0 0 0 .187-.559 10.268 10.268 0 0 1 .157-.45 4.064 4.064 0 0 1 .063-.348 6.399 6.399 0 0 1 .2-.766l.034-.11c.005-.014.01-.022.017-.024.006-.002.013-.017.02-.045a3.169 3.169 0 0 1 .167-.701 1.27 1.27 0 0 0 .018-.11.467.467 0 0 1 .01-.064c0 .002 0 .002-.002-.002a1.003 1.003 0 0 1 .056-.227l.027-.074.071-.186c.024-.06.033-.093.028-.098-.004-.005-.001.009.008.042.01.033.033-.031.07-.193.038-.162.061-.296.071-.403.01-.108.014-.204.011-.288a1.511 1.511 0 0 1-.003-.166v-.164a1.769 1.769 0 0 1-.076-.084h-.009c0-.006-.004-.016-.014-.031-.006 0-.094-.044-.265-.132-.05.017-.038-.002.033-.057.07-.056.12-.098.147-.124M61.515 8.429a.885.885 0 0 1-.196.03h-.065c.122-.22.168-.297.137-.23-.045.022.048-.073.278-.283.23-.21.435-.449.613-.715.18-.266.321-.498.425-.696.105-.198.208-.432.308-.7.1-.27.193-.503.275-.7a2.364 2.364 0 0 1 .331-.595c.02-.031.019-.027-.003.013-.022.039.068-.051.268-.271.2-.22.342-.395.425-.524a3.531 3.531 0 0 1 .342-.456s.01-.012.034-.034a5.073 5.073 0 0 1 .248-.214A.396.396 0 0 1 65 3.01c.048-.03.099-.065.153-.103a.392.392 0 0 0 .081-.065 91.344 91.344 0 0 0 .937-.907h-.014c.04-.117.046-.155.018-.113-.028.04.017.015.134-.078.118-.094.178-.145.18-.153.002-.01.112-.053.33-.13.217-.078.374-.113.471-.105.097.006.189.009.276.007.088-.002.128-.003.12-.001-.01.002-.015 0-.015-.006 0-.007.017-.002.051.016.036.016.094.05.176.104.082.052.112.074.09.068-.022-.006-.031-.017-.029-.032.002-.016.083.058.243.224.16.165.282.303.366.414.084.11.15.215.197.316a2.95 2.95 0 0 0 .191.346 61.015 61.015 0 0 1 .113.248c.04.088.062.126.067.114.006-.012.005-.014 0-.004a.213.213 0 0 0 .011-.016c.014-.02.056.009.125.085.07.076.099.1.087.076-.01-.025-.012-.025-.004 0l.008.027-.002-.008.001.008a.22.22 0 0 0 .013.03c.008.017.017.02.026.012.01-.01.038.07.085.242.047.17.06.239.038.204.016.07.026.104.032.1.035.159.045.21.031.155v.759c.002.049-.006.15-.025.305l-.024.189v.247c-.004.159-.01.228-.014.207a1.79 1.79 0 0 1-.185.273c-.115.154-.216.292-.302.413a6.906 6.906 0 0 0-.242.365c-.075.12-.131.219-.168.294l-.206.426c-.1.209-.168.348-.204.417l-.144.274a1.13 1.13 0 0 1-.089.157c.002-.011.009-.02.02-.025.012-.006-.003.023-.046.089a2.19 2.19 0 0 1-.187.237 1.728 1.728 0 0 1-.125.139c-.014.016-.016.018-.006.006.01-.013.007-.01-.01.007-.019.017-.087.11-.207.277-.12.167-.196.278-.23.334a4.683 4.683 0 0 0-.15.266 4.984 4.984 0 0 1-.08.15l-.039.084c-.02.04-.06.105-.12.194a4.419 4.419 0 0 0-.135.203 2.74 2.74 0 0 1-.129.164 1.881 1.881 0 0 1-.08.106c-.002.008-.019.026-.05.055a2.884 2.884 0 0 0-.137.134 1.332 1.332 0 0 1-.062.062l-.06.053c-.04.035-.104.098-.196.188-.09.09-.125.12-.104.094a1.655 1.655 0 0 1-.16.105.038.038 0 0 0-.009.008l.02-.008a.193.193 0 0 1 .044-.016c-.007.002-.105.049-.293.142-.187.093-.264.127-.23.1a.947.947 0 0 0-.145.049c-.04.018-.195.025-.465.023-.27-.003-.457-.007-.564-.012a1.398 1.398 0 0 1-.407-.075.326.326 0 0 1-.025-.012l.008.007a2.554 2.554 0 0 1-.237-.107 4.519 4.519 0 0 1-.377-.197 1.733 1.733 0 0 1-.144-.093.342.342 0 0 1-.036-.038c-.014-.016-.005-.013.025.01.03.022.004-.02-.08-.126-.083-.107-.112-.147-.087-.12l.025.026a46.667 46.667 0 0 1-.386-.365.519.519 0 0 0-.092-.083.273.273 0 0 0-.057-.081.754.754 0 0 1-.042-.034c-.012-.01-.009-.016.01-.016.018-.002-.01-.017-.083-.046a1.078 1.078 0 0 1-.286-.2.568.568 0 0 1-.204-.34c-.02-.123-.023-.17-.013-.137.01.03.013.045.008.042a.089.089 0 0 1-.016-.028c-.006-.015-.004-.012.007.008.012.02.017.026.014.016a6.828 6.828 0 0 0-.119-.302c-.076-.191-.113-.26-.11-.208-.222-.018-.297-.024-.223-.016-.144.016-.213.033-.207.049a3.942 3.942 0 0 0-.205.114M42.934 60.564c-.012-.174-.018-.235-.018-.182-.1.113-.02-.085.24-.594h.007c.008.055-.54 1.11-1.647 3.166h.146c.214.037.283.05.207.039.028.004.039.004.032 0-.006-.004-.009-.007-.007-.007H41.903a11.4 11.4 0 0 1 .267.172c.1.068.138.095.111.083.06.086.087.128.083.124.098.19.13.257.1.197.009-.014.012-.014.008 0-.003.014.023.126.077.336.054.21.117.396.187.558.07.162.12.262.15.299a.72.72 0 0 1 .043.054c.013.016.014.016.003 0a1.393 1.393 0 0 0 .086.104c.072.084.11.126.113.127a.25.25 0 0 1 .047.025l.031.018c-.006-.006.025.014.094.058.069.044.14.084.212.122.073.036.162.078.266.124a37.874 37.874 0 0 1 .484.212c.074.03.165.067.273.113l.162.066c.08.045.118.065.115.06.065.026.1.036.108.03.274.127.378.176.312.148a.548.548 0 0 1 .041.015c.094.038.147.06.16.064.012.004.012 0-.002-.01.19.032.253.045.191.039.027.009.035.012.025.01-.01-.004-.007-.004.007-.001.015.002.021.003.02 0a2.949 2.949 0 0 0 .069.012c.067.013.153.022.26.03.105.006.157.009.155.007.19-.062.335-.14.436-.234l.127-.121c-.016.014-.02.017-.014.007l.08-.097a.86.86 0 0 0 .11-.155l.068-.124a2.725 2.725 0 0 0 .1-.207l.111-.206c.005-.01 0-.006-.012.009a1.778 1.778 0 0 0 .104-.288c-.003.006-.004.005-.002-.003l.02-.115a6.534 6.534 0 0 1 .076-.368c-.003.025 0 .014.011-.032a.425.425 0 0 0 .013-.1c-.001-.02.045-.15.14-.39l.216-.557a5.424 5.424 0 0 0 .14-.405 327.267 327.267 0 0 1 .032-.221l.05-.07M73.961 13.29v-.233c-.024-.252-.04-.331-.049-.238-.283.03-.398.044-.344.04.054-.003.065.006.031.026a.368.368 0 0 0-.097.09 112.712 112.712 0 0 1-.04.052 6.507 6.507 0 0 1-.526.507 7.36 7.36 0 0 0-.33.292 4.172 4.172 0 0 0-.654.652 7.31 7.31 0 0 0-.47.629c-.137.206-.241.36-.313.464a4.251 4.251 0 0 0-.219.355 13.84 13.84 0 0 1-.266.463c.006-.007.007-.001.001.017a4.985 4.985 0 0 1-.287.392c-.186.244-.413.63-.683 1.16-.27.528-.454.94-.553 1.238a5.396 5.396 0 0 1-.253.657 9.884 9.884 0 0 0-.327.733c-.041.106-.08.214-.117.326l-.064.193-.029.096a67.13 67.13 0 0 0-.084.313 2.737 2.737 0 0 0-.036.154 5.467 5.467 0 0 1-.07.27 62.429 62.429 0 0 0-.076.266 130.512 130.512 0 0 1-.333 1.275 5.847 5.847 0 0 0-.093.378c-.016.085-.025.14-.027.166a9.288 9.288 0 0 0-.011.278.3.3 0 0 0 .005.098c.004.004.005-.008.003-.038s-.01.1-.02.389c-.011.289-.011.526 0 .71a2.31 2.31 0 0 0 .17.797c.045.127.057.168.036.123-.02-.046-.016-.028.013.052.03.08.06.133.092.16.03.028.09.078.178.152.088.073.113.09.076.052-.036-.04.008-.008.131.092.124.099.242.204.354.316.113.11.187.197.221.26l.121.212c.046.078.072.113.078.104.056.059.074.077.052.053-.021-.024-.01-.015.034.029.044.043.097.096.158.16.062.062.091.097.087.105a.672.672 0 0 0 .083.099 5.284 5.284 0 0 0 .131.13c.138.137.182.182.132.134.074.1.107.145.1.132.107.079.146.106.114.08l.192.009h.23c.195-.013.264-.021.206-.024-.026.038.089-.017.343-.166.255-.15.468-.298.638-.446a61.087 61.087 0 0 1 .571-.49l.154-.135c.125-.111.174-.156.146-.136-.026.019.02-.02.14-.116.12-.098.347-.306.68-.625a11.226 11.226 0 0 0 1.33-1.514 16.581 16.581 0 0 0 .28-.41.716.716 0 0 1 .052-.091c.044-.075.085-.15.122-.225l.077-.152.138-.242a5.145 5.145 0 0 0 .113-.201 7.8 7.8 0 0 0 .24-.36c.165-.253.332-.533.502-.84a61.017 61.017 0 0 0 .511-.932 11.695 11.695 0 0 1 .177-.318l.033-.06a1.58 1.58 0 0 0 .082-.207c.012-.033.016-.043.012-.028-.002.015.026-.069.085-.251.06-.183.137-.404.231-.664a22.601 22.601 0 0 0 .337-.991c.012-.046.014-.061.006-.046-.007.014-.001-.023.018-.113.02-.09.08-.302.178-.634.1-.334.176-.676.23-1.027.055-.352.077-.637.067-.857-.01-.22-.013-.377-.013-.471 0-.094.003-.132.005-.113.003.018-.002.016-.015-.007a2.18 2.18 0 0 1-.083-.241 4.235 4.235 0 0 1-.098-.365A6.515 6.515 0 0 0 77.86 15c-.01-.036-.04-.11-.094-.223a6.573 6.573 0 0 0-.202-.405c-.028-.055-.023-.053.013.006.036.058.016.007-.06-.152a1.462 1.462 0 0 0-.194-.327 5.048 5.048 0 0 0-.235-.242.178.178 0 0 0-.03-.03.024.024 0 0 0 .011.009 1.305 1.305 0 0 0-.271-.231.809.809 0 0 0-.095-.06.34.34 0 0 1-.072-.043c.004-.001.006.001.006.007.002.005-.011-.005-.039-.03a1.902 1.902 0 0 1-.13-.144 2.83 2.83 0 0 0-.064-.075 1.79 1.79 0 0 0-.149-.164 1.864 1.864 0 0 0-.067-.066.148.148 0 0 0 .008.007c.002 0 0-.001-.002-.004a2.276 2.276 0 0 0-.125-.096 2.054 2.054 0 0 0-.164-.114c-.027-.015-.04-.019-.04-.011 0 .007.017.003.05-.012.032-.015-.162.019-.584.102a.183.183 0 0 1-.032.058 1.074 1.074 0 0 1-.067.08" stroke="#9D5940" stroke-width=".5" fill="#9D5940" fill-rule="nonzero"/><path d="m60.45 4.752.5.565c.184.206.249.3.195.283-.054-.02-.05.003.012.066.062.062.107.11.136.145l.173.196c.087.097.121.139.103.126-.017-.014-.02-.015-.009-.002.012.012.014.015.005.009-.008-.008.018.007.08.043.063.036.117.065.162.086a.22.22 0 0 1 .1.08c.02.032.029.036.023.012-.005-.024-.01.009-.012.099-.002.09 0 .13.005.124a2.604 2.604 0 0 1-.14.434c-.034.08-.078.164-.13.25-.051.086-.072.125-.062.117a.714.714 0 0 0-.082.138 1.41 1.41 0 0 0-.035.156 2.42 2.42 0 0 1-.099.344l-.158.438c-.061.168-.083.292-.066.372.018.079.025.115.021.109a.041.041 0 0 1-.005-.013v.068c0 .047.003.1.005.162.003.06.01.13.02.21.01.08.043.232.097.457.054.225.1.39.14.493.04.103.068.163.086.18.019.017.029.033.03.048a.297.297 0 0 0 .036.086l.114.2c.054.09.107.217.161.379.054.16.083.249.087.263a.09.09 0 0 0 .015.032.48.48 0 0 1 .036.09c.018.052.088.097.211.135.123.037.284.09.484.16.2.071.32.108.361.112.042.002.05 0 .023-.004-.026-.005.007-.004.097.002s.186.008.287.007c.102-.002.255.002.46.012.206.009.41.04.612.093.203.052.344.035.424-.053.08-.088.175-.17.283-.243.109-.074.296-.205.56-.394.265-.19.51-.372.737-.546.226-.175.416-.305.57-.39a2.16 2.16 0 0 1 .41-.178c-.042.022.021-.004.19-.078-.04.024.009.002.148-.064-.013.002.016-.02.088-.064.072-.045.136-.08.19-.104.054-.024.077-.038.068-.042a.589.589 0 0 1 .143-.008c.104-.002.213 0 .326.007.114.006.176.02.187.042.01.02.014.023.008.008-.005-.016.041.01.14.077l.173.117c-.002.008.049.032.152.073l.248.095c.062.022.082.03.058.025-.023-.007-.031-.01-.024-.006.008.002.04.017.1.043.059.026.114.048.164.067.05.018.106.056.166.112.06.055.192.134.396.236.206.102.422.167.65.196.229.029.332.041.31.037-.023-.005-.03-.004-.02.002.01.006.006.007-.01.004l.096.023c.08.019.128.029.144.029.016 0 .076.02.178.058.103.038.194.073.273.105a2.506 2.506 0 0 1 .35.169c.006.005.012.007.018.006.006-.001.068.033.188.102.12.068.196.113.226.135.03.02.055.029.075.026l.256.002.251.002H73.4h.23c-.199.28-.274.392-.227.335.047-.058.025-.041-.067.052a3.191 3.191 0 0 0-.174.092c.015-.012.014-.013-.002-.004l-.199.106c.1-.01.02.005-.24.045l-.119.08c.043-.038.006.003-.11.12.057-.045.014-.001-.128.132.02-.014-.02.02-.119.103.008 0-.034.038-.126.116a3.137 3.137 0 0 0-.212.193c-.05.05-.12.147-.213.289-.092.142-.224.346-.394.613-.17.266-.33.513-.477.74a5.667 5.667 0 0 0-.22.35.184.184 0 0 1-.027.057c-.017.029-.015.032.007.008s-.008.038-.09.185c-.082.146-.182.34-.3.579-.118.24-.195.41-.232.513l-.08.227a.456.456 0 0 1-.036.089.692.692 0 0 0-.035.15 1.46 1.46 0 0 1-.083.279c-.038.096-.11.256-.216.48-.106.225-.23.48-.375.764-.144.284-.204.412-.182.383.024-.03.03-.032.017-.008a1.033 1.033 0 0 1-.049.089c-.021.035-.054.186-.099.453-.044.267-.085.587-.122.96-.036.372-.079.65-.127.83-.047.183-.085.311-.115.387-.03.076-.043.092-.042.049.002-.044-.017.013-.057.17-.038.156-.095.354-.17.595-.076.24-.163.51-.262.805a3.055 3.055 0 0 0-.167.753c-.012.206-.016.31-.01.309.006-.001.005-.008-.003-.02-.006-.014-.016.035-.029.147a14.56 14.56 0 0 0-.03.306 8.196 8.196 0 0 1-.134.919c-.036.169-.067.486-.095.952-.027.465-.037.68-.03.644.008-.037.01-.043.005-.02a.38.38 0 0 0 .01.118l.028.163c-.022-.05-.009.036.04.26-.016-.028.004.038.058.197v-.014c-.007 0-.013 0-.02.002v-.01c-.022-.009-.034-.016-.035-.02.006.009-.02-.004-.076-.04a62.06 62.06 0 0 1-.395-.248c-.207-.132-.296-.177-.268-.136-.002.015-.029-.012-.08-.08a9.792 9.792 0 0 1-.175-.196c-.027-.032-.041-.045-.042-.041-.001.004.002.009.008.013a.96.96 0 0 0-.203-.129c.024.008-.017-.015-.124-.071.038.016.036.017-.006.003a8.605 8.605 0 0 1-.229-.084 5.57 5.57 0 0 0-.172-.065 7.133 7.133 0 0 0-.118-.066c-.053-.03-.068-.04-.045-.031.024.008.032.01.025.007l-.007-.003-.007-.002a.065.065 0 0 0-.01-.004v-.001l.002.003c.003.002 0 .001-.01-.003-.01-.005 0 .001.027.019a4.798 4.798 0 0 1-.16-.092 5.157 5.157 0 0 0-.448-.23c-.165-.076-.194-.082-.087-.02.042.012.038.01-.01-.007a6.461 6.461 0 0 1-.526-.22 3.726 3.726 0 0 0-.124-.054l-.02-.008a.213.213 0 0 0 .022.006c.009 0-.002-.002-.033-.01-.03-.008-.041-.009-.032-.003.01.005-.061-.02-.214-.076-.152-.056-.345-.17-.579-.342a71.927 71.927 0 0 0-.9-.65c-.367-.262-.55-.394-.546-.394.004-.002 0-.002-.009 0a2.094 2.094 0 0 1-.254-.195.24.24 0 0 0-.034-.045c-.023-.028-.018-.02.016.025.035.044-.052-.05-.26-.282.035.044-.011-.016-.138-.18a5.01 5.01 0 0 0-.199-.05l.058.022c.024.009-.01.003-.1-.018a27.374 27.374 0 0 1-.14-.031c.015.004-.04-.007-.166-.031a60.311 60.311 0 0 1-.246-.05.26.26 0 0 1-.102-.04.234.234 0 0 1-.043-.031c0-.002-.002-.002-.009-.002a.837.837 0 0 1-.129-.101 5.449 5.449 0 0 0-.324-.252c-.135-.1-.322-.225-.56-.376l-.31-.197c.03.018.045.028.041.03a.631.631 0 0 1-.089-.092 8.408 8.408 0 0 1-.145-.164.876.876 0 0 0-.08-.085.29.29 0 0 1 .032.023c.034.024-.016-.006-.149-.09a7.465 7.465 0 0 0-.516-.292 109.188 109.188 0 0 0-.43-.224c.019.008-.012-.003-.092-.031a2.702 2.702 0 0 0-.289-.085 2.126 2.126 0 0 1-.432-.176 2.01 2.01 0 0 1-.365-.221 1.002 1.002 0 0 0-.215-.141 2.511 2.511 0 0 1-.244-.136 4.268 4.268 0 0 1-.46-.37c-.216-.191-.43-.371-.643-.54a6.896 6.896 0 0 0-.444-.336 3.766 3.766 0 0 1-.232-.161.488.488 0 0 1-.098-.082c.005-.002-.001-.009-.018-.021a.965.965 0 0 1-.104-.106 1.386 1.386 0 0 1-.123-.157.607.607 0 0 0-.196-.158c-.1-.06-.187-.104-.26-.132a1.628 1.628 0 0 0-.22-.067 6.397 6.397 0 0 0-.238-.05 1.974 1.974 0 0 1-.256-.068 3.341 3.341 0 0 1-.247-.095 1.057 1.057 0 0 0-.249-.075c-.088-.016-.283-.083-.587-.201-.304-.118-.513-.242-.629-.372a28.62 28.62 0 0 0-.533-.577c-.24-.255-.391-.394-.453-.416-.006.004-.033-.023-.08-.08a23.855 23.855 0 0 0-.234-.267 2.406 2.406 0 0 0-.241-.219 1.438 1.438 0 0 0-.405-.23c-.158-.061-.29-.113-.396-.157-.105-.044-.163-.075-.174-.093a.076.076 0 0 0-.038-.036c-.015-.007-.016-.004-.003.01.014.012-.012-.003-.079-.047a14.47 14.47 0 0 1-.41-.284c.013.018-.029-.012-.127-.09.027.032-.028-.008-.165-.12.036.043-.014.003-.152-.117.01.009-.022-.028-.094-.112.032.057-.012 0-.132-.173l-.107-.118a82.81 82.81 0 0 1-.08-1.066 9.52 9.52 0 0 1-.004-.247c0-.122.004-.197.01-.225a.617.617 0 0 1 .034-.104c.017-.042.044-.113.08-.213.037-.101.066-.205.087-.312.022-.108.025-.138.01-.091-.017.046-.017.044-.002-.007l.046-.143a1.62 1.62 0 0 0 .037-.13c.01-.042.034-.12.07-.23.037-.111.086-.292.146-.544a5.617 5.617 0 0 0 .147-.836l.008-.032.027-.123a2.969 2.969 0 0 1 .344-.725 7.67 7.67 0 0 1 .306-.442c.107-.144.194-.276.26-.396s.133-.26.201-.421a3202.472 3202.472 0 0 0 .27-.642c.039-.096.085-.23.138-.4.053-.171.088-.314.105-.428.042-.08.07-.14.088-.181.018-.042.032-.082.044-.121a28.118 28.118 0 0 0 .261-.322l.076-.095a146.721 146.721 0 0 0 .643-.76 33.82 33.82 0 0 1 .338-.36A59.665 59.665 0 0 0 51.221 5l.122-.131a1402.876 1402.876 0 0 0 1.536-1.677 54.474 54.474 0 0 1 .373-.371l.122-.122a9.197 9.197 0 0 0 .218-.215l.1-.1.071-.07a10.541 10.541 0 0 0 .45.319 2.403 2.403 0 0 0 .488.248c.065.022.103.034.113.036l.32.08a1.763 1.763 0 0 0 .348.048l.188.005h.001l.044.013a5.6 5.6 0 0 0 .273.1l.097.034.074.023.174.137c.128.088.227.15.3.188.135.067.248.116.34.146.143.042.24.067.291.075l.042.006c.146.022.228.033.246.033h.011l.021.012c.089.052.177.102.264.15l.2.096c.045.02.074.033.086.037a4.038 4.038 0 0 0 .308.107 4.85 4.85 0 0 0 .291.073 3.6 3.6 0 0 0 .174.029l.051.009.031.007.016.004.06.017.054.015.016.008.02.013.008.006c.07.057.125.098.163.124a1.397 1.397 0 0 0 .5.215 1.57 1.57 0 0 0 .262.035l.092.002h.023l.124-.002c.028-.002.059-.004.094-.008" stroke="#C48455" stroke-width=".5" fill="#C48455" fill-rule="nonzero"/><path d="M22.421 8.532c-.454-.022-.668-.025-.64-.011-.225-.084-.51-.13-.852-.138a14.546 14.546 0 0 0-.928.005c-.277.012-.574.03-.892.057-.317.026-.602.047-.854.063s-.523.029-.815.039c-.292.01-.54.01-.747-.002a2.204 2.204 0 0 0-.704.088 9.52 9.52 0 0 0-.706.218c-.207.073-.43.16-.67.259a56.022 56.022 0 0 0-2.299 1.022c-.273.127-.552.26-.838.397a19.845 19.845 0 0 0-1.648.892 18.917 18.917 0 0 0-1.518 1.028c-.242.183-.469.357-.68.522-.213.165-.41.321-.59.469a16.847 16.847 0 0 0-.998.862c-.181.168-.36.339-.539.514-.178.174-.352.356-.523.545-.17.188-.291.338-.362.448-.07.11-.093.141-.068.093.025-.048-.047.065-.215.34-.168.276-.233.396-.195.36.039-.034-.027.094-.199.386-.17.292-.293.493-.369.603a6.76 6.76 0 0 1-.24.33 19.102 19.102 0 0 0-.505.705c-.094.139-.13.187-.107.147a7.823 7.823 0 0 0-.127.241c-.086.168-.125.256-.117.264l-.096.36-.053.25a3.572 3.572 0 0 1-.056.245c.01-.03-.009.073-.057.306a4.88 4.88 0 0 1-.168.622c-.063.182-.143.38-.239.59a12.926 12.926 0 0 0-.486 1.218c-.08.235-.113.438-.1.61.012.173.002.324-.032.456l-.056.22c-.004.016-.004.012 0-.011s-.013.02-.05.13c-.038.111-.06.245-.067.403-.006.157-.008.316-.008.476l.003.44c0 .132.003.208.007.228.005.019 0 .014-.012-.014-.013-.03-.005.03.024.177.029.146.065.282.11.408.043.125.058.173.042.145-.015-.03-.014-.03.003-.005a.267.267 0 0 1 .041.085c0-.004.04.056.122.18.083.123.148.26.195.414a3.057 3.057 0 0 1 .051.158 1.463 1.463 0 0 1 .006.014 15.927 15.927 0 0 0 .263.756c.047.122.077.182.09.18.014-.003.007 0-.019.012-.025.01.056.135.242.373.188.237.33.405.43.503l.165.162c.01.01.01.01 0 0-.01-.011.086.074.288.256.202.18.295.262.277.243.155.13.236.194.243.189-.11-.074-.135-.075-.077-.003.058.07.2.214.427.43.226.215.442.41.648.585.206.175.4.33.586.464a1539.685 1539.685 0 0 0 1.013.74 26.136 26.136 0 0 0 .167.133c.106.082.173.139.2.17l.126.162c.059.074.122.152.19.234.067.082.102.126.103.133.002.006-.01-.004-.033-.03a3.463 3.463 0 0 0 .312.316 2.549 2.549 0 0 0 .17.149 406.488 406.488 0 0 0 1.614 1.069c.09.06.134.086.131.076-.002-.012-.016-.01-.042.003-.025.012.083.06.325.142.242.082.525.162.847.238.323.076.569.163.738.263.17.099.302.194.398.286.096.09.173.174.232.25.06.075.1.11.12.104.02-.006.016.01-.016.05-.03.04.062.14.276.299.215.158.422.253.62.284.199.03.365.076.497.139.133.062.203.095.21.1l-.03-.02c-.026-.018.113.027.42.135.306.108.507.19.603.245l.297.167c.104.056.174.093.21.11a.349.349 0 0 1 .06.034c.004.003-.01 0-.04-.007-.03-.008.078.03.322.114s.516.209.817.376c.3.166.571.312.811.439a4.738 4.738 0 0 0 .753.333c-.014-.004-.022-.007-.026-.01-.002-.004.014.002.05.019.035.017.156.087.363.21.208.122.402.229.58.32l.515.257c.164.08.225.113.183.099-.042-.014.009.02.151.103.142.082.353.193.631.332.279.139.544.31.795.51.252.201.447.367.586.499a9.98 9.98 0 0 0 .25.229c-.02-.018.055.03.227.145.172.114.346.21.52.289.176.079.352.164.53.255.179.09.283.138.311.144.03.005.035.01.016.013-.02.003.035.037.161.103l.4.2.501.249a203.901 203.901 0 0 0 1.264.617 151.905 151.905 0 0 1 2.186 1.088c.23.119.444.234.644.346a18.411 18.411 0 0 1 1.311.807c.286.19.52.339.704.446.183.106.447.29.792.552.345.262.519.392.521.39.002 0 .045.033.13.1l.527.434c.27.22.49.405.661.554.172.148.41.355.711.62.302.264.563.496.783.696.22.2.37.347.454.44" stroke="#171612" stroke-width="1.7"/><path d="M34.792 49.66c.026.035.097.12.212.257.116.136.224.253.324.35a12.537 12.537 0 0 0 .69.625c-.006-.01-.002-.01.01-.001.013.008.07.079.17.213.102.134.184.258.246.372a3.753 3.753 0 0 0 .23.365c-.043-.058.006.023.146.243.14.219.276.415.407.588.13.173.187.25.167.23a.26.26 0 0 1-.037-.045.136.136 0 0 0-.01-.01 81.643 81.643 0 0 1 .132.202 11.07 11.07 0 0 1 .303.484l.03.044c.009.012.05.08.126.207.075.126.142.253.202.38.06.126.124.275.194.445.07.169.14.331.211.487a4.17 4.17 0 0 0 .89 1.256c.157.16.323.32.497.48a35.067 35.067 0 0 0 1.052.92c.163.14.25.213.26.22.01.009.014.01.01.007a.088.088 0 0 1-.016-.025c-.006-.014.002-.011.022.008.02.019.026.019.014 0-.011-.02.042.02.16.12.117.098.22.187.31.268.09.08.133.117.127.11-.005-.008-.001-.006.011.006.013.012.015.012.007 0-.007-.012.089.062.288.224.2.16.277.218.23.17-.046-.048.002-.01.146.114.144.122.242.204.295.246.054.04.168.134.342.282a3.962 3.962 0 0 1 .11.094l.42.346c.207.17.383.317.53.442.145.124.283.246.413.366.13.118.337.261.621.429a9.244 9.244 0 0 0 1.105.57c.114.052.153.071.117.059-.036-.012.01.001.138.04a28.374 28.374 0 0 0 .722.214.848.848 0 0 1-.092-.033 1.128 1.128 0 0 0 .046.018 51.578 51.578 0 0 1 .693.26 1.749 1.749 0 0 0 .224.07l.045.01a21.898 21.898 0 0 0 .682.1c-.01-.006.026-.002.105.01a14.414 14.414 0 0 0 .35.05 1.75 1.75 0 0 1-.001-.002c.048.012.038.007-.03-.013a17.973 17.973 0 0 1 .405.111c.111.032.229.074.352.124a2.894 2.894 0 0 1 .14.057l.448.206c.326.15.562.253.706.31.146.057.234.088.266.093a.646.646 0 0 0 .091.009c.03 0 .025.002-.015.004-.038 0 .003.008.125.024s.287.03.497.046a11.657 11.657 0 0 0 .663.034c-.008 0 .01-.006.051-.018.042-.013.031.006-.033.058-.064.05.05.062.344.034a3.38 3.38 0 0 0 .636-.107c.13-.042.188-.058.172-.05a19.554 19.554 0 0 0 .395-.275c.074-.053.107-.08.098-.078-.008 0 .006-.013.044-.04.038-.025.05-.063.036-.113-.013-.051-.018-.072-.014-.064.004.007.01.004.018-.01a7.325 7.325 0 0 1 .225-.355c.038-.053.054-.08.046-.083l.098-.403c.012-.05.013-.031.003.057.063-.13.089-.17.078-.121.056-.078.077-.21.061-.394a1.369 1.369 0 0 0-.245.125M44.8 54.12c.1-.064.24-.054.42.032.18.085.347.179.502.28.156.103.329.227.518.374a45.248 45.248 0 0 1 1.062.847c.197.163.414.358.651.584a44.685 44.685 0 0 0 1.092 1.005c.209.186.381.335.517.447.136.11.27.222.403.333.133.11.294.23.483.362.19.13.347.238.47.32.122.084.246.183.372.298a3.683 3.683 0 0 0 .181.16c.006.007.045.04.116.1.072.058.201.163.39.313.187.149.275.217.264.203-.01-.014-.013-.02-.009-.016.005.003.123.055.354.155.232.1.3.125.205.073-.094-.052-.108-.065-.04-.038.069.026.203.082.403.17.2.086.38.17.537.252.158.08.324.178.497.292.174.112.301.18.383.204.083.023.199.059.347.107.149.048.224.07.224.068a1.926 1.926 0 0 0 .248.035c.12.012.188.014.202.006.016-.008-.003-.003-.055.013-.051.016.08.023.392.022.313-.002.544-.007.694-.013a2.11 2.11 0 0 0 .592-.119c-.004 0 .006-.015.03-.044.024-.03.027-.015.008.044-.018.058.089-.023.321-.245.233-.222.382-.393.447-.511.066-.12.162-.26.29-.421.127-.163.18-.23.162-.203-.018.027-.026.039-.022.035a6.572 6.572 0 0 0 .248-.31.93.93 0 0 1 .117-.147.49.49 0 0 0 .044-.085.508.508 0 0 1 .106-.152c.04-.037.104-.101.191-.192l.355-.374c.149-.158.262-.326.338-.503.076-.177.117-.413.123-.708.006-.295-.005-.478-.033-.55" stroke="#171612" stroke-width="1.7"/><path d="M46.194 50.177a3.02 3.02 0 0 1 .446-.017l.243.044c.12.02.319.07.594.149.275.079.498.155.67.227.172.07.272.126.3.165.026.038.057.056.091.056.035-.001.087.026.156.082l.262.209a18.749 18.749 0 0 1 .727.618c.088.08.167.154.236.222.07.068.16.145.272.233.112.087.166.145.162.173-.003.028.055.102.173.223a59.822 59.822 0 0 1 .68.703c.13.134.255.26.376.376.122.116.268.248.44.397.17.148.365.29.581.429.218.138.413.257.587.357.174.099.326.178.454.238.129.06.267.133.415.22.148.087.306.189.475.305.17.115.336.215.498.3.163.084.36.166.591.245.23.078.434.123.608.135.175.012.313.043.415.093.102.05.197.092.283.126.087.032.25.078.487.137.238.058.423.08.553.068a.873.873 0 0 1 .175-.013c-.013.004.006.002.056-.007.05-.01.055-.005.011.014-.043.018.104.021.442.009.339-.012.648-.057.926-.135l.395-.11c-.016.004-.008-.002.023-.016.03-.015.083-.045.156-.09.074-.045.098-.056.072-.032a.952.952 0 0 0 .018-.016c.038-.034.042-.035.013-.001-.03.033-.04.045-.03.037l.037-.038.264-.27c.16-.164.242-.244.248-.238.163-.192.236-.282.22-.268.038-.088.077-.208.115-.36a.703.703 0 0 1 .233-.375c.117-.1.212-.182.286-.25a.67.67 0 0 0 .112-.113c0-.008-.012-.012-.038-.012-.024-.001.05-.104.223-.31.174-.205.237-.309.19-.31.192-.342.236-.468.134-.377.04-.114.053-.17.038-.167.02-.262.019-.354-.002-.276-.017-.334-.032-.42-.044-.26-.203-.418-.277-.578-.222-.478.055.1.07.087.043-.04a5.3 5.3 0 0 1-.056-.307 2.938 2.938 0 0 0-.05-.256.728.728 0 0 1-.03-.153c.002-.01.005.012.01.068.003.055-.023-.01-.08-.197-.059-.187-.095-.286-.11-.298-.016-.012-.028-.047-.038-.105a2.988 2.988 0 0 1-.02-.353 2.46 2.46 0 0 1 .002-.311c.006-.03.018-.013.034.05a.167.167 0 0 1 .007-.016l.028.23M48.348 45.764c.002.006.072.02.208.046.136.025.329.076.578.153.25.077.455.15.617.22.162.071.318.122.466.153.148.03.247.07.297.117.05.047.154.125.312.233.158.108.262.181.31.22.049.04.094.06.134.064.04.002.098.048.171.14.074.09.2.188.38.29.179.103.352.197.518.283a25.118 25.118 0 0 0 1.87.854c.264.107.536.205.816.293.28.088.549.164.804.229.256.064.498.116.728.157l.606.103c.174.028.347.055.521.08.174.025.358.062.553.11.195.047.378.069.55.066.172-.003.334-.002.485.002.152.004.215 0 .187-.013-.027-.012.042.002.206.042.164.04.318.068.462.084.145.015.304.008.477-.021l.27-.047a2.58 2.58 0 0 1 .278-.07c.12-.026.174-.042.16-.05-.012-.007-.013-.013-.003-.017l.145-.07a1.49 1.49 0 0 0 .336-.257c.138-.13.3-.307.484-.53.186-.221.27-.332.251-.332h-.027l.096-.152c.064-.102.156-.257.275-.466.12-.21.206-.365.258-.47.053-.103.074-.155.062-.155-.012 0-.015-.01-.009-.026l.066-.198a215.79 215.79 0 0 0 .326-.976c.04-.123.069-.221.086-.295.018-.074.019-.117.004-.128a8.39 8.39 0 0 1 .143-.791c.042-.163.059-.25.05-.26.011-.092.02-.216.028-.37a3.046 3.046 0 0 0-.008-.444 8.549 8.549 0 0 0-.06-.474 7.186 7.186 0 0 0-.083-.467 2.128 2.128 0 0 0-.147-.43c-.068-.15-.111-.233-.13-.247a.505.505 0 0 1-.086-.116 1.843 1.843 0 0 0-.21-.26 3.215 3.215 0 0 0-.4-.353 5.32 5.32 0 0 0-.496-.333 14.66 14.66 0 0 0-.499-.28c-.167-.09-.316-.172-.446-.245-.13-.074-.267-.156-.414-.247a8.853 8.853 0 0 1-.46-.31 11.75 11.75 0 0 1-.502-.38" stroke="#171612" stroke-width="1.7"/><path d="M59.051 40.825c.084-.305.134-.457.15-.455.023.062.129-.353.318-1.247.052.158.072.223.061.197.087.298.117.418.09.359 0 .02.007.12.018.304.012.182.008.254-.01.215-.02-.04-.016-.048.008-.022.024.025.024.154 0 .386-.025.23-.084.403-.177.515a7.581 7.581 0 0 1-.267.305c-.085.092-.123.113-.115.065.009-.05-.015-.011-.072.114-.056.124-.373.229-.95.314-.576.084-1.023.079-1.339-.015a25.757 25.757 0 0 0-.946-.264 21.123 21.123 0 0 1-.742-.203 1.727 1.727 0 0 0-.31-.077c-.028.002-.031.004-.01.005a16.924 16.924 0 0 0-.847-.024 4.995 4.995 0 0 1-.728-.052 8.872 8.872 0 0 1-.4-.071 7.818 7.818 0 0 1-.35-.097c-.168-.05-.213-.06-.135-.032.079.027-.065-.02-.432-.141-.366-.121-.762-.357-1.19-.708-.427-.352-.676-.625-.747-.818a1.713 1.713 0 0 1-.117-.481 4.295 4.295 0 0 0-.013-.196c-.002-.003.004-.003.018-.001.014.002.027-.042.04-.132.013-.091.03-.228.052-.41.022-.184.053-.275.092-.273.04 0 .067-.03.083-.093a3.01 3.01 0 0 1 .095-.285M22.895 8.532c.145.235.28.463.408.683a15.013 15.013 0 0 1 1.084 2.252c.102.266.214.59.336.97.123.382.195.593.216.634.022.04.062.15.12.328.058.178.129.386.211.624.083.238.169.437.257.599.09.162.188.332.295.51a8.051 8.051 0 0 0 .64.924 58.998 58.998 0 0 0 .721.898l.175.23c.118.156.215.317.29.484.076.166.183.354.323.563.14.209.298.418.472.626.175.208.302.36.38.455.079.095.14.173.184.235.045.062.086.113.122.154l.073.083c.013.015.05.046.112.094l.198.15c.07.054.151.122.245.205.094.082.183.17.267.263.085.093.166.19.242.294a8.767 8.767 0 0 1 .476.71 24.092 24.092 0 0 1 .456.774 2.1 2.1 0 0 0 .21.32c-.025-.025.043.053.204.236.162.182.28.325.352.429.074.104.107.147.1.13-.009-.018 0-.004.028.04.027.043.119.144.276.304l.45.45c.143.14.202.194.177.162a.386.386 0 0 1 .011.01c.024.03.028.028.012-.005-.016-.034-.003-.015.038.058.04.072.103.164.187.277l.345.456c.146.19.285.369.417.533.132.163.287.342.463.537a404.735 404.735 0 0 0 .463.513c.05.058.078.08.082.07.004-.011.048.027.133.114.086.086.214.219.385.4a31.25 31.25 0 0 0 .947.948 36.276 36.276 0 0 0 1.365 1.239c.13.113.267.229.41.348.142.119.24.19.294.214a.69.69 0 0 1 .123.065c.029.019.177.065.443.139" stroke="#171612" stroke-width="1.7"/><path d="M50.03 37.857c.215-.61.619-1.774 1.212-3.491l1.775-5.136" stroke="#171612" stroke-width="1.221"/><path d="M53.535 27.736c.126-.366.317-.91.571-1.634a287.167 287.167 0 0 1 1.213-3.382l.543-1.48" stroke="#171612" stroke-width="1.405"/><path d="M58.051 41.305c.028.002-.205-.003-.699-.013-.11.006-.132-.136-.064-.427a9.43 9.43 0 0 1 .211-.765 33.331 33.331 0 0 1 .401-1.134 121.084 121.084 0 0 1 .474-1.253 162.723 162.723 0 0 1 .694-1.79 107.172 107.172 0 0 1 .608-1.511l.306-.761a102.188 102.188 0 0 0 .637-1.626 353.886 353.886 0 0 0 .555-1.481c.099-.264.207-.564.325-.898.119-.335.25-.712.394-1.131a274.184 274.184 0 0 0 1.032-3.065" stroke="#171612" stroke-width="1.479"/><path d="M54.215 2.12a467.38 467.38 0 0 1 5.62 2.729A151.712 151.712 0 0 1 62.3 6.107" stroke="#171612" stroke-width="1.605"/><path d="M67.851 9.157c1.208.616 2.212 1.08 3.013 1.395.802.313 1.38.53 1.736.65.355.12.67.248.946.385.276.136.633.404 1.071.803" stroke="#171612" stroke-width="1.543"/><path d="M53.517 2.413c-.473.49-.912.956-1.318 1.399-.405.442-.776.859-1.112 1.252a31.3 31.3 0 0 0-.905 1.106c-.267.344-.551.74-.852 1.189-.3.448-.6.947-.902 1.499a14.859 14.859 0 0 0-.76 1.59 9.382 9.382 0 0 0-.495 1.827 19.777 19.777 0 0 0-.26 2.419M74.622 12.39c-.158-.024-.347.017-.567.125-.22.107-.47.28-.75.519-.281.239-.54.473-.775.702-.235.228-.447.45-.637.67-.19.218-.362.423-.519.615a14.91 14.91 0 0 0-.418.537c-.122.165-.264.369-.426.61-.161.243-.317.483-.467.723a8.764 8.764 0 0 0-.657 1.235 5.932 5.932 0 0 0-.242.66 8.547 8.547 0 0 0-.177.712c-.051.25-.106.51-.166.78-.06.269-.13.536-.21.8-.081.265-.172.56-.274.883a5.549 5.549 0 0 0-.212.96c-.04.316-.129.628-.267.938-.138.31-.243.63-.314.964-.07.333-.078.598-.022.794.057.195.114.372.17.532.058.159.1.335.126.527.027.192.138.404.332.635.195.23.428.486.698.766.272.279.515.646.73 1.102M69.932 29.78c.306-.164.547-.31.723-.438a4.24 4.24 0 0 0 .485-.41 17.35 17.35 0 0 1 .96-.88c.171-.147.369-.326.592-.534.224-.21.472-.45.746-.72.274-.27.495-.491.663-.663.168-.172.284-.295.347-.368.063-.074.16-.194.291-.358.132-.165.297-.375.497-.631s.363-.462.49-.62c.125-.16.215-.269.267-.33.053-.06.15-.182.29-.366.139-.184.321-.43.547-.736.227-.307.412-.603.556-.888a3.75 3.75 0 0 0 .311-.823 143.27 143.27 0 0 1 .305-1.253c.039-.154.083-.377.133-.67a172.276 172.276 0 0 1 .33-1.88c.052-.29.084-.612.096-.97a3.675 3.675 0 0 0-.095-1 6.415 6.415 0 0 0-.257-.826 4.812 4.812 0 0 0-.364-.731 3.755 3.755 0 0 0-.449-.612 1.048 1.048 0 0 0-.62-.308c-.261-.043-.564-.105-.91-.185-.345-.082-.541-.157-.589-.226-.047-.07-.026-.053.063.05M61.852 34.28c-.163-.015-.352-.59-.566-1.722-.098-.218.038.012.406.69.368.678.685 1.295.95 1.852.266.556.444.92.534 1.09M61.74 38.003c1.012-.946 1.57-1.469 1.678-1.567M53.035 28.414c-1.194-.002-2.073-.031-2.636-.086a16.794 16.794 0 0 1-1.545-.217c-.468-.09-.858-.167-1.172-.23a11.228 11.228 0 0 0-.972-.146 8.251 8.251 0 0 0-.916-.052c-.276 0-.58.02-.91.059-.331.039-.69.126-1.075.26a10.016 10.016 0 0 0-1.549.673c-.175.093-.36.195-.557.307-.196.11-.402.237-.616.38-.214.144-.442.301-.683.473-.24.17-.448.313-.623.427-.174.114-.311.2-.413.259M67.332 10.568c-.124.11-.234.19-.33.24-.097.049-.207.123-.33.223-.122.099-.247.21-.375.33a1.01 1.01 0 0 1-.434.249 4.8 4.8 0 0 0-.609.228c-.244.106-.576.1-.994-.021a30.592 30.592 0 0 1-1.615-.513 1.81 1.81 0 0 1-.447-.243 2.892 2.892 0 0 1-.472-.432 6.222 6.222 0 0 1-.518-.648 1.114 1.114 0 0 1-.144-.303 1.541 1.541 0 0 1-.067-.387 3.665 3.665 0 0 1 .012-.46c.015-.169.037-.334.067-.494.03-.16.083-.336.161-.526a7.67 7.67 0 0 1 .286-.613c.113-.218.223-.427.331-.63.108-.201.215-.387.32-.556a36.168 36.168 0 0 1 .473-.742c.088-.133.199-.3.334-.498.135-.2.29-.419.464-.655a68.285 68.285 0 0 1 .933-1.241 329.27 329.27 0 0 0 .835-1.095c.136-.18.219-.29.25-.335M65.73 1.112c-.033.099-.06.254-.082.465-.022.21.003.434.077.674.074.238.19.473.348.704.158.23.298.427.418.593.122.165.27.332.446.5.176.167.389.337.64.51.252.172.5.31.746.417.465.1.828.179 1.09.233.475.084.896.106 1.264.064" stroke="#171612" stroke-width="1.7"/><path d="M70.34 5.705c-.238.106-.364.127-.379.064-.015-.063-.128.029-.338.276-.21.247-.393.5-.549.76-.156.259-.323.564-.5.916a49.45 49.45 0 0 0-.463.935c-.13.272-.234.497-.314.676-.08.178-.14.32-.178.426a1.335 1.335 0 0 0-.07.244" stroke="#171612" stroke-width="1.668"/><path d="M65.905 1.062c.463-.03.862-.03 1.196.002.336.03.607.093.815.186.344.124.6.268.77.433.17.164.318.295.442.393.124.097.262.213.414.347.152.134.3.322.443.563.145.24.247.547.307.919s.187.672.38.9M47.093 15.559c.056.034.148.087.277.158l.5.265c.203.106.382.2.535.284.154.083.309.17.464.26.156.092.324.183.504.275.18.092.426.22.735.384.31.163.605.327.887.49.282.165.512.298.69.399.179.1.335.187.467.257a9.504 9.504 0 0 1 .619.349c.147.09.27.165.367.226.098.06.194.122.29.184l.337.216c.128.082.335.202.62.359.285.156.562.334.832.533.27.198.497.358.678.478.18.12.363.233.547.34.184.108.338.224.462.349.124.124.302.27.534.438.232.166.412.289.54.367a8.767 8.767 0 0 1 .576.38c.033.024.073.049.12.075.046.026.161.09.345.19.185.103.359.218.522.346.164.128.305.227.424.298l.42.243c.16.09.293.178.4.26.106.082.224.166.354.254.13.086.29.19.48.309a77.188 77.188 0 0 1 1.277.823c.239.155.497.318.774.489.278.17.669.402 1.174.695.253.146.556.332.91.556.353.224.759.488 1.217.792.682.374 1.097.625 1.246.755.149.13.215.195.198.196-.017 0 .029.029.138.086.109.057.279.182.51.376.232.193.482.374.75.542M42.641 60.167c-.033-.144-.042-.201-.027-.173.03-.282.04-.388.027-.317-.012.07.005.03.053-.116.032-.012-.014.182-.136.58-.122.4-.341.998-.658 1.798-.316.799-.512 1.274-.588 1.425M48.63 63.393l-.14-.451c-.15.18-.203.257-.159.232-.056.12-.215.691-.479 1.71-.262 1.02-.415 1.59-.459 1.71M42.292 63.749a122 122 0 0 1-.688.212c-.07.048-.022-.004.144-.156a.671.671 0 0 1 .083.085c.12.176.162.24.126.19-.034-.048 0-.012.105.109.104.12.134.168.088.145-.046-.024.08.148.38.514s.554.656.76.872c.208.215.351.365.431.449.08.084.358.218.834.403.477.184.941.267 1.393.247.452-.02.711-.027.777-.02" stroke="#171612" stroke-width="1.7"/></g></svg>