<svg width="1162" height="208" xmlns="http://www.w3.org/2000/svg"><g fill="none" fill-rule="evenodd" stroke-linecap="round" stroke-linejoin="round"><path d="m1153.488 65.751.074.041.421.2a6.018 6.018 0 0 0-.296.956.422.422 0 0 0-.018.151c-.008.316.007.631.044.945a.95.95 0 0 0 .08.323c.087.24.188.476.302.705.062.146.155.283.28.411l.428.448.206.215c.054.063.25.194.587.393.338.2.898.495 1.682.887l.664.367c.178.31.303.502.374.578.324.44.56.755.707.945.148.19.365.465.652.821-.026.432-.045.83-.057 1.194-.186.524-.366 1.07-.539 1.636a43.19 43.19 0 0 0-.42 1.706l-.007.017c-1.947.083-5.607.172-10.98.267-9.582.2-16.994.31-22.234.327-5.24.017-9.618.024-13.134.02a10308.102 10308.102 0 0 1-18.414-.028 156626.721 156626.721 0 0 1-53.367-.152l-17.775-.052-17.774-.052a968095743.573 968095743.573 0 0 1-870.934-2.547c-5.924-.017-11.85-.033-17.779-.047-5.927-.014-11.87-.012-17.828.005-5.958.018-11.99.116-18.1.294-6.108.178-12.353.498-18.733.96-6.38.463-12.748.897-19.106 1.303-6.356.406-12.409.453-18.158.141a383.62 383.62 0 0 1-16.822-1.276l.254-.518c.17-.345-.203.64-1.117 2.956.522-1.103.774-1.562.754-1.376.03-.2 1.032-1.577 3.006-4.135 1.974-2.557 3.45-4.44 4.428-5.65a86.304 86.304 0 0 0 2.271-2.905c.536-.726 1.57-2.17 3.1-4.335 1.531-2.164 2.92-4.119 4.166-5.863 1.246-1.744 2.19-3.008 2.833-3.793.643-.785.978-1.163 1.006-1.133.028.03.573-.61 1.633-1.917a64.848 64.848 0 0 0 2.69-3.526c.732-1.042 1.724-2.314 2.975-3.815 1.252-1.5 2.172-2.657 2.761-3.47.59-.815 1.548-2.152 2.878-4.01a251.013 251.013 0 0 1 5.404-7.296c.298-.38.62-.77.965-1.169.346-.4.532-.612.556-.64.024-.028.012.004-.038.094s.181-.16.693-.755c.513-.594.87-1.018 1.07-1.272.2-.254.546-.621 1.04-1.103.495-.481 1.027-.98 1.596-1.496.57-.516 1.065-.94 1.487-1.272.422-.332.911-.747 1.466-1.243.556-.496.877-.774.962-.832.086-.058.101-.05.047.026-.054.075-.011.04.13-.103.14-.143.822-.723 2.048-1.74a167.541 167.541 0 0 1 2.853-2.326 26.086 26.086 0 0 0 1.506-1.26c.328-.307.52-.477.575-.513.055-.036.044-.015-.032.063-.076.079.108-.063.552-.426.445-.362.99-.781 1.636-1.257l1.853-1.359c.588-.431.881-.65.88-.657a8.145 8.145 0 0 1 .478-.39c.321-.255.431-.34.331-.256-.1.086-.1.095-.002.027.1-.068.104-.066.016.004s-.102.085-.044.043c.06-.041.486-.35 1.281-.926.796-.575 1.159-.814 1.087-.716.796-.585 1.137-.835 1.023-.75.514-.416 1.388-1.21 2.622-2.38 1.148.043 1.532.04 1.151-.008.98-.318 1.346-.448 1.101-.392a7.197 7.197 0 0 1 1.537-.286c.463-.028 1.105-.066 1.926-.112.822-.046 1.21-.058 1.164-.036-.046.022-.033.005.037-.052.071-.056.46-.043 1.165.041.707.084 1.435.205 2.183.362.748.158 1.288.257 1.62.296.33.04 1.202.167 2.612.382 1.412.216 2.572.355 3.482.415.911.062 1.782.09 2.613.084.832-.005 1.28-.014 1.342-.026.064-.012.23-.015.5-.01.268.003.556.01.862.017.306.008.753 0 1.34-.026.586-.024.816-.05.69-.074-.125-.024-.008-.042.352-.056.36-.012.793-.023 1.3-.03.505-.008 1.46.007 2.861.045 1.403.038 2.526.077 3.37.118.843.042 1.509.066 1.995.074.487.009.816.017.988.024.173.008.444.017.812.026.37.01 1.547.019 3.533.028 1.986.009 3.745.033 5.276.071 1.531.039 2.927.076 4.19.112 1.26.037 2.4.06 3.416.072 1.017.012 1.794.036 2.331.071.537.036 1.545.122 3.025.256 1.48.136 2.707.206 3.682.211.975.006 1.893.004 2.754-.006.862-.01 2.637-.067 5.326-.174 2.69-.106 5.118-.21 7.285-.31 2.168-.101 4.588-.342 7.261-.722 2.674-.38 6.167-.543 10.48-.493 4.314.05 8.326.148 12.035.292 3.71.145 6.514.225 8.412.24 1.898.015 3.933.165 6.105.45 2.172.286 4.167.556 5.983.811 1.816.256 3.91.354 6.28.295 2.37-.058 4.564.066 6.58.372 2.017.307 4.609.591 7.775.853 3.166.262 5.586.361 7.26.297 1.673-.064 4.327-.142 7.961-.232 3.634-.09 6.777-.238 9.427-.444 2.65-.205 4.425-.38 5.323-.522.9-.142 2.577-.236 5.033-.28 2.456-.043 6.368-.49 11.734-1.338 5.367-.848 10.051-1.254 14.052-1.219 4.001.036 7.042.274 9.124.714 2.082.442 3.628.723 4.64.844a55.97 55.97 0 0 0 3.091.283c1.052.068 3.598.112 7.64.133 4.042.02 9.181.099 15.416.233 6.236.134 10.93.294 14.082.478 3.152.185 5.538.308 7.16.37 1.622.063 4.598.085 8.93.067 4.33-.017 7.71-.051 10.134-.103 2.426-.05 4.54.04 6.343.274 1.804.234 3.415.322 4.834.265 1.42-.056 5.075-.088 10.967-.096 5.892-.006 10.558.046 14 .158 3.44.113 7.013.19 10.717.232 3.705.042 7.3.216 10.785.521 3.486.306 6.216.546 8.192.722 1.976.176 4.615.288 7.92.336 3.303.05 5.681.02 7.133-.086 1.453-.106 2.737-.187 3.853-.243 1.116-.056 2.733-.08 4.85-.07 2.117.01 4.545.134 7.285.372 2.74.239 4.63.388 5.668.448 1.038.06 2.323.133 3.855.217 1.532.086 2.801.106 3.806.061 1.005-.044 3.413-.106 7.225-.184 3.812-.077 6.9-.196 9.261-.357 2.363-.16 4.203-.311 5.52-.452 1.318-.14 2.9-.263 4.744-.37 1.845-.106 3.644-.248 5.396-.428 1.754-.18 3.07-.358 3.946-.534.877-.176 3.592-.666 8.146-1.472 4.554-.805 9.36-1.364 14.418-1.677 5.06-.312 8.886-.522 11.482-.628 2.596-.106 4.412-.116 5.448-.032 1.036.084 3.08.243 6.131.475 3.052.233 5.873.5 8.465.8 2.592.302 4.97.53 7.131.686 2.163.156 4.547.253 7.152.291 2.606.038 5.447-.077 8.523-.346 3.078-.27 6.394-.718 9.948-1.348 3.556-.63 6.808-.823 9.756-.58 2.95.241 5.64.562 8.068.961 2.43.4 4.617.733 6.561 1a60.09 60.09 0 0 0 6.225.501c2.206.069 3.91.028 5.114-.123a70.829 70.829 0 0 1 2.753-.304c.632-.052 1.5-.116 2.603-.194a65.556 65.556 0 0 1 2.503-.14l3.196-.084a36.476 36.476 0 0 0 4.973-.49c1.75-.287 4.134-.48 7.152-.58 3.018-.1 5.576-.066 7.672.104 2.096.17 3.812.253 5.147.246 1.336-.007 2.68.045 4.032.155 1.352.11 2.434.268 3.246.472.812.204 2.592.433 5.34.686a62.53 62.53 0 0 0 7.857.251c2.49-.086 5.209-.235 8.155-.447 2.946-.212 5.63-.473 8.05-.785 2.42-.31 4.405-.557 5.955-.74 1.55-.183 3.648-.346 6.295-.489a185.18 185.18 0 0 1 6.51-.258c1.692-.03 3.438.045 5.237.223 1.8.178 3.954.44 6.464.787 2.511.346 4.931.59 7.261.731 2.331.14 5.063.195 8.196.162 3.134-.033 5.753-.134 7.856-.303 2.104-.168 3.539-.27 4.305-.305.767-.035 2.315-.042 4.645-.022 2.33.02 5.57.062 9.72.125 4.15.064 7.833.089 11.047.076 3.216-.013 5.963-.064 8.243-.154 4.561-.18 8.022-.211 10.384-.096 2.362.116 4.084.22 5.167.313 1.084.094 1.93.204 2.541.332.61.128 2.41.195 5.398.2 2.99.005 6.015-.042 9.08-.142 3.063-.1 6.33-.097 9.801.007 3.47.104 6.465.15 8.985.135 2.52-.014 5.392.169 8.617.548 3.226.38 5.744.591 7.554.635 1.811.044 3.192.097 4.144.16.952.062 3.353.035 7.202-.082 3.85-.116 7.41-.235 10.683-.357 3.272-.122 5.703-.134 7.293-.036 1.59.099 3.638.046 6.143-.159 2.506-.204 4.857-.26 7.052-.165 2.196.095 4.32.11 6.372.045 2.052-.064 4.55-.085 7.491-.062 2.942.024 5.401.13 7.38.322 1.978.192 4.012.31 6.102.353 2.091.044 4.45.249 7.078.615s5.174.618 7.636.756c2.463.138 4.372.237 5.726.298 1.354.062 2.846.138 4.475.23 1.63.09 3.034.182 4.213.275 1.18.094 2.077.158 2.694.193l1.795.102c.58.034 1.25.06 2.01.08.761.019 1.512.035 2.254.05.742.014 1.465.023 2.167.026.704.004 1.244-.002 1.622-.018.378-.015.601-.038.67-.069.07-.031 1.26-.002 3.574.088 2.315.09 4.845.178 7.59.262 2.744.086 6.765.202 12.062.35 5.298.147 9.594.214 12.888.198 3.294-.014 6.759.065 10.393.237l9.464.454c2.676.13 4.638.167 5.888.111 1.25-.055 2.052-.078 2.405-.069.354.01.507.008.46-.007-.049-.014.124-.036.516-.064a67.08 67.08 0 0 1 1.783-.092 41.1 41.1 0 0 0 1.32-.064c.083-.01.112-.016.085-.017-.027-.001-.028-.003-.004-.006.026-.002.027-.006.005-.01s-.03-.006-.024-.008a1.24 1.24 0 0 1 .066-.008c.038-.004.308-.014.81-.03s1.15.035 1.943.151c.422.872.62 1.163.593.872.51.802.731 1.07.665.807.944.887 1.32 1.156 1.124.808 1.413.902 1.952 1.172 1.617.808-.066-.184.112-.143.534.124.422.267 2.472 1.494 6.148 3.68a376.19 376.19 0 0 0 9.597 5.542c2.722 1.509 4.871 2.665 6.448 3.47a68.935 68.935 0 0 0 4.474 2.094c1.405.593 2.425 1.01 3.06 1.254.636.244.945.372.926.384-.018.013-.069-.043-.15-.169-.083-.125 1.59.576 5.021 2.103 3.431 1.528 5.969 2.746 7.613 3.656 1.646.91 4.019 2.117 7.12 3.62a354.273 354.273 0 0 0 11.027 5.141l-.136.398c-.066.193-.113.41-.14.65-.028.24-.017.602.031 1.084-.005.126.05.373.167.74.117.366.293.702.528 1.006.236.305.667.692 1.293 1.16.493.326 1.126.646 1.898.962.811.255 1.808.533 2.99.835.444.142.89.282 1.34.418.447.138 1.41.43 2.886.88l.628.22.33.153c.938.468 1.576.785 1.914.95a519.674 519.674 0 0 0 4.079 1.941c.283.133.46.212.532.237.792.383 1.347.65 1.665.8.318.149.484.226.497.231l.255.137c.62.475.935.716.946.723l.017.014.571.728.53.628a12.99 12.99 0 0 0 1.69 1.67c.77.468 1.281.75 1.535.85.78.405 1.325.663 1.636.772.772.347 1.315.57 1.63.671.738.3 1.217.484 1.44.55.67.277 1.085.436 1.244.475l.33.095 1.03.407.457.155c.68.299 1.03.452 1.054.458l.443.168c.634.302 1.018.476 1.152.523l.518.213c.618.27.939.408.961.415" stroke="#DE9C6F" stroke-width=".5" fill="#DE9C6F" fill-rule="nonzero"/><path d="m1159.071 76.964-.116.416-.456-.06c.018-.02-.023-.036-.123-.047a8.62 8.62 0 0 1-.399-.053c-.167-.025-.265-.047-.293-.065-.027-.017.075.006.307.068.232.064-.206-.144-1.316-.622.308-.5.47-.763.484-.788a14.29 14.29 0 0 1-.24.838c.012.003.014.02.006.05l-.138.545c-.084.334-.121.505-.11.513.01.008.021-.023.03-.092.01-.068-.026.288-.109 1.07-.083.78-.065 1.99.053 3.627.118 1.638.189 2.587.211 2.846.023.26 0 .313-.067.161-.066-.152-.108-.065-.125.263-.016.328-.054.692-.115 1.091-.06.4-.142.77-.243 1.111-.1.34-.448 1.277-1.04 2.807a90.713 90.713 0 0 1-1.888 4.505c-.665 1.474-.923 1.931-.775 1.373-.007-.086-.104.23-.292.95-.186.72-.32 1.283-.404 1.69-.083.405-.122.546-.117.422.005-.124-.003-.163-.025-.118-.02.046-.052.198-.094.458-.04.26-.103.778-.186 1.552a6.651 6.651 0 0 1-.549 2.086c-.283.616-.387.772-.313.466.075-.306-.106-.123-.543.55a4.7 4.7 0 0 0-.049.073l-.047-.02c-.408.237-.63.38-.663.43.03.005-.106.149-.405.432-.298.284-.567.465-.805.543-.238.079-.346.109-.326.09.021-.02.03-.03.03-.028a3.525 3.525 0 0 1-.122.042c-.078.027-.45.053-1.117.08-.666.025-1.402.046-2.209.061a53.73 53.73 0 0 1-2.507-.015 13.61 13.61 0 0 1-2.472-.289c-.783-.168-1.152-.22-1.108-.154.075 0-.235-.052-.929-.155.064-.017.052-.023-.036-.017-.088.006-.451.051-1.09.135-.64.085-.936.12-.888.103.048-.015.046-.018-.005-.008a2.05 2.05 0 0 0-.213.056c-.09.028-.552.076-1.386.142.052.048-.475.044-1.58-.01a139.97 139.97 0 0 1-1.628-.083c.02-.001-.418-.019-1.313-.053-.894-.034-2.219-.032-3.975.004-1.755.037-3.267.02-4.536-.052-1.268-.071-3.24-.03-5.919.123-2.677.154-6.119.307-10.325.461-4.206.155-7.534.297-9.984.427-2.449.13-4.523.113-6.222-.05-1.699-.165-4.176-.136-7.43.085-3.254.22-6.117.394-8.589.52-2.472.126-4.629.11-6.47-.048-1.843-.157-2.59-.24-2.243-.249.348-.008.33-.013-.055-.013-.384 0-.765-.013-1.144-.04a87.51 87.51 0 0 1-1.11-.087 63.31 63.31 0 0 0-1.027-.079 46.026 46.026 0 0 0-1.902-.057c-.944-.016-2.1 0-3.47.05-1.369.048-2.434.09-3.195.126l-3.619.172c-1.65.08-2.867.133-3.649.16-.782.027-2.54.082-5.277.164-2.735.083-5.943.3-9.624.653-3.68.354-5.898.525-6.656.514-.757-.01-1.886.008-3.388.053-1.5.046-3.378-.056-5.633-.305-2.254-.248-4.82-.463-7.699-.644-2.879-.181-5.359-.325-7.44-.43-2.08-.107-4.093-.233-6.039-.377-1.946-.143-4.31-.14-7.096.007-2.785.148-5.395.162-7.83.042-2.435-.12-4.193-.237-5.274-.353-1.08-.115-2.577-.164-4.489-.147-1.91.018-4.667-.016-8.269-.102-3.6-.086-6.023-.111-7.267-.077-1.244.034-2.147.055-2.71.062-.562.008-1.326 0-2.292-.02-.964-.02-2.18-.074-3.645-.16-1.465-.088-3.56-.08-6.287.026-2.725.106-6.862.177-12.412.215-5.549.038-10.908.038-16.076 0-5.167-.038-8.895-.09-11.185-.156a92.415 92.415 0 0 0-6.53.033c-2.065.088-4.315.104-6.75.047a369.62 369.62 0 0 1-8.418-.306 397.94 397.94 0 0 1-7.012-.368c-1.498-.1-2.797-.194-3.897-.286a71.78 71.78 0 0 0-3.529-.2 71.665 71.665 0 0 0-4.476.013c-1.73.052-3.531.088-5.403.11-1.87.021-4.452.119-7.744.292-3.292.174-7.234.206-11.828.096-1.967-.428-4.146-.906-6.538-1.432a128.337 128.337 0 0 0-8.03-1.469c-2.963-.454-5.404-.733-7.324-.838-1.92-.104-3.399-.136-4.437-.097-1.038.04-2.692.009-4.963-.095-2.27-.103-4.922-.113-7.952-.029-3.03.084-6.047.173-9.05.267-3.004.094-5.287.104-6.85.03-1.564-.074-3.483-.16-5.758-.259-2.274-.1-4.578-.218-6.912-.358-2.334-.138-5.079-.241-8.236-.309-3.157-.066-6.018-.05-8.583.051-2.564.102-5.323.302-8.279.602-2.954.3-5.696.495-8.224.581-2.528.088-5.393.081-8.597-.019-3.202-.1-6.033-.231-8.492-.396-2.458-.164-5.904-.337-10.339-.518-4.434-.18-7.815-.375-10.143-.585a40.05 40.05 0 0 0-6.713-.064c-2.148.167-4.61.5-7.383.997a272.351 272.351 0 0 1-9.535 1.514c-3.583.512-7.3.745-11.153.701a574.06 574.06 0 0 1-9.538-.172c-2.507-.07-4.668-.145-6.483-.224-1.815-.08-3.984-.347-6.508-.804-2.523-.456-6.293-.912-11.309-1.368-2.77.076-5.903.308-9.399.698-3.496.39-6.719.73-9.67 1.018-2.95.288-6.264.717-9.938 1.288-6.28 0-11.036-.117-14.267-.35-3.23-.234-5.63-.442-7.202-.625-1.57-.182-3.237-.337-5-.467-1.764-.13-3.809-.25-6.136-.364a101.721 101.721 0 0 0-6.504-.125c-2.008.03-3.797.08-5.365.148a164.67 164.67 0 0 1-5.914.137 35.104 35.104 0 0 1-6.973-.64c-2.299-.446-4.583-.816-6.85-1.112a67.76 67.76 0 0 0-7.003-.536c-2.684.073-5.772.264-9.262.573-3.49.309-7.239.67-11.247 1.086-4.007.415-7.005.6-8.994.558a195.755 195.755 0 0 1-4.456-.13c-1.799-.165-3.096-.333-3.89-.506-.794-.172-1.985-.294-3.575-.364-1.589-.07-4.06.088-7.415.472-3.353.385-5.697.594-7.033.626-1.335.032-2.657.089-3.965.17-1.307.08-3.115.162-5.423.246a345.84 345.84 0 0 0-7.02.326 97.485 97.485 0 0 0-7.087.66c-2.352.307-5.166.503-8.444.588-3.277.085-8.16.16-14.65.225-6.49.066-12.012.217-16.568.453-4.556.237-8.206.3-10.952.191-2.744-.11-4.572-.187-5.483-.234a72.24 72.24 0 0 0-3.039-.087c-1.116-.01-2.854.075-5.216.255-2.36.18-5.276.39-8.748.632-3.472.24-8.235.382-14.29.422-6.057.042-9.689.13-10.897.265-1.208.136-3.292.284-6.252.445-2.959.162-6.192.38-9.7.655-3.507.276-7.29.57-11.349.882-4.058.313-9.158.62-15.3.924-6.142.304-13.185-.079-21.127-1.147-7.942-1.068-13.768-1.8-17.476-2.198-3.708-.396-6.607-.705-8.697-.926a887.68 887.68 0 0 0-9.775-.95c-4.427-.413-9.519-.491-15.275-.235-5.755.257-11.071.367-15.949.33a381.364 381.364 0 0 1-15.769-.47c-5.636-.277-10.11-.476-13.423-.596-3.312-.12-6.044-.192-8.198-.217-2.153-.024-6.357-.125-12.612-.302a981.064 981.064 0 0 1-21.103-.849c-7.814-.39-13.506-1.045-17.077-1.966-3.57-.921-6.097-1.533-7.583-1.836-1.486-.302-3.461-.438-5.927-.408-2.465.03-5.49.072-9.075.124-3.584.053-5.714.153-6.389.3-.674.147-1.435.255-2.283.323-.848.068-1.919.152-3.213.25-1.293.098-3.378.148-6.254.15-2.876 0-5.046-.076-6.512-.229a185.661 185.661 0 0 1-5.252-.637 544.65 544.65 0 0 0-4.195-.55c-.762-.094-2.484-.227-5.166-.398-2.682-.17-6.088-.182-10.218-.036s-6.717.314-7.76.506a72.601 72.601 0 0 0-1.508.282c.04-.004-.267.049-.92.157-.655.109-1.617.26-2.887.456-1.27.195-2.997.389-5.18.582-2.183.194-3.884.39-5.104.59-1.218.199-2.075.335-2.569.41-.494.073-1.727.125-3.7.156-1.974.03-3.638.008-4.992-.07a360.16 360.16 0 0 0-6.596-.282c-3.043-.111-4.53-.12-4.462-.025.07.095.157.076.262-.058.106-.133-.116-.167-.666-.1-.55.065-1.02.172-1.41.32.137-.388-.08-.246-.65.426-.492-2.134-.72-3.161-.684-3.083.037.078.05.138.041.18-.008.04-.028-.147-.06-.563a28.966 28.966 0 0 0-.109-1.157 37.176 37.176 0 0 1-.119-1.188c-.037-.437-.118-1.255-.242-2.454a138.337 138.337 0 0 1-.342-3.879 55.98 55.98 0 0 0-.518-4.42 38.982 38.982 0 0 0-.869-4.21c-.337-1.247-.635-1.62-.894-1.116a.523.523 0 0 0-.15.178c-.182-.432-.524-.15-1.027.844-.036-.06-.149.152-.338.638-.1.026-.128.198-.068.516a93.728 93.728 0 0 0 8.362-2.377c2.57-.87 5.586-1.626 9.05-2.268 3.464-.642 7.735-1.13 12.812-1.463 5.078-.333 11.655-.365 19.732-.095 8.078.27 16.792.695 26.141 1.271 9.35.577 17.351.691 24.006.343a477.68 477.68 0 0 0 19.48-1.41c6.33-.593 13.288-.93 20.875-1.009a801.721 801.721 0 0 1 47.762.918 419.66 419.66 0 0 0 24.84.491c8.055-.086 14.857.177 20.406.79 5.55.611 10.874 1.197 15.973 1.756 5.1.56 10.955.667 17.567.32 6.613-.346 13.642-.951 21.086-1.815 7.444-.863 14.73-1.39 21.856-1.58 7.128-.191 14.524-.281 22.19-.27a6271.015 6271.015 0 0 0 24.448-.01c4.317-.008 8.169.082 11.555.272 3.387.19 6.943.577 10.67 1.16 3.725.582 10.772.994 21.14 1.234s23.503.361 39.405.363c15.903.002 30.657.046 44.261.133 13.605.087 24.207.204 31.805.35 7.6.148 13.111.272 16.535.374 3.424.102 4.73.233 3.92.392-.811.16-3.923.367-9.335.623-5.412.256-9.518.468-12.32.636-2.8.169-2.507.22.882.156 3.39-.064 7.954-.342 13.692-.834a390.054 390.054 0 0 0 17.822-1.957 275.84 275.84 0 0 1 18.381-1.814 96.032 96.032 0 0 1 18.34.57c6.115.776 12.635 1.351 19.56 1.727 3.462.188 7.02.305 10.674.35 3.654.045 7.404.019 11.25-.079 3.847-.098 7.412-.163 10.696-.195 3.284-.03 6.31-.05 9.08-.059 2.77-.008 5.504-.06 8.2-.152 2.697-.093 5.353-.218 7.968-.374 2.616-.155 5.34-.338 8.172-.548 2.833-.21 5.66-.304 8.478-.284 2.82.02 5.775.046 8.868.074 3.093.029 6.355-.05 9.787-.237 3.432-.186 6.449-.209 9.05-.067 2.6.142 5.25.227 7.95.253 2.702.028 5.405.002 8.11-.077 2.705-.078 5.662-.185 8.87-.319 3.208-.134 6.845-.126 10.91.024 4.066.15 8.541.239 13.426.267 4.886.029 11.608-.014 20.168-.129 8.56-.114 16.145-.208 22.754-.282 3.306-.036 6.291-.052 8.957-.047 2.667.006 5.521.044 8.563.114 3.042.07 5.248.186 6.62.346 1.107.113 1.85.22 2.23.32.38.1-1.076.257-4.368.47a259.4 259.4 0 0 1-10.744.454c-3.87.09-6.217.186-7.037.288 1.046-.012 2.814-.173 5.303-.484 2.49-.31 5.241-.656 8.253-1.04a54.284 54.284 0 0 1 9.393-.42c3.114.132 6.306.255 9.574.367 3.27.114 6.596.114 9.98.002 3.384-.112 6.741-.236 10.07-.372a401.12 401.12 0 0 1 9.857-.073c3.291.016 6.487.133 9.59.351 3.1.219 5.894.482 8.378.79 2.485.309 4.889.594 7.211.855 2.302.218 4.71.39 7.226.515 2.516.126 5.163.21 7.942.253 2.891.012 5.817.014 8.78.006 2.96-.007 5.933-.017 8.915-.03a8557882.567 8557882.567 0 0 1 53.737-.25 160417.018 160417.018 0 0 0 35.825-.166 160429.931 160429.931 0 0 1 35.825-.166l17.913-.084 8.966-.045c2.991-.016 5.995-.037 9.012-.064 3.08-.053 6.291-.162 9.634-.328 3.344-.166 6.875-.421 10.594-.767 3.72-.344 6.764-.462 9.133-.353 2.37.11 3.97.495 4.796 1.153.82.68 2.164 1.006 4.034.98 1.871-.026 3.932-.212 6.184-.558 2.252-.345 4.707-.584 7.364-.718a303.34 303.34 0 0 1 7.647-.29c2.44-.061 4.653-.157 6.637-.289 1.985-.13 4.537-.32 7.657-.57" stroke="#C48455" stroke-width=".5" fill="#C48455" fill-rule="nonzero"/><path d="M34.102 101.193c-.436-.108-.59-.149-.464-.12l-.39-.265a7.055 7.055 0 0 1-.15-.363.993.993 0 0 0-.037-.186c.05-.357.055-.476.014-.358.004-.02.014-.09.03-.21-.043.047-.065.347-.065.897a155.602 155.602 0 0 1-.029 3.021 9.63 9.63 0 0 0 .012.844c.016.22.055.94.117 2.157.062 1.218.145 2.146.247 2.785.102.639.131 1.136.087 1.49a35.014 35.014 0 0 0-.1.861c-.002-.004.003-.022.013-.054.011-.032-.022.139-.099.511-.076.373-.178 1.24-.306 2.6a36.228 36.228 0 0 0-.15 4.113c.027 1.383.055 2.43.084 3.144.03.714.04 1.221.033 1.521l-.018.792a7.756 7.756 0 0 1-.015.39 4.079 4.079 0 0 0-.003.321c.002.184.01.396.025.634.015.24.017.317.006.231-.01-.086-.003.262.023 1.044.027.782.122 1.796.284 3.042l.358 2.748c.077.587.155 1.223.235 1.907a64.58 64.58 0 0 1 .311 3.44c.02.35.055.83.104 1.437.05.609.073 1.192.071 1.75 0 .558.004 1.27.016 2.14.012.869.038 1.542.08 2.02.043.478.085 1.024.127 1.638.042.615.062 1.081.06 1.4l-.007.911c-.002.29-.004.43-.006.418l.038 1.498c.028 1.01.015 2.089-.039 3.235-.052 1.148.009 2.61.183 4.39.175 1.779.316 3.162.422 4.148.107.987.155 1.688.145 2.102-.01.414-.014.77-.01 1.07.002.3.042.824.12 1.574.078.75.113 1.467.104 2.151-.009.684-.041 1.508-.097 2.471-.054.964-.082 1.93-.084 2.9 0 .97-.016 1.93-.044 2.88-.028.949-.025 1.846.007 2.69.034.846.063 1.473.088 1.882a32.402 32.402 0 0 1 .06 1.437l.007.194c.007.172-.014.501-.063.99a31.018 31.018 0 0 1-.196 1.546 12.8 12.8 0 0 0-.14 1.181 7.537 7.537 0 0 0-.005.692l.024.478c.006.103.013.306.023.608.01.303-.003.693-.039 1.171a70.818 70.818 0 0 0-.153 2.915c-.002.188.002.465.012.83.01.364 0 .727-.028 1.087s-.06.65-.093.872a113.337 113.337 0 0 1-.155 1.016 92.92 92.92 0 0 1-.044.305 7.023 7.023 0 0 0-.022.17c-.002.03-.025.142-.069.337-.042.195-.098.475-.166.84-.068.366-.116.697-.143.993-.026.296-.03.514-.01.654.02.14.025.197.014.171-.01-.025-.013-.025-.008.001.006.026.002.02-.01-.016-.013-.035.002.048.046.25a19.976 19.976 0 0 1 .19 1l.004.023c0-.006.003.01.012.05.01.039.055.136.14.291.083.155.123.227.12.215-.002-.012.005-.02.021-.026.322.195.438.28.35.255.35.125.462.185.336.18-.154 0-.003.078.453.231.456.154.896.248 1.32.281.424.034.724.03.9-.012.175-.042.406-.09.692-.144.287-.054.468-.096.544-.124.076-.028.093-.036.05-.026-.045.012.083-.01.381-.062a6.3 6.3 0 0 1 .825-.093c.252-.01.496-.041.734-.096.238-.054.752-.252 1.541-.595.79-.343 1.428-.581 1.918-.714.49-.132.855-.205 1.093-.22.24-.014.629-.064 1.167-.15a8.156 8.156 0 0 1 1.627-.095c.546.023 1.063.1 1.553.234.49.133 1.077.25 1.761.353.685.104 1.262.155 1.73.155l1.418.003c.477.002.83-.008 1.06-.03a5.44 5.44 0 0 0 .868-.149.137.137 0 0 1 .057-.012c.014.002.005-.004-.027-.02-.03-.015.23-.083.784-.203.555-.12 1.149-.28 1.781-.482.633-.201 1.056-.378 1.27-.532.213-.154.422-.29.626-.41.205-.12.3-.178.287-.174-.013.004-.02.008-.024.011-.002.004.087-.06.267-.19.181-.13.28-.203.298-.223a.267.267 0 0 0 .037-.047c.007-.012-.002-.003-.027.03-.024.031.058-.054.245-.257.188-.203.348-.391.482-.565.134-.174.239-.312.315-.416.077-.103.107-.146.09-.13-.016.017.022-.02.112-.109.09-.088.52-.584 1.29-1.486a69.75 69.75 0 0 0 1.833-2.224c.454-.581.767-.97.941-1.167.174-.196.472-.49.896-.88.424-.39.756-.691.998-.904.242-.212.382-.338.42-.376.037-.038.101-.101.192-.188.092-.086.218-.21.378-.372s.414-.408.762-.737c.35-.33.64-.607.873-.834.234-.227.381-.381.442-.462.062-.08.11-.138.145-.174a2.39 2.39 0 0 0 .153-.186c.068-.087.204-.294.408-.62.205-.325.36-.578.466-.76a7.34 7.34 0 0 1 .271-.439.915.915 0 0 0 .104-.166c-.006 0 .003-.017.025-.05.023-.033.028-.033.015 0-.012.031-.014.013-.006-.056.008-.068.127-.282.357-.642.23-.358.417-.607.56-.745.142-.138.278-.262.406-.372.13-.11.172-.154.13-.13-.044.023-.03.019.038-.013a.962.962 0 0 0 .27-.227c.11-.12.2-.263.268-.428.068-.165.1-.246.097-.244-.002.004-.002-.006.002-.028a14.298 14.298 0 0 0 .074-.407c-.004.015-.003 0 .003-.045s.006-.046-.002-.004c-.007.043.024-.118.092-.484.07-.365.113-.642.133-.83.02-.19.03-.316.031-.38a.828.828 0 0 0-.003-.126c-.003-.018-.002.004.002.067l-.05-.49-.03-.01c.086.249.1-.608.044-2.57-.056-1.963-.098-3.461-.124-4.497-.026-1.036-.015-1.821.035-2.357.05-.536.085-1.4.105-2.59.022-1.19.04-2.086.056-2.688.017-.601.098-1.429.243-2.483.146-1.053.236-1.849.268-2.387.033-.538.08-1.288.143-2.252.063-.963.042-1.885-.063-2.766-.104-.88-.135-1.654-.094-2.32.042-.666.041-1.244 0-1.733-.042-.49-.08-.842-.113-1.059-.033-.216-.06-.417-.08-.603l-.078-.657a11.21 11.21 0 0 0-.09-.619 10.895 10.895 0 0 0-.251-1.19 34.405 34.405 0 0 0-.418-1.494c-.054-.176-.1-.32-.14-.43-.038-.112-.078-.23-.119-.357a4.622 4.622 0 0 1-.09-.31c-.02-.081-.025-.119-.015-.113.01.007-.006.014-.048.021-.042.007-.16-.59-.353-1.79-.192-1.2-.315-2.076-.368-2.628a82.998 82.998 0 0 1-.17-2.169c-.06-.894-.118-1.952-.172-3.172a57.894 57.894 0 0 0-.174-2.777 578.53 578.53 0 0 0-.165-1.678 36.15 36.15 0 0 1-.045-.497 4.02 4.02 0 0 0-.03-.303c-.002.003-.006-.007-.01-.03-.004-.024-.012-.014-.023.028-.01.043-.05-.331-.122-1.122a11.132 11.132 0 0 0-.47-2.344 65.327 65.327 0 0 1-.605-2.013c-.159-.57-.307-1.155-.444-1.756a55.74 55.74 0 0 1-.46-2.148 88.573 88.573 0 0 1-.078-.429c-.024-.141-.05-.273-.077-.397a13.362 13.362 0 0 1-.089-.459c-.032-.182-.043-.215-.035-.097.01.118-.047-.171-.167-.868a23 23 0 0 1-.254-1.9 68.652 68.652 0 0 0-.225-2.143c-.1-.858-.15-1.41-.147-1.658.004-.247.02-.944.046-2.09.028-1.145.045-1.986.051-2.523a45.23 45.23 0 0 0-.016-1.77 28.715 28.715 0 0 0-.069-1.467c-.027-.335-.05-.58-.069-.737a1.396 1.396 0 0 1-.019-.272.259.259 0 0 0 .01-.053c-.001-.01.001-.061.007-.155a56.578 56.578 0 0 1 .03-.47c0-.008-.002-.004-.006.011a104.756 104.756 0 0 1 .066-1.287 4.27 4.27 0 0 0 .006-.532l-.015-.245a1.053 1.053 0 0 0-.007-.065 2.369 2.369 0 0 0-.064-.216 1.228 1.228 0 0 0-.044-.133c.01.03.013.043.01.04a.906.906 0 0 1-.005-.166l.005-.347c.003-.124.004-.263.004-.416 0-.153 0-.214-.004-.182a5.203 5.203 0 0 0-.006-.236.487.487 0 0 0-.03-.007c.002-.008-.013-.021-.047-.039.08.022.04-.016-.12-.115a.493.493 0 0 0-.489-.035l-.402.184c-.1.047-.343.121-.727.223-.384.103-.73.16-1.04.174-.31.014-.517.02-.62.017a5.05 5.05 0 0 1-.306-.015c-.1-.007-.19-.022-.27-.045-.081-.022-.096-.022-.046.001.051.024-.261-.018-.937-.125-.674-.107-1.42-.3-2.238-.579-.817-.278-1.402-.475-1.754-.59a8.712 8.712 0 0 0-.844-.24 18.166 18.166 0 0 1-.733-.169.827.827 0 0 0-.24-.033c-.045.005-.067-.011-.069-.048 0-.036-.11-.052-.326-.048a1.942 1.942 0 0 0-.632.118 1.314 1.314 0 0 1-.533.094 5.207 5.207 0 0 1-.208-.017.09.09 0 0 1 .04.015c.016.01.002.016-.042.017-.043.002-.064-.014-.064-.048s-.317-.086-.952-.156a8.553 8.553 0 0 0-1.684-.04l-1.075.091a9.86 9.86 0 0 0-.588.063c-.162.024-.752.096-1.77.217-1.017.122-1.93.173-2.739.154-.808-.018-1.478-.074-2.01-.169-.53-.095-.969-.17-1.314-.224a9.743 9.743 0 0 1-.922-.182 1.87 1.87 0 0 1-.153-.032 2.912 2.912 0 0 1-.357-.103c-.123-.044-.373-.088-.75-.132a15.286 15.286 0 0 0-.953-.086 14.138 14.138 0 0 1-.54-.035 2.735 2.735 0 0 0-.203-.015c-.03 0-.036.002-.014.006s-.032.005-.164.001c-.13-.003-.398-.026-.803-.068-.404-.042-1.003.013-1.795.165a26.43 26.43 0 0 0-1.874.417c-.458.125-.918.225-1.38.3l-.005.012a8.356 8.356 0 0 1-.683.067 195.116 195.116 0 0 1-2.334.158c.026 0 .03 0 .012-.005-.017-.003-.024-.002-.02.003.004.006.018-.015.042-.063.024-.046-.135.022-.477.206-.342.185-.553.311-.635.38.63.583 1.257 1.164 1.88 1.744ZM86.897 100.51c.14.324-.147.024-.863-.9-.05.408.087 1.766.413 4.074.327 2.309.61 4.052.85 5.228.239 1.177.343 2.024.312 2.541-.03.518.174 1.106.61 1.765.438.66.758 1.077.96 1.251.202.174.307.294.314.358.007.064.02.1.04.108.02.008.075.07.166.185.092.116.18.22.264.316.084.095.121.144.113.146-.008.002-.012 0-.014-.009a.528.528 0 0 1 .064.097c.045.073.17.17.372.29.204.12.292.164.266.131-.025-.033-.015-.04.031-.02.046.018.134.035.264.05.131.015.206.012.225-.01a.385.385 0 0 0 .043-.053c.01-.014.116-.034.321-.062.206-.026.304-.02.292.018.105.36.161.484.168.368-.012.354.004.485.046.394-.035.152-.168.5-.399 1.046.097-.186.155-.27.175-.249.128-.135.238-.222.331-.262.094-.04.62-.415 1.576-1.129a594.53 594.53 0 0 0 2.414-1.805c.652-.49 1.134-.862 1.446-1.114.313-.252.845-.607 1.595-1.066a21.15 21.15 0 0 0 1.823-1.22c.464-.357.83-.672 1.098-.948a6.98 6.98 0 0 0 .564-.63c.107-.145.171-.227.192-.246.021-.018.017-.023-.013-.013s-.013-.033.05-.127a8.474 8.474 0 0 1 .382-.52 3.26 3.26 0 0 0 .19-.284c.113-.18.161-.274.142-.286a.08.08 0 0 1-.037-.053c-.006-.023.008-.044.04-.063.033-.018.012-.145-.062-.38-.074-.234-.237-.732-.49-1.494a15.201 15.201 0 0 1-.562-2.2 282.33 282.33 0 0 0-.285-1.635 12.63 12.63 0 0 0-.13-.679c-.018-.067-.057-.24-.116-.519a7.182 7.182 0 0 0-.139-.579 30.864 30.864 0 0 0-.37-.997l-.019-.005c.016-.01.09-.097.22-.262.132-.164.178-.236.137-.214-.04.022-.057.028-.047.017a.735.735 0 0 0 .06-.102c.03-.057.06-.137.09-.239.029-.102.037-.148.023-.138-.014.01-.016.003-.007-.02.01-.024.015-.098.018-.223a6.074 6.074 0 0 0 .005-.238c.002-.02.003-.074.005-.165.003-.091.004-.161.003-.21 0-.048-.017-.025-.053.071-.035.097-.073-.18-.114-.829-.088-.093-.174-.067-.256.077-.082.145-.246.249-.493.312a3.63 3.63 0 0 1-.8.131c-.051.005-.133.01-.247.014a4.324 4.324 0 0 1-.207.007h-.016a146.483 146.483 0 0 1-.637.002c.017 0-.083-.009-.3-.029-.217-.02-.332-.018-.344.004a2.044 2.044 0 0 1-.193.208c-.116.118-.217.217-.303.297a273.935 273.935 0 0 0-11.197 2.72ZM1021.402 109.753l.103-.273c.07-.182.073-.207.012-.075-.044-.354-.07-.49-.078-.406a2.605 2.605 0 0 0-.109-.255c-.072-.156-.102-.211-.09-.165.012.047.02.065.021.054.002-.01-.026-.046-.086-.109a8.909 8.909 0 0 1-.26-.293c-.114-.132-.175-.188-.18-.17-.007.018.017.012.07-.019.054-.03-.333-.084-1.16-.16-.202.29-.27.392-.203.304-.214.527-.293.716-.237.567-.172.414-.247.61-.225.586-.054.35-.085.507-.093.47.041-.093.028-.016-.038.232a5.514 5.514 0 0 0-.139.686c-.026.21-.02.433.02.668.04.236.136.394.288.474.152.08.239.13.26.147.02.019.01.017-.034-.007-.043-.024.135.084.534.324.4.24.766.45 1.102.631.336.18.54.305.61.374.072.07.08.084.026.044-.053-.04.02.047.218.258.2.212.298.315.298.31.296.3.384.408.264.324.265.237.382.354.35.351.151.192.217.29.198.294.142.248.205.372.188.37.11.214.16.317.155.311-.058.179.044.473.308.881.264.41.493.696.687.86.194.163.365.305.513.424.15.12.225.182.226.186a.174.174 0 0 0 .02.03c.013.016.066.078.16.184.095.108.124.152.086.132-.036-.02-.015-.012.065.022s.07.036-.03.006c-.099-.03-.058.026.124.168.182.143.376.219.583.228.208.01.437-.013.69-.068.251-.054.387-.08.405-.078.018.004.015.009-.009.015-.024.008.04.004.192-.01l.51-.048c.188-.017.53-.053 1.024-.109.495-.055.86-.102 1.095-.142.236-.04.363-.058.38-.056.016.002.113-.003.291-.015.178-.01.464-.01.856 0 .392.01.507.027.343.05-.164.023-.033.049.392.078.425.03 1.043.066 1.855.108.812.043 1.415.064 1.808.062.394 0 .672.007.834.023.162.017.575.075 1.238.173.664.099 1.198.15 1.601.155a21.355 21.355 0 0 0 1.425-.019c.252-.013.502-.022.75-.026.25-.004.507-.006.773-.007.266 0 .376.005.328.015-.047.01-.07.007-.068-.009.003-.015.104-.03.304-.043.2-.014.432-.004.698.03.266.032.406.042.418.03.013-.012.033-.018.06-.016.025.002.085-.002.178-.012a14.583 14.583 0 0 1 .164-.016 8.108 8.108 0 0 0 .511-.084l.36-.064a.388.388 0 0 0 .071-.02c.046-.015.02-.006-.075.028-.094.035.078-.027.516-.186a9.359 9.359 0 0 0 1.4-.618 5.471 5.471 0 0 1 .603-.161c.245-.056.268-.095.07-.117-.198-.022.152-.09 1.05-.2.023-.171.027-.254.013-.249a114.831 114.831 0 0 1-.052-.416 15.245 15.245 0 0 1-.054-.526c-.01-.134-.014-.17-.012-.108.003.063-.006.03-.028-.1a9.23 9.23 0 0 1-.069-.475 34.593 34.593 0 0 1-.067-.478c-.04-.301-.065-.453-.073-.456-.008-.002-.012-.021-.012-.059 0-.038-.004-.035-.014.007-.009.042-.022-.03-.04-.219a9.678 9.678 0 0 1-.03-.796c-.004-.342-.009-.502-.016-.478-.006.024-.002.028.011.012.014-.016-.003-.302-.049-.858s-.1-.98-.164-1.272c-.064-.292-.11-.51-.14-.653-.03-.142-.092-.427-.188-.855a12.632 12.632 0 0 1-.227-1.663 1.016 1.016 0 0 0-.038-.019c-.138-.221-.173-.285-.105-.193.07.094.047.074-.067-.06a1.162 1.162 0 0 1-.236-.406c-.043-.138-.26-.316-.649-.535-.389-.218-.563-.316-.52-.296.04.02.035.02-.017-.002a7.251 7.251 0 0 1-.448-.219c.037.016-.036.012-.219-.01-.182-.022-.774-.05-1.774-.082s-2.114-.054-3.343-.066c-1.229-.011-2.169.009-2.82.06-.65.052-1.15.07-1.5.057-.35-.013-.62-.026-.81-.039a19.721 19.721 0 0 0-1.027-.04c-.026 0-.013-.004.041-.01.055-.007-.109-.005-.49.006-.382.012-.803.025-1.265.037-.46.014-.862.006-1.205-.023-.342-.028-.612-.052-.81-.07a3.311 3.311 0 0 1-.33-.038 16.054 16.054 0 0 0-.664-.088c-.42-.052-.92-.05-1.499.01-.578.058-.979.114-1.2.167-.223.054-.477.103-.765.15-.288.045-.615.112-.982.198a4.752 4.752 0 0 0-.905.296c-.237.11-.355.167-.353.17a11.883 11.883 0 0 0-.43.235c-.322.178-.417.233-.285.167.133-.065.072-.031-.183.102a3.522 3.522 0 0 1-.775.3 4.17 4.17 0 0 1-.414.095.867.867 0 0 0-.107 0c-.058.003-.077.004-.057.002.02-.001-.02.012-.12.04-.1.027-.265.025-.495-.005a6.1 6.1 0 0 1-.686-.132 4.179 4.179 0 0 0-.6-.113 8.143 8.143 0 0 1-.292-.032 1.856 1.856 0 0 0-.089-.015 2.126 2.126 0 0 0-.2-.013l-.248-.01c-.068-.003-.07-.006-.008-.009.064-.003-.072-.005-.407-.005a18.264 18.264 0 0 0-.825.012c.051-.003.046-.005-.015-.005a.808.808 0 0 1-.24-.053c-.1-.034-.282-.042-.546-.025a5.65 5.65 0 0 0-.563.058c1.746.822 3.49 1.65 5.228 2.482ZM1091.368 107.602c.088-.304.119-.412.093-.325-.094-.4-.123-.543-.087-.429-.236-.352-.306-.466-.209-.342-.022-.036-.146-.124-.372-.264-.054-.155.113-.225.501-.21.388.016.857.101 1.405.257a6.77 6.77 0 0 0 1.738.25c.61.01 1.155-.008 1.636-.055a60.578 60.578 0 0 1 2.393-.18c.076 0 .313-.014.711-.043.4-.03.7-.036.903-.02.203.015.591.049 1.164.101.573.053 1.042.079 1.408.078.366-.001.78-.03 1.24-.089.462-.057.922-.107 1.381-.149.46-.041.822-.082 1.084-.122.263-.04.528-.076.794-.108.268-.032.558-.078.872-.139.315-.06.669-.121 1.061-.185.392-.063.9-.15 1.52-.258.621-.108 1.382-.283 2.284-.525a26.96 26.96 0 0 1 2.354-.534c.668-.114 1.192-.177 1.573-.19.381-.015.737-.035 1.068-.062a9.88 9.88 0 0 1 .904-.035c.271.005.483.005.636.003.153-.003.394.006.723.024.33.018.677.045 1.042.08l.673.067a7.812 7.812 0 0 0 .688.04c.146.004.221.005.226.003.005-.002-.003.003-.023.013-.02.01.197.011.65.001.454-.01 1-.004 1.637.015a26.24 26.24 0 0 1 1.447.072c.328.03.508.047.54.053.03.006.079.011.143.015l.285.021c.126.01.163.022.113.034-.05.013-.056.02-.016.022.04.002.114.017.222.046l.323.09c.108.03.142.043.104.04a.254.254 0 0 1-.065-.009c-.005-.004.142.055.442.177.3.123.488.204.564.244.076.04.06.055-.05.044l.55.328c.027.016.004.016-.068.001l.18.105c-.214.652-.286.9-.218.746-.143.466-.198.661-.164.587a349.338 349.338 0 0 1-.212.72c-.012.044-.03.119-.054.223a3.873 3.873 0 0 1-.063.255c-.018.067-.146.498-.383 1.294a26.014 26.014 0 0 0-.516 1.957c-.107.509-.153.9-.139 1.173l.032.573c.007.109.015.176.023.202.01.026-.007.017-.049-.028s.015.26.171.916c.157.656.372 1.356.646 2.1.275.746.427 1.304.457 1.674.03.37.062.703.096 1l.117.967c.042.35.057.607.043.773-.013.166-.045.42-.095.762-.05.344-.082.51-.095.501-.112.628-.187.858-.224.692-.037-.166-.07-.02-.102.44-.03.46-.019.915.035 1.367.054.452.058.932.012 1.44-.046.508-.212 1.32-.499 2.434-.286 1.115-.474 1.949-.564 2.501-.089.554-.153 1.12-.192 1.702-.038.582-.07 1.146-.098 1.694-.027.548-.043.943-.048 1.187a6.605 6.605 0 0 1-.02.467c-.008.068-.023.349-.046.841-.022.493-.04.924-.055 1.292-.014.37-.026.625-.037.766-.01.142-.016.155-.016.04l-.003.74c-.002.61-.047 1.524-.137 2.74-.089 1.217-.154 2.037-.196 2.46-.04.422-.059 1.135-.054 2.14.005 1.003.043 1.743.114 2.217.071.475.12.867.146 1.177.028.31.049.497.063.558.016.06.017.31.004.75-.012.437-.03.787-.054 1.048-.023.262-.049.619-.078 1.071-.029.453-.049.914-.059 1.383-.01.469-.016.79-.018.966 0 .176-.007.362-.018.558l-.024.504c-.005.14-.006.204-.004.193a.999.999 0 0 1 .01.185c.002.134.007.17.014.107.008-.062.005.04-.01.307s-.023.512-.025.735l-.004.626a4.9 4.9 0 0 1-.009.365c-.005.049-.004.075.003.078.007.004.015.177.024.52.01.343-.007.78-.05 1.312a45.82 45.82 0 0 0-.096 1.356 21.491 21.491 0 0 0-.03 1.362c0 .19.002.417.006.682.004.266.003.544-.004.834-.006.29-.01.637-.01 1.04-.001.402.02.789.06 1.16.042.37.075.625.1.761.026.137.043.245.05.324.008.08.018.088.032.024.014-.064.04.069.075.398.037.33.065.557.084.682.02.125.043.324.071.598a37.777 37.777 0 0 1 .05.5l.016.11c.008.055.018.153.03.295a2.7 2.7 0 0 0 .053.397c.003.016.008 0 .014-.044.008-.044.02.134.034.533.016.4.036.79.062 1.174.027.383.042.617.045.701.004.085.003.352-.005.801-.007.45-.011.792-.013 1.026 0 .236 0 .413.004.533.004.12.007.167.01.141a.365.365 0 0 0-.005-.084 31.656 31.656 0 0 1 .125 1.779c.032.649.06 1.17.082 1.566.024.396.044.683.058.861.015.18.023.327.024.443.002.116.009.274.021.472.013.198.026.429.04.691.013.262.007.57-.02.921-.029.352-.049.443-.06.272-.013-.17-.082.381-.209 1.655s-.242 2.153-.344 2.635c-.102.483-.209.952-.319 1.407-.11.455-.183.794-.219 1.018-.035.224-.064.435-.086.631-.022.197-.036.284-.042.262-.006-.021-.007-.02-.003.003a.22.22 0 0 1-.005.09c-.008.034-.01.045-.01.032a48.52 48.52 0 0 1-.03 1.079c-.012.32-.059.776-.14 1.37-.08.593-.142 1.027-.185 1.3-.043.273-.068.439-.074.498-.006.06-.04.196-.102.408-.06.212-.098.336-.11.371a5.747 5.747 0 0 0-.077.261 5.28 5.28 0 0 0-.099.415c-.027.14-.032.136-.015-.01.018-.145-.032.044-.15.566-.117.522-.207.93-.269 1.226-.062.296-.1.508-.116.637-.016.13-.02.152-.013.066.007-.086-.012-.015-.056.212a6.139 6.139 0 0 0-.092.826c-.018.324-.034.434-.05.33-.015-.102-.029-.049-.042.161-.012.21.032.382.132.516.102.134.257.27.465.405.21.136.308.2.296.191l.121.07c-.16.042-.524.17-1.09.386a38.87 38.87 0 0 1-2.283.767 23.25 23.25 0 0 1-2.629.663c-.796.148-1.454.254-1.972.32-.518.064-.952.131-1.3.201-.35.07-.697.137-1.04.197-.345.06-.735.141-1.172.241-.436.1-.88.182-1.336.244-.455.063-.799.1-1.03.111-.233.012-.43.02-.596.025-.164.006-.26.003-.289-.01-.028-.014-.236-.026-.625-.037-.388-.01-.95.015-1.687.075a27.33 27.33 0 0 1-1.652.101c-.364.006-.643.005-.835-.004a10.952 10.952 0 0 0-.643-.008c-.236.004-.477.02-.72.05-.245.027-.344.024-.298-.012.046-.036-.184-.005-.69.095-.505.1-.932.176-1.282.228-.348.053-.659.063-.932.03-.273-.034-.395-.056-.367-.066.03-.01.038-.022.028-.038-.01-.015-.07-.04-.183-.076-.112-.036-.512-.095-1.2-.177l-.005.012a3.512 3.512 0 0 1-.058-.042c-.066-.012-.107-.027-.124-.044-.016-.017-.006-.023.032-.018a.58.58 0 0 0 .06.007c.002 0-.119-.081-.364-.242-.244-.16-.354-.239-.33-.235.025.004.047.01.066.02.02.01-.138-.095-.473-.317-.334-.22-.598-.4-.79-.537a4.611 4.611 0 0 1-.448-.352 1.943 1.943 0 0 1-.304-.37c-.096-.15-.099-.193-.008-.132.092.062-.077-.226-.509-.864a430.773 430.773 0 0 1-1.937-2.899c-.86-1.295-1.56-2.282-2.1-2.962-.538-.68-.887-1.196-1.047-1.548a3.763 3.763 0 0 1-.302-.93c-.043-.267-.058-.404-.046-.41.013-.006.007-.077-.017-.213a15.196 15.196 0 0 1-.07-.44c-.025-.16-.044-.236-.058-.229-.014.008 0 .01.045.005.045-.003-.105-.398-.449-1.185a68.316 68.316 0 0 1-.876-2.083c-.239-.602-.512-1.068-.82-1.398-.306-.33-.586-.547-.84-.652l-.377-.157.08.053c.05.034-.149-.085-.598-.356-.072-.404-.104-.575-.098-.515.007.06.006.071-.002.031a32.29 32.29 0 0 1-.143-.846c.004.024.008-.045.012-.206a5.93 5.93 0 0 1 .01-.259c.002-.012.013-.016.034-.01a329.308 329.308 0 0 1 .223-.56.318.318 0 0 0 .076.01c.038.003.09.005.154.005a51083.64 51083.64 0 0 0 .958-19.028 43661.151 43661.151 0 0 0 .958-19.028c.16-3.172.315-6.353.466-9.543.152-3.19.28-6.433.386-9.727.107-3.294.197-6.635.27-10.02.074-3.387.195-6.714.363-9.98Z" stroke="#9D5940" stroke-width=".5" fill="#9D5940" fill-rule="nonzero"/><path d="M3.58 78.591c.08.004-.091-.023-.515-.083-.423-.058-.771-.03-1.045.085-.274.116-.52.365-.74.746-.219.382-.31.557-.272.524.038-.032.051-.024.04.025-.013.05-.016.17-.012.36.005.19.006.36.003.51.616-.288.834-.42.656-.392.274-.338.414-.507.42-.506.11-.193.475-.67 1.095-1.433.62-.761 1.657-2.054 3.11-3.879 1.454-1.824 2.527-3.173 3.22-4.047.694-.873 1.192-1.402 1.494-1.588.303-.184.86-.65 1.672-1.396.812-.746 1.483-1.372 2.013-1.876.53-.504 1.148-1.207 1.854-2.11.706-.902 1.863-2.306 3.47-4.212 1.607-1.904 2.754-3.3 3.442-4.186a46.726 46.726 0 0 0 1.825-2.507 39.984 39.984 0 0 1 1.56-2.162c.509-.656 1.764-1.96 3.766-3.912 2.003-1.951 3.496-3.48 4.48-4.586a90.697 90.697 0 0 0 2.177-2.517c.47-.571.787-.936.955-1.096.168-.16.311-.303.428-.433.118-.13.25-.268.394-.416l.161-.165c-.037.038-.014.02.068-.052.083-.072.376-.37.88-.894.503-.524.91-.949 1.22-1.275.311-.326.556-.58.735-.76a2.1 2.1 0 0 0 .428-.615c.106-.23 1.018-1.19 2.738-2.883 1.72-1.692 3.21-3.12 4.472-4.285 1.262-1.164 2.511-2.27 3.746-3.318 1.236-1.048 3.167-2.87 5.793-5.466 2.626-2.596 4.603-4.54 5.93-5.83a234.356 234.356 0 0 1 3.175-3.049 60.874 60.874 0 0 0 2.62-2.576 21.267 21.267 0 0 1 .574-.576 13.864 13.864 0 0 0 .618-.64c-.036.034.065-.075.302-.327a13.115 13.115 0 0 0 .425-.46c.02-.021.125-.173.316-.455.192-.282.372-.504.542-.668.171-.163.43-.407.78-.733.348-.325.657-.654.926-.986.102.049.051.202-.15.458-.203.257-.384.472-.543.646M77.005 3.006c-.3-.358-.517-.865-.65-1.522.45-.002.598.006.447.024-.15.018-.052.017.298 0 .35-.019.795-.054 1.333-.106.54-.051.767-.07.681-.058-.084.014-.105-.004-.062-.054.044-.048.77-.102 2.18-.16 1.408-.059 2.721.026 3.94.254 1.217.228 2.078.37 2.582.43.505.058.99.115 1.453.171.465.057 1.364.12 2.696.192a96.09 96.09 0 0 0 4.52.122c1.681.01 4.172-.04 7.473-.149a378.7 378.7 0 0 0 7.892-.326 166.32 166.32 0 0 1 4.721-.207c1.187-.03 1.985-.027 2.393.01.408.035 1.308.206 2.698.511 1.392.306 2.813.52 4.265.64 1.453.12 2.783.156 3.99.11a47.536 47.536 0 0 1 4.035.04c1.484.07 3.406.232 5.766.483 2.36.252 4.084.377 5.172.375 1.088-.002 1.79-.024 2.105-.067.316-.043.695-.093 1.136-.15.442-.057.849-.122 1.221-.194.373-.072 1.245-.115 2.615-.13 1.372-.016 2.191-.016 2.46 0 .267.017.995.07 2.181.162 1.187.092 2.058.174 2.614.246.557.073 1.112.132 1.664.176a57.34 57.34 0 0 1 1.447.133c.413.044.706.068.88.071.173.004.702.022 1.586.053.885.032 1.682.046 2.392.042.71-.003 1.236-.003 1.58.001.343.004.728-.006 1.155-.03.428-.026.81-.046 1.144-.06.336-.015.458-.006.367.027-.09.033.175-.042.797-.224.622-.182 3.624-.064 9.008.354 5.384.419 10.29.753 14.715 1.001 4.426.249 7.64.367 9.645.355 2.005-.012 3.67-.124 4.997-.335 1.328-.211 3-.313 5.014-.305 2.016.008 4.391.077 7.127.207 2.736.13 4.884.178 6.444.144 1.561-.034 2.99-.118 4.288-.252a306.06 306.06 0 0 0 2.773-.295c.552-.062.917-.1 1.097-.114.18-.014.46-.04.84-.08.379-.04.812-.08 1.3-.116a285.759 285.759 0 0 1 2.28-.16c.337-.022.69 0 1.058.07.37.07 1.713-.034 4.03-.312 2.316-.278 5.26-.57 8.83-.878 3.57-.306 6.23-.419 7.98-.337 1.751.083 3.04.14 3.864.174.826.034 1.286.058 1.382.072.097.016 2.072.055 5.924.117 3.853.062 7.419.046 10.697-.05 3.28-.095 7.718-.14 13.316-.133 5.598.008 9.731.04 12.398.1 2.668.06 4.802.056 6.403-.014 1.602-.068 4.058-.023 7.37.135 3.31.159 6.76.366 10.345.621 3.587.256 6.556.395 8.906.418 2.352.023 6.153.126 11.404.31 5.252.184 9.418.429 12.5.735l8.67.865c2.701.27 5.395.52 8.081.751 2.687.232 4.715.385 6.084.457 1.37.072 4.59.184 9.66.335 5.069.15 8.769.317 11.1.5 2.33.18 4.397.237 6.2.167a68.346 68.346 0 0 1 5.212-.007c1.671.065 2.988.117 3.951.157.964.04 1.7.056 2.208.046.51-.01.886-.014 1.13-.014.246 0 .66-.006 1.241-.018.582-.011 2.368-.051 5.358-.12 2.991-.07 5.334-.127 7.03-.173 1.696-.046 3.522-.13 5.478-.25 1.957-.122 3.46-.22 4.506-.297 1.048-.076 1.87-.142 2.47-.198a38.53 38.53 0 0 1 1.484-.112c.392-.02.777-.04 1.155-.065.38-.024.636-.038.771-.043.135-.004.19-.03.165-.076-.025-.046 2.075-.16 6.301-.34 4.226-.18 8.243-.33 12.05-.449 3.808-.12 6.95-.276 9.427-.468 2.476-.192 4.284-.33 5.423-.416 1.14-.086 2.284-.17 3.43-.25l4.25-.294c1.686-.116 3.008-.198 3.968-.248.96-.05 1.98-.101 3.062-.155a52.322 52.322 0 0 1 3.902-.02c1.52.039 3.86-.013 7.025-.155 3.166-.142 5.67-.272 7.515-.388 1.846-.116 4.052-.326 6.618-.629 2.567-.302 5.353-.443 8.357-.42 3.006.021 6.032.077 9.08.165 3.048.088 5.74.072 8.074-.048 2.334-.12 4.419-.22 6.253-.303 1.835-.082 3.55-.138 5.145-.17 1.596-.031 4.28-.072 8.055-.123l11.98-.159c4.21-.055 7.673-.048 10.387.021 2.714.069 4.637.116 5.77.142 1.134.026 3.02.086 5.661.182 2.642.096 4.786.14 6.434.135 1.648-.005 2.952.005 3.911.03.96.024 2.057-.05 3.291-.222s5.307-.307 12.218-.407c6.912-.1 12.124-.1 15.634-.002 3.511.098 5.946.217 7.304.356 1.358.14 3.407.19 6.145.152 2.74-.038 5.563-.106 8.471-.204 2.91-.098 7.111-.103 12.606-.015 5.496.088 9.83.078 13-.032s6.577-.39 10.221-.842c3.644-.452 6.654-.65 9.032-.594 2.378.057 5.135.115 8.271.173 3.136.059 5.912.162 8.326.31 2.415.148 4.549.255 6.401.32 1.852.064 3.885.086 6.098.066 2.213-.02 4.988-.011 8.326.026s6.452.054 9.34.05c2.89-.003 5.728.05 8.516.158 2.788.109 6.528.193 11.218.252 4.691.06 9.042.13 13.053.213 4.012.083 6.966.059 8.863-.072a65.083 65.083 0 0 1 6.168-.106c2.214.06 4.65.168 7.308.324 2.658.158 4.687.255 6.087.292 1.4.037 3.395.173 5.983.408 2.59.236 4.6.398 6.032.486 1.433.089 2.531.152 3.295.188.764.037 1.342.067 1.733.091.391.025.595.035.612.031.018-.003.133.01.344.04.212.03 1.098.097 2.66.201 1.562.105 2.836.157 3.821.157.986 0 1.943.011 2.871.033.93.022 2.325.049 4.185.081 1.86.033 3.405.062 4.635.087 1.23.026 2.115.05 2.657.07.542.02 1.557.083 3.043.19 1.488.105 2.982.197 4.483.275 1.502.078 2.688.153 3.558.226.871.074 1.795.13 2.771.168.976.039 1.921.047 2.834.025a36.253 36.253 0 0 0 2.145-.099 43.054 43.054 0 0 1 2.33-.109 90.087 90.087 0 0 1 3.93.001c1.585.028 2.67.043 3.252.045.584.002 1.234-.019 1.948-.06a49.84 49.84 0 0 0 3.316-.306c.286-.04.922-.112 1.906-.218a31.22 31.22 0 0 1 3.318-.16c1.227-.001 2.173 0 2.84.006.665.005 1.505.019 2.52.042l2.986.068c.978.022 1.743.044 2.296.068.554.024.974.035 1.262.035.288 0 .623.009 1.005.023.382.016.815.03 1.297.042.484.013.772.014.864.003.093-.01 2.22-.028 6.38-.053 4.16-.024 7.342-.025 9.546-.005 2.204.022 3.734.076 4.59.163.856.088 2.858.132 6.005.134 3.147.002 5.812-.02 7.994-.062 2.183-.043 3.836-.055 4.958-.037 1.123.02 2.096.044 2.92.073.823.03 1.718.069 2.686.116.968.048 1.395.072 1.28.074-.116.003 1.033 0 3.446-.008 2.414-.007 4.976.064 7.686.212 2.711.15 4.737.26 6.08.33 1.341.07 2.88.094 4.615.072a89.272 89.272 0 0 1 4.48.041l2.902.114c.685.028 1.265.042 1.74.042.476.002 1.223.027 2.24.077 1.017.05 1.81.09 2.38.117.569.028.906.047 1.011.058.106.01 1.239.065 3.4.162 2.16.097 4.077.196 5.75.296 1.673.102 3.606.162 5.8.181 2.192.02 4.154.008 5.884-.034 1.731-.042 3.073-.061 4.026-.059.954.003 1.557.002 1.81-.003.254-.004.858.012 1.813.048.955.038 2.096.084 3.424.14 1.33.056 2.326.096 2.991.118.666.023 1.19.043 1.573.06.384.016.54.026.467.03-.072.003-.003-.008.207-.033.211-.025 2.669.131 7.373.47-.026-.022-.142-.05-.348-.086a3.116 3.116 0 0 0-.64-.043" stroke="#000" stroke-width="1.7"/><path d="M1043.86 5.257c.178.392-.048.024-.678-1.104 1.296.424 1.747.59 1.351.5.995.681 1.394.951 1.198.81-.278-.228 1.71 1.28 5.964 4.524 4.254 3.244 7.911 5.653 10.971 7.227 3.061 1.575 5.99 3.074 8.79 4.498a182.485 182.485 0 0 1 8.051 4.347 164.976 164.976 0 0 0 8.12 4.351c2.844 1.427 5.634 2.821 8.368 4.183 2.735 1.362 6.322 3.256 10.761 5.682a724.353 724.353 0 0 1 13.32 7.463c4.44 2.549 7.81 4.445 10.108 5.69 2.3 1.244 4.642 2.515 7.028 3.813a353.324 353.324 0 0 1 5.451 3.012c1.248.71 2.39 1.335 3.425 1.874a20.528 20.528 0 0 1 2.907 1.831 57.901 57.901 0 0 0 2.644 1.887 79.71 79.71 0 0 0 2.133 1.39c.562.35 1.333.705 2.315 1.065l.025-.032a258.52 258.52 0 0 1-.784-.604c-.11-.085-.285-.148-.524-.188a3.448 3.448 0 0 0-.755-.04" stroke="#000" stroke-width="1.685"/><path d="M6.409 79.88c.106-1.074.125-1.463.057-1.165-.147-.164-.012-.601.406-1.31-.53.137 1.718.456 6.746.956 5.028.5 8.957.852 11.788 1.054 2.832.203 4.997.37 6.497.501 1.501.13 4.061-.104 7.681-.706 3.621-.601 7.05-.962 10.29-1.083 3.237-.12 6.366-.222 9.384-.307 3.018-.084 5.294-.19 6.826-.32 1.533-.128 3.815-.213 6.847-.255 3.033-.04 5.39-.007 7.07.101 1.68.108 2.937.19 3.771.245.836.056 1.593.088 2.273.097.68.01 1.066.02 1.157.032.092.012.674.018 1.748.018 1.075.002 2.426-.065 4.052-.199 1.627-.134 3.759-.203 6.395-.207 2.638-.003 4.663.05 6.077.16 1.414.11 2.583.166 3.505.168.924.003 1.63-.007 2.12-.03.49-.022.958-.052 1.402-.092a101.101 101.101 0 0 0 1.928-.183 4.41 4.41 0 0 0 .316-.054c.162-.032 1.113-.122 2.853-.272 1.742-.15 3.031-.202 3.868-.16.838.043 2.264-.007 4.277-.149 2.013-.142 3.563-.301 4.65-.479a74.526 74.526 0 0 1 2.718-.4c.727-.09 1.24-.148 1.536-.174.298-.025.558-.043.78-.053.223-.01.312-.017.268-.019-.044-.001.231-.013.827-.036a29.24 29.24 0 0 1 2.367.035c.982.046 2.017.057 3.105.032a58.637 58.637 0 0 0 2.597-.104 41.477 41.477 0 0 1 1.786-.094c-.025 0 .164-.023.566-.067.403-.044.808-.074 1.216-.09.41-.017.906-.03 1.49-.039.585-.008.883-.007.893.003.01.01.021.018.033.021.012.004.32.02.921.045.602.027 1.125.043 1.57.05.444.006.761.019.95.037.19.019.69.019 1.503 0 .813-.018 2.226-.089 4.24-.21 2.013-.123 4.78-.191 8.301-.205 3.522-.013 6.363.044 8.523.171 2.162.127 3.903.208 5.224.242 1.321.034 2.278.061 2.871.081.594.02 1.522.063 2.786.127 1.265.065 3.43.1 6.497.107 3.066.008 6.738.09 11.014.245 4.276.157 7.686.277 10.23.36 2.545.084 4.315.124 5.31.118.994-.005 2.172-.003 3.534.006a163.8 163.8 0 0 1 5.191.14c2.098.082 3.719.147 4.861.195 1.143.048 2.1.066 2.87.055.77-.011 2.105.009 4.003.06 1.898.05 3.646.08 5.243.086 1.598.006 2.796-.002 3.595-.024.8-.022 1.423-.04 1.871-.05.448-.013.778-.025.99-.038.21-.012.644-.033 1.298-.063s1.852-.057 3.594-.082c1.742-.024 3.14-.028 4.194-.01 1.055.017 1.927.024 2.615.022.69-.002 1.134.025 1.334.08.2.054 1.806.13 4.818.225 3.012.096 5.957.093 8.833-.007 2.878-.1 5.272-.11 7.182-.029 1.91.08 3.302.112 4.174.094a102.86 102.86 0 0 1 1.91-.024c.4 0 .788-.001 1.162-.004.374-.003.759-.002 1.155.002.396.005.787.003 1.173-.007.387-.01.664-.01.832 0 .168.01 2.163 0 5.985-.03 3.823-.031 7.787-.02 11.893.036 4.106.056 7.246.158 9.422.308s4.054.209 5.636.177c1.582-.031 2.696-.061 3.343-.09l1.543-.072c.382-.017.683-.024.902-.02l.741.008c.275.002.626-.001 1.054-.01.428-.008.571-.016.428-.024-.142-.008-.045-.029.29-.063.336-.034 2.648.025 6.937.18 4.29.153 7.757.196 10.403.126 2.646-.07 4.646-.062 5.998.02 1.354.084 2.72.13 4.097.141 1.378.01 2.931-.084 4.66-.285 1.727-.2 3.856-.3 6.384-.298 2.528.003 4.592.012 6.19.028 1.6.017 3.108.002 4.528-.044 1.421-.045 2.37-.071 2.847-.078.477-.007 1.107-.014 1.89-.022a57.082 57.082 0 0 1 2.197.02c.684.02 1.038.032 1.062.037.025.006.11.01.255.012.146.002.591.016 1.336.042a68.85 68.85 0 0 0 2.89.026c1.18-.01 2.27-.026 3.273-.05 1.003-.026 1.786-.048 2.348-.068.562-.02 1.045-.035 1.448-.048.404-.012.813-.033 1.227-.06.415-.029.82-.05 1.217-.064.398-.014.776-.015 1.134 0 .36.013.54-.008.54-.065s.929-.088 2.785-.094c1.858-.006 4.52-.012 7.99-.018 3.468-.006 6.074-.005 7.816.003 1.743.009 3.042.013 3.897.013.856 0 1.565-.008 2.13-.022.564-.014.931-.027 1.101-.037.171-.01.184-.016.04-.02-.145-.004-.054-.022.272-.054.327-.032 2.652.04 6.976.22 4.325.179 7.805.26 10.44.245 2.636-.016 4.74-.057 6.31-.125 1.571-.067 2.707-.092 3.408-.076.702.017 1.201.012 1.5-.016.297-.026 1.138-.027 2.523-.002a3989.898 3989.898 0 0 0 5.49.096c.54.01 1.658-.033 3.352-.13 1.695-.096 3.281-.18 4.758-.25a50.96 50.96 0 0 1 3.896-.057c1.121.034 2.238.075 3.35.125s1.941.087 2.486.113c.545.026 1.08.062 1.602.107.523.045.967.066 1.331.062a232.932 232.932 0 0 0 1.111-.012 191.107 191.107 0 0 1 1.448-.019c.082 0 .25.003.505.007.255.005 1.324-.027 3.207-.095 1.884-.068 3.757-.117 5.618-.145a187.68 187.68 0 0 1 5.33-.008c1.691.022 2.884.035 3.578.04.694.003 1.154.009 1.382.018.228.01.662.035 1.302.075.64.04 1.168.08 1.584.12.416.04.915.08 1.497.122.583.043.97.064 1.16.064.19 0 .224.008.102.022-.122.014.2.006.966-.024s3.03.009 6.79.117c3.76.109 6.863.228 9.307.357 2.445.13 4.02.167 4.727.113a71.162 71.162 0 0 1 3.026-.14c1.31-.041 2.597-.033 3.863.024l3.347.152c.965.044 1.716.06 2.254.05.538-.01.972-.023 1.3-.039a64.85 64.85 0 0 1 1.19-.04c.465-.012.824-.024 1.077-.037.253-.012.567-.013.943-.003.376.012.507.015.392.011-.115-.003.548.002 1.988.015 1.44.014 2.54.03 3.297.05.76.02 2.711.065 5.856.135 3.146.07 5.823.088 8.031.053 2.21-.034 3.833-.09 4.871-.165 1.038-.076 1.755-.125 2.151-.147.397-.022.87-.043 1.42-.063.551-.02.919-.036 1.103-.048.186-.011.252-.013.2-.005-.052.008.234-.013.86-.064.625-.05 1.399-.093 2.321-.129a63.467 63.467 0 0 1 2.202-.056c.546 0 .87.003.972.011.103.009.327.007.673-.007.346-.012.763.01 1.251.067.49.058 2.444.017 5.864-.122 3.422-.138 6.15-.282 8.182-.432 2.034-.15 3.452-.242 4.255-.278a73.75 73.75 0 0 0 2.677-.174 57.09 57.09 0 0 1 2.407-.155l1.533-.059c.4-.016.648-.03.744-.04.097-.012.62 0 1.566.033.947.034 1.787.08 2.52.14.732.058 1.322.085 1.77.081.447-.004.795.001 1.045.015.25.015.534.02.85.018.317-.002.658-.015 1.023-.039.366-.024.847-.036 1.444-.036.598 0 1.365-.007 2.303-.02.938-.014 1.757-.041 2.457-.083.7-.04 1.078-.056 1.133-.047.056.01.376-.013.962-.069l.78-.073c-.066.007.204 0 .81-.02.607-.02 1.19-.048 1.746-.086a97.003 97.003 0 0 0 1.442-.104c.404-.032.65-.038.737-.017.088.022.062 0-.078-.063s1.296-.13 4.307-.2 5.258-.076 6.742-.02c1.484.058 2.591.109 3.321.153.73.045 1.524.076 2.381.093.858.017 2.087.02 3.688.011 1.602-.01 2.878-.026 3.827-.05.95-.023 1.69-.037 2.217-.043.528-.005.87-.01 1.025-.017.156-.005.3-.007.43-.005.13.003.213.003.251 0a.456.456 0 0 1-.08.007c-.093.009.281 0 1.12-.028.84-.026 2.42-.071 4.74-.135 2.322-.064 4.592-.077 6.808-.04 2.217.036 3.924.06 5.122.071 1.2.012 2.137.03 2.813.055a1146.172 1146.172 0 0 0 2.983.111c.543.022.825.035.847.037.022.004.089.011.2.023.11.012.589.026 1.433.043.846.018 1.79.02 2.831.006 1.043-.013 1.953-.027 2.73-.04.778-.014 1.625-.023 2.541-.029.917-.004 1.712-.003 2.385.005.674.009 1.26-.002 1.757-.032.498-.03 1.391-.02 2.68.025 1.29.046 4.122.094 8.496.143 4.375.05 7.395.064 9.061.042 1.667-.021 3.657-.043 5.97-.067 2.312-.023 4.55-.027 6.71-.013 2.162.015 3.896.009 5.203-.019a104.61 104.61 0 0 0 3.453-.124 48.935 48.935 0 0 0 2.192-.157c.466-.05.822-.078 1.066-.085.245-.006.306-.004.183.004-.122.009-.088-.02.102-.086.191-.066 2.254-.077 6.188-.035 3.935.043 7.388.068 10.36.076 2.97.008 5.058-.002 6.262-.03a54.419 54.419 0 0 0 2.995-.14 59.9 59.9 0 0 1 2.71-.149 54.04 54.04 0 0 1 2.658-.034c.76.013 1.291.02 1.594.02.303 0 .664.02 1.083.061.42.042.976.073 1.67.093.694.02 2.34.03 4.937.025 2.598-.004 5.153.052 7.667.167 2.515.116 4.376.178 5.584.184 1.208.008 2.108.004 2.7-.01a206.986 206.986 0 0 1 3.96-.066c-.187 0 .223-.01 1.23-.035a44.145 44.145 0 0 1 3.566.082 454.019 454.019 0 0 1 5.226.327c.574.04.836.054.787.043-.048-.01.033-.006.242.012.21.019 1.103.063 2.68.133l4.742.21c1.586.07 2.878.117 3.874.141.997.026 1.897.037 2.701.033a76.916 76.916 0 0 0 2.761-.068c1.037-.042 1.838-.075 2.402-.1.565-.025.968-.026 1.208-.002.24.025.686.038 1.336.04.651 0 1.193 0 1.625-.005.434-.003.811 0 1.133.01.322.01.526.01.61-.002.085-.012.086-.017.002-.015-.083.002.055-.007.413-.028.358-.02 1.506-.059 3.442-.115 1.936-.055 3.618-.07 5.044-.045 1.427.026 2.585.053 3.474.083.89.03 1.554.05 1.991.057.437.008.81.012 1.116.01.307-.002.67-.002 1.088-.002.42.002.54.016.363.043-.177.028.25.005 1.28-.07 1.031-.074 3.366-.106 7.005-.096 3.64.012 6.64.087 9.003.227 2.363.14 4.13.26 5.302.358 1.172.1 2.033.203 2.583.311.55.108 1.03.206 1.44.294.41.089.664.133.764.133.1 0 .156.022.166.062.01.042 1.163.33 3.46.864 2.295.535 4.735.853 7.317.955 2.583.102 4.626.216 6.13.34 1.502.124 2.635.24 3.398.346.764.108 2.335.13 4.713.067 2.38-.062 4.438-.177 6.176-.346 1.74-.17 3.018-.247 3.837-.235.82.013 1.504.036 2.054.068.551.033.953.055 1.205.067.252.013.353.014.302.004-.05-.01.234.02.852.088.62.068 1.815.06 3.588-.023 1.773-.082 3.41-.153 4.91-.213 1.499-.058 2.654-.064 3.466-.017.812.048 1.344.076 1.595.082.252.006.6.034 1.044.082a175.327 175.327 0 0 0 4.116.436c1.268.123 2.54.209 3.82.257a128.011 128.011 0 0 0 4.429.112 60.613 60.613 0 0 1 1.924.038c.026.004.16.015.401.033.242.018.62.03 1.132.033.514.004.974.003 1.381 0 .408-.005.752-.008 1.031-.008.28 0 .403-.001.37-.005-.035-.004-.057-.015-.067-.034-.009-.018 1.79-.018 5.396-.002 3.608.018 6.81.01 9.61-.022 2.798-.032 5.004-.053 6.617-.06 1.613-.009 3.003-.015 4.17-.02 1.168-.006 2.09.003 2.766.025.676.023 1.168.066 1.475.13.308.063 1.205.127 2.69.192 1.484.066 3.94.003 7.368-.188 3.428-.191 6.798-.315 10.11-.373a899.07 899.07 0 0 0 8.615-.183c2.432-.066 4.284-.09 5.556-.07 1.273.018 2.016.032 2.23.042.214.01 1.473-.015 3.776-.077 2.304-.062 4.23-.109 5.774-.14 1.546-.033 2.642-.043 3.29-.033a58.62 58.62 0 0 0 2.927-.059c1.305-.05 2.552-.101 3.741-.153 1.19-.05 2.132-.085 2.826-.105.694-.018 2.516.052 5.466.211 2.95.16 5.789.154 8.517-.02 2.728-.172 5.098-.324 7.108-.456s3.657-.194 4.94-.188c1.284.007 2.653.023 4.108.05 1.456.025 3.06.027 4.81.004 1.752-.022 3.088-.052 4.008-.092.921-.04 1.885-.093 2.893-.162a79.15 79.15 0 0 0 2.513-.206 116.44 116.44 0 0 1 1.532-.15c.354-.031.533-.041.54-.03.005.01.224.014.654.013.432-.001 2.214-.06 5.346-.178s5.99-.162 8.575-.134c2.584.028 5.078.022 7.482-.018 2.404-.04 4.167-.144 5.29-.313l2.517-.375c.556-.082.916-.133 1.081-.153.166-.02.544-.051 1.133-.094.59-.043.795-.062.617-.058-.178.004-.092-.003.258-.023s.82-.008 1.413.035c.593.044 1.257.072 1.993.084.736.013 1.236-.01 1.5-.069.263-.058.494-.095.692-.11.2-.014.254-.036.166-.066-.088-.03.331-.145 1.256-.347.926-.202 1.73-.3 2.411-.293a54.29 54.29 0 0 1 1.441.027c.28.012.416.021.412.03-.004.007.003.007.021 0 .018-.01.062-.003.133.02.071.021.217.049.438.082.222.033.578.062 1.066.086.49.025.798.039.924.042a3.996 3.996 0 0 0 .418-.005c-.045.004.123-.007.504-.034.382-.027.711-.067.988-.12.278-.055.372-.077.28-.067.225-.046.436-.092.633-.138.197-.045.273-.061.23-.048.34-.095.514-.157.518-.186.175-.016.28-.034.315-.056.036-.021.014-.016-.066.014-.079.03-.024.006.164-.075.19-.08.144-.051-.136.087-.278.139.418-.206 2.088-1.035a8.61 8.61 0 0 1-.158-.28 55.361 55.361 0 0 1-.279-.515M1150.32 67.483c-.593-.248-1.192-.891-1.8-1.93.36-.505.543-.666.551-.484 1.145.463 1.617.657 1.415.583-.02-.536 2.867 1.705 8.665 6.724-.018.029-.08.096-.185.201a234.769 234.769 0 0 0-.996-.635" stroke="#000" stroke-width="1.7"/><path d="M9.902 83.775c.077-.906.099-1.306.065-1.2.064-.183-.006-1.277-.21-3.283-.852 1.236-1.15 1.674-.896 1.316-.582-.08-.904 1.94-.966 6.058-.06 4.119-.22 7.58-.475 10.385-.255 2.806-.372 4.407-.35 4.805" stroke="#000" stroke-width="1.7"/><path d="M5.543 99.632c-.83-.321-1.156-.44-.975-.354-.089-.024-.232-.098-.429-.223.158-.124 3.157-.24 8.996-.348 5.84-.107 10.344-.198 13.516-.273 3.172-.074 5.807-.243 7.904-.506a216.51 216.51 0 0 1 6.7-.727c2.37-.222 4.269-.288 5.697-.197 1.43.092 2.842.13 4.237.114 1.396-.014 3.728.116 6.994.392 3.268.276 6.595.657 9.981 1.143 3.386.487 6.135.776 8.247.868 2.112.092 4.028.126 5.748.102 1.72-.024 4.802-.02 9.244.012 4.443.032 8.288-.018 11.535-.152 3.248-.134 5.253-.287 6.015-.46.763-.173 3.813-.11 9.15.188s9.508.6 12.512.907c3.004.306 5.427.55 7.267.73 1.84.179 4.467.336 7.881.471 3.414.135 7.1.25 11.055.344 3.956.094 7.908.138 11.857.13 3.95-.006 6.548.125 7.796.395 1.248.27 3.903.745 7.965 1.423 4.062.679 7.685 1.075 10.868 1.188 3.184.113 5.456.157 6.816.131 1.36-.026 2.654 0 3.88.076 1.226.078 5.783.293 13.67.646 7.888.353 13.992.61 18.312.772 4.32.162 7.64.31 9.957.443 2.318.134 3.823.195 4.515.185.693-.01 2.08.022 4.16.096 2.08.074 4.12.118 6.12.131 1.998.013 6.21.12 12.636.32 6.426.2 11.473.34 15.14.42 3.667.08 6.434.013 8.302-.203a102.37 102.37 0 0 1 6.071-.505c2.178-.12 5.982-.23 11.412-.328 5.43-.098 9.563-.16 12.397-.187 2.836-.026 5.118-.1 6.847-.223 1.73-.122 3.853-.212 6.37-.269 2.518-.056 5-.078 7.442-.065 2.444.014 6.763-.07 12.956-.254 6.194-.183 10.827-.419 13.9-.707 3.073-.287 5.638-.411 7.694-.373 2.057.039 4.656.03 7.797-.024 3.142-.055 5.494-.135 7.054-.24 1.561-.106 3.006-.184 4.336-.236 1.33-.05 2.497-.11 3.5-.178a29.065 29.065 0 0 1 2.727-.069c.816.022 1.687.016 2.614-.018l10.824-.407c6.29-.237 11.907-.3 16.852-.19 4.946.11 8.458.187 10.535.23 2.078.041 4.223.073 6.434.093 2.212.02 3.912.007 5.1-.042 1.186-.048 3.407-.097 6.661-.146 3.254-.048 6.86-.201 10.818-.46 3.958-.258 8.187-.524 12.687-.797 4.501-.273 10.332-.468 17.493-.585a10385.8 10385.8 0 0 1 16.991-.266c4.167-.061 7.186-.048 9.057.04 1.872.087 4.138.171 6.8.253 2.66.082 4.768.116 6.32.1 1.552-.015 2.794-.012 3.725.008.932.02 1.62.032 2.066.035.446.004.77.01.973.02.204.01.667.014 1.39.012a1862.068 1862.068 0 0 0 13.123-.094c2.118-.025 5.33 0 9.638.077a887.5 887.5 0 0 0 12.27.136c3.871.015 7.009.042 9.411.08 2.403.038 4.173.072 5.31.1 1.138.029 3.79.038 7.953.026 4.165-.01 8.462-.011 12.891-.002 4.43.01 7.865-.006 10.307-.048 2.443-.042 5.78.053 10.01.285 4.229.233 7.56.312 9.995.236 2.435-.074 4.624-.194 6.568-.358 1.944-.164 4.517-.268 7.72-.31 3.204-.044 6.15-.081 8.84-.112 2.69-.03 5.313-.014 7.871.048 2.558.064 5.3.087 8.224.07 2.926-.016 5.852.037 8.78.16 2.928.122 5.743.216 8.443.281 2.7.066 6.38.106 11.04.122 4.659.017 8.354-.037 11.084-.163 2.732-.124 5.192-.162 7.382-.114 2.19.05 4.127.054 5.81.013 1.684-.04 3.126-.074 4.326-.1 1.201-.026 1.868-.057 2.001-.094.133-.036 2.582-.02 7.346.05 4.765.07 11.015.115 18.751.136 7.736.022 14.245.022 19.525 0 5.281-.022 9.107.017 11.478.115 2.372.099 4.231.173 5.58.221 1.347.049 4.48.4 9.395 1.054 4.916.655 9.137 1.098 12.661 1.328 3.525.23 6.682.432 9.472.605 2.79.173 5.233.276 7.327.31 2.094.033 3.752.075 4.972.125 1.222.05 2.421.14 3.6.27 1.177.13 3.656.274 7.434.431 3.778.158 6.614.247 8.506.268 1.893.02 4.215.058 6.966.111 2.752.054 5.22.1 7.401.14 2.182.04 5.27-.012 9.264-.158 3.995-.144 7.724-.25 11.188-.315 3.465-.064 6-.136 7.605-.214 1.606-.077 2.873-.122 3.8-.136.927-.013 1.5-.02 1.718-.019.218 0 .682.01 1.391.025.71.016 2.278.084 4.705.203 2.427.12 4.673.173 6.738.16 2.065-.013 3.918-.003 5.56.03 1.64.033 4.748-.014 9.32-.14 4.573-.126 8.244-.3 11.012-.522 2.768-.222 5.95-.333 9.546-.333 3.597 0 6.714-.011 9.35-.032 2.637-.021 5.683-.093 9.138-.216 3.456-.123 5.995-.204 7.618-.243 1.624-.038 2.866-.06 3.726-.062.86-.002 2.492.004 4.895.016 2.404.013 4.36-.007 5.867-.06a467.76 467.76 0 0 1 4.048-.124c1.192-.03 2.571-.102 4.138-.216a85.523 85.523 0 0 1 4.623-.213c1.516-.028 2.511-.074 2.987-.139.476-.064 2.87-.029 7.184.105s7.853.295 10.617.481c2.764.186 4.997.24 6.698.161a400.89 400.89 0 0 1 7.135-.24c3.056-.082 5.535-.058 7.435.071 1.902.13 5.606.19 11.113.181 5.508-.008 10.363-.006 14.566.004 4.204.012 7.406-.04 9.606-.152 2.2-.112 4.09-.23 5.671-.354a56.04 56.04 0 0 1 5.268-.134c1.932.034 3.47.068 4.611.1 1.143.033 2.067.055 2.773.065a613.862 613.862 0 0 1 2.757.046c.39.006.486.006.287.002-.198-.004.073-.003.811.002.738.005 1.11.012 1.113.02.005.008-.018.006-.07-.008-.05-.012.486.046 1.608.174 1.124.13 2.084.237 2.88.321l2.077.223a24.69 24.69 0 0 0 2.282.154c.076 0 .281-.019.616-.059.335-.04.706.048 1.112.262.407.215 1.898.1 4.472-.343 2.576-.443 3.925-.731 4.048-.865" stroke="#000" stroke-width="1.698"/><path d="m1155.938 76.924 1.078.687c.054.035.263-.038.625-.218l-.707 1.11c-.548.992-.762 1.432-.64 1.32.032.353-.317 2.662-1.048 6.928-.73 4.266-2.077 9.965-4.04 17.095l.334.214a.737.737 0 0 1 .14-.13c.048.03.18.055.396.074.217.019.4.023.55.012" stroke="#000" stroke-width="1.598"/><path d="M1106.05 109.5c.214-.587.295-.777.243-.57.176-.36.282-.605.318-.736.036-.13.035-.141 0-.032-.05-.82-.066-1.08-.05-.78.01-.237.017-.4.023-.492.006-.092.002-.106-.013-.044l-.019-.006-.22.724-.22.723c-.201.599-.346 2.048-.436 4.346a122.991 122.991 0 0 1-.345 5.866 30.91 30.91 0 0 0-.069 4.65c.096 1.487.06 2.67-.109 3.55-.167.88-.3 1.786-.399 2.718-.098.932-.114 2.114-.05 3.546.065 1.433.126 2.684.182 3.752l.191 3.62c.071 1.343.09 2.317.057 2.923a59.518 59.518 0 0 0-.067 1.696c-.012.525-.008 1.032.013 1.521.021.49.048.868.082 1.134.035.266.008.968-.082 2.105a76.011 76.011 0 0 1-.36 3.514c-.152 1.206-.269 3.035-.35 5.49a551.538 551.538 0 0 0-.185 6.633c-.04 1.969-.095 4.194-.165 6.676-.069 2.482-.082 4.313-.04 5.493.043 1.18.03 2.102-.037 2.763a43.098 43.098 0 0 0-.136 1.546l-.045.67c-.005.077-.009.091-.01.043l.02.38c.015.302-.025 1.66-.12 4.078a180.764 180.764 0 0 0-.154 6.232c-.007 1.737.006 2.99.04 3.757.033.769.064 1.244.092 1.425.03.182.04.365.032.551-.006.187-.008.362-.006.526.003.165.003.25 0 .257-.005.007-.004-.028.001-.105.005-.076.005-.021 0 .166a5.317 5.317 0 0 1-.095.767c-.058.324-.089.477-.092.46a.108.108 0 0 1 .008-.059c.01-.022.003 0-.018.07-.02.07-.013.039.02-.094.034-.132 0-.034-.099.294-.099.328-.152.508-.158.54-.005.033-.036.17-.094.414-.057.243-.114.49-.17.742-.057.252-.08.35-.07.293a1.51 1.51 0 0 1-.026.27l.09.026M1103.644 204.974l-.348-.107c-.06-.02-.17-.05-.329-.095a24.216 24.216 0 0 1-1.104-.364c.766-.186 1.083-.243.952-.17.46-.007 2.767-.17 6.92-.49 4.152-.321 7.708-.535 10.668-.642 2.96-.107 5.608-.308 7.944-.602l.022-.07a73.95 73.95 0 0 1-.315-.145 4.42 4.42 0 0 0-.365.17c-.238.115-.418.206-.54.272M1129.426 109.507c-.038-.261-.285-.644-.742-1.148-.456-.503-.707-1.174-.753-2.013-.137.454-.195.676-.174.664-.129.439-.064 1.7.196 3.785s.426 3.65.496 4.696c.071 1.046.121 2.21.151 3.493.03 1.282.107 2.217.231 2.805.124.588.14 1.401.046 2.44-.092 1.038-.146 2.526-.164 4.463-.016 1.938-.028 3.79-.035 5.557-.007 1.767-.032 3.49-.076 5.168-.042 1.678-.058 3.06-.046 4.147.012 1.087-.112 2.274-.373 3.562-.26 1.288-.483 3.572-.67 6.852-.187 3.28-.23 5.794-.128 7.542.102 1.749.121 3.38.056 4.893a81.905 81.905 0 0 0-.089 3.71c.004.96-.008 1.738-.037 2.334a48.821 48.821 0 0 1-.204 2.488 17.93 17.93 0 0 0-.045 3.145c.077 1.036.092 2.223.044 3.562-.047 1.34-.16 3.24-.34 5.7-.181 2.459-.28 4.32-.3 5.583-.019 1.263-.069 2.166-.149 2.708-.08.543-.122 1.037-.124 1.482-.002.445 0 .762.004.951.005.19.063.52.174.992.112.472.164.686.156.642-.007-.043.005.001.037.133.032.133.082.317.148.553.067.236.15.652.246 1.25l.013-.045" stroke="#000" stroke-width="1.7"/><path d="M1092.563 189.75c-.024-.05-.204-.135-.54-.253-.334-.117-.927-.627-1.779-1.53l.014-.045c.216.08.847 1.224 1.894 3.434a95.086 95.086 0 0 0 3.298 6.35c1.153 2.024 2.294 3.53 3.424 4.517 1.131.988 1.807 1.59 2.028 1.81" stroke="#000" stroke-width="1.694"/><path d="M1090.97 108.741a287.047 287.047 0 0 0 .356-1.172 52.69 52.69 0 0 0 .185-.61 31.35 31.35 0 0 0 .171-.562c.143.298.18.439.11.421-.003-.337-.044 1.734-.124 6.212s-.174 8.341-.282 11.59c-.108 3.247-.154 5.54-.138 6.88.018 1.34.087 2.384.208 3.132.121.749.19 2.124.207 4.126.018 2.002-.023 3.54-.124 4.615-.1 1.074-.164 1.765-.19 2.073a4.682 4.682 0 0 1-.243 1.071c-.136.406-.256 1.613-.36 3.62a810.48 810.48 0 0 1-.468 8.057c-.208 3.365-.393 5.891-.557 7.58a130.264 130.264 0 0 0-.37 4.548 58.803 58.803 0 0 0-.124 3.467c0 .967-.04 1.892-.118 2.774-.078.882-.127 1.402-.145 1.56-.018.158-.034.62-.05 1.384a30.168 30.168 0 0 1-.126 2.251c-.069.736-.098 1.247-.087 1.535.012.289.029.497.051.623.023.128.03.156.02.086-.01-.07-.013-.076-.007-.02.007.058.008.038.002-.058s.001-.025.02.213c.02.238.036.496.05.772.014.277.015.492.003.646a7.305 7.305 0 0 0-.02.308c0 .052-.001.039-.003-.04 0-.078-.006.025-.015.31-.008.285-.007.595.001.93l.015.49c.002-.006.006-.036.014-.089.008-.052-.007.022-.045.224s-.072.323-.104.365M33.491 108.902c.232-.063.237-.415.015-1.057-.222-.64-.4-1.262-.536-1.864-.135-.601-.208-.791-.218-.57-.009.22.031.047.12-.52.09-.566.28-1.883.568-3.949l-.209-.053c-.324-.102-.57 1.279-.738 4.141-.168 2.863-.174 5.136-.019 6.818.156 1.683.261 3.074.314 4.173.054 1.1.11 1.977.167 2.633.058.657.168 1.475.33 2.454.16.98.426 4.584.796 10.811.371 6.228.636 11.01.796 14.345.16 3.336.264 5.663.311 6.98.048 1.317.098 2.105.151 2.364.053.26.08 1.296.083 3.107.003 1.812-.028 3.749-.094 5.811a622.808 622.808 0 0 0-.139 4.777 95.454 95.454 0 0 1-.077 2.36c-.024.45-.04.852-.048 1.206-.008.355.002.445.03.27.027-.175-.006.498-.098 2.02-.092 1.521-.202 3.273-.329 5.253a91.426 91.426 0 0 0-.195 5.576c-.003 1.737.07 3.35.22 4.84.149 1.489.241 2.607.276 3.355.035.749.051 1.326.05 1.731-.003.406.001.587.013.543.012-.042-.018.263-.09.916a35.464 35.464 0 0 0-.182 2.053.04.04 0 0 1-.002-.023 273.166 273.166 0 0 1-.081 1.055c-.046.58-.079 1.018-.099 1.314a7.64 7.64 0 0 0-.026.511c.003.044-.007-.05-.029-.284-.022-.234-.002.87.06 3.311l.035.01.053.184" stroke="#000" stroke-width="1.7"/><path d="M38.772 205.006c-.165-.663-2.154-1.268-5.967-1.816l-.05.202c-.177.027.151.103.984.228.834.125 1.71.116 2.627-.027.917-.142 1.734-.272 2.45-.39.718-.119 1.213-.185 1.485-.2.273-.016.588-.077.944-.183.357-.106 2.108-.639 5.254-1.597 3.147-.958 8.39-1.35 15.727-1.175-.126.006-.473.266-1.043.78-.569.513-.94.823-1.115.927" stroke="#000" stroke-width="1.64"/><path d="M59.481 110.367c.006-1.252-.023-1.743-.087-1.473.03-.051.006-.145-.074-.282-.079-.137-.211-.363-.397-.678a49.524 49.524 0 0 0-.578-.958c-.199-.323-.267-.468-.203-.435.064.034-.048-.04-.338-.222-.29-.181-.603-.61-.94-1.288-.337-.677-.364-1.448-.08-2.312.09.446.25 5.084.48 13.916.23 8.833.485 15.894.765 21.182.282 5.29.556 9.208.824 11.755.268 2.547.486 5.47.654 8.772.168 3.302.148 5.954-.062 7.958-.21 2.005-.453 4.724-.729 8.158-.276 3.434-.507 5.926-.693 7.477-.186 1.55-.35 3.661-.495 6.331-.144 2.67-.108 4.659.107 5.966l.484 2.934c.108.65.188 1.073.24 1.27.053.197.074.334.062.411-.01.078.006-.099.051-.53.046-.433-.024 1.437-.21 5.61.437-.083.611-.115.522-.097-.089.019-.075.002.042-.052.118-.054.356-.286.715-.697.36-.411.886-1.001 1.58-1.77.696-.77 1.613-1.77 2.752-2.998a206.055 206.055 0 0 0 2.916-3.2c.804-.905 1.529-1.711 2.173-2.418.646-.706 2.928-3.299 6.846-7.777.207-.364.125-.154-.246.631-.37.786-.79 1.408-1.259 1.868-.469.46-.784.715-.945.765" stroke="#000" stroke-width="1.594"/><path d="M71.056 103.232c.116-.536.159-.661.127-.376-.032.286-.045.04-.039-.736.006-.776.239-1.874.697-3.292.35 2.149.613 5.55.791 10.201.178 4.652.325 8.062.44 10.232.116 2.17.275 5.033.48 8.586.203 3.554.38 6.21.526 7.967.148 1.758.359 3.622.633 5.592.274 1.97.456 3.561.546 4.773.09 1.213.186 2.032.288 2.458.103.427.197 1.2.282 2.322a33.35 33.35 0 0 1 .104 3.048c-.015.912-.075 1.567-.18 1.965-.107.399-.153 1.767-.139 4.103.014 2.337.033 4.458.056 6.363.024 1.906-.043 3.536-.199 4.891a273.545 273.545 0 0 0-.339 3.054 192.422 192.422 0 0 0-.28 2.899c-.023.266-.035.434-.037.505a15.45 15.45 0 0 1-.03.528c-.019.28-.027.442-.025.486.004.044.004.04.002-.01 0-.051.006-.066.02-.045.016.02-.002.214-.052.578-.05.365 0 .915.151 1.651s.344 1.34.58 1.814c.236.473.354.746.353.818 0 .072.03.306.09.701.061.395.095.574.102.538.007-.036.018.276.032.938.12-.477.178-.83.173-1.058a3.528 3.528 0 0 0-.096-.725" stroke="#000" stroke-width="1.7"/><path d="M57.425 105.868c-.008-.653-.101-2.182-.28-4.586-.222.052-.34 1.421-.355 4.107-.015 2.687.003 4.337.055 4.951" stroke="#000" stroke-width="1.667"/><path d="M95.177 116.072a980.789 980.789 0 0 1-.29 1.154c-.272.666-.398.92-.377.764-.528.302-.708.43-.542.385.167-.044.138-.026-.088.056-.225.083-.507.125-.846.125-.338 0-.603-.043-.794-.132-.392-1.628 2.706-3.865 9.294-6.712l-.093-.024" stroke="#000" stroke-width="1.7"/><path d="M90.256 103.9c-.2-.316-1.062-1.013-2.588-2.092-.3.975-.426 1.41-.377 1.305-1.06.44-.634 6.742 1.28 18.904a.775.775 0 0 0 .22.012c.043-.382.247-1.225.612-2.53.365-1.306.642-2.361.831-3.167.19-.804.42-1.31.69-1.518.272-.207.843-.38 1.714-.519a204.3 204.3 0 0 1 2.93-.442c1.082-.156 2.397-.467 3.945-.933s2.707-1.013 3.475-1.643c.77-.63 1.237-1.03 1.403-1.2" stroke="#000" stroke-width="1.614"/><path d="M103.843 107.142c-.268-.056-.63-1.96-1.084-5.715-.659 1.097-1.088 3.981-1.288 8.653-.199 4.672-.252 7.183-.159 7.533" stroke="#000" stroke-width="1.655"/><path d="M1024.875 110.362c.165.079.28-1.002.345-3.244.143-.59.148.622.016 3.635-.13 3.014-.298 5.452-.5 7.314-.203 1.862.009 3.065.635 3.608.628.544.991.797 1.091.76" stroke="#000" stroke-width="1.7"/><path d="M1027.168 119.624c.03.098.216-.004.56-.307a3.645 3.645 0 0 1 1.122-.684c.404-.152 1.09-.28 2.056-.384.968-.104 1.731-.222 2.291-.354.56-.132 2.243-.293 5.048-.485 2.806-.191 4.911-.275 6.317-.252 1.407.023 2.21.03 2.41.021.201-.01.683-.136 1.445-.382.763-.245 1.068-.357.914-.335.537-.135.865-.473.983-1.015-.988-.543-1.563-1.427-1.723-2.652-.16-1.224.007-3.836.503-7.834-.489.894-.674 1.32-.555 1.277-.37.684-.503 1.746-.396 3.188.108 1.443.46 2.945 1.06 4.507.597 1.563.818 3.113.66 4.65-.157 1.537-.26 2.465-.307 2.785" stroke="#000" stroke-width="1.685"/><path d="M1019.281 113.85c.25-.788-.58-2.175-2.488-4.162.495.34 1.78 1.322 3.852 2.943 2.074 1.622 3.655 3.166 4.745 4.63 1.09 1.466 1.715 2.353 1.876 2.662" stroke="#000" stroke-width="1.67"/><path d="M1020.826 108.092c-.218-.67-.882-1.289-1.992-1.857-.805.064-.896 1.328-.272 3.792.624 2.464 1.006 3.894 1.145 4.29" stroke="#000" stroke-width="1.7"/></g></svg>